<svg width="1440" height="1024" viewBox="0 0 1440 1024" fill="none" xmlns="http://www.w3.org/2000/svg">
<g clip-path="url(#clip0_305_593)">
<rect width="1440" height="1024" fill="#D88E30"/>
<path opacity="0.2" d="M177.54 96.7239C333.286 80.0368 382.652 189.43 387.867 246.213C203.779 276.091 124.291 188.566 95.9258 96.7239M95.9258 96.7239C83.3658 56.0561 80.8299 14.5419 83.6751 -18H372.223C472.063 -18 553 62.9366 553 162.777C553 262.617 472.063 343.554 372.223 343.554H207.09C79.4093 343.554 -24.0962 240.049 -24.0962 112.368L-23.5752 96.7239H95.9258ZM177.54 590.384C333.286 607.071 382.652 497.678 387.867 440.895C203.779 411.017 124.291 498.543 95.9258 590.384M95.9258 590.384C83.3658 631.052 80.8299 672.566 83.6751 705.108H372.223C472.063 705.108 553 624.171 553 524.331C553 424.491 472.063 343.554 372.223 343.554H207.09C79.4093 343.554 -24.0962 447.06 -24.0962 574.74L-23.5752 590.384H95.9258Z" stroke="url(#paint0_linear_305_593)" stroke-width="59.6996"/>
<path opacity="0.2" d="M1294.89 593.856C1079.23 570.75 1010.88 722.225 1003.66 800.851C1258.56 842.223 1368.63 721.028 1407.9 593.856M1407.9 593.856C1425.29 537.544 1428.81 480.06 1424.87 435H1025.32C887.071 435 775 547.072 775 685.319C775 823.567 887.071 935.638 1025.32 935.638H1253.98C1430.77 935.638 1574.1 792.316 1574.1 615.519L1573.37 593.856H1407.9ZM1294.89 1277.42C1079.23 1300.53 1010.88 1149.05 1003.66 1070.43C1258.56 1029.05 1368.63 1150.25 1407.9 1277.42M1407.9 1277.42C1425.29 1333.73 1428.81 1391.22 1424.87 1436.28H1025.32C887.071 1436.28 775 1324.2 775 1185.96C775 1047.71 887.071 935.638 1025.32 935.638H1253.98C1430.77 935.638 1574.1 1078.96 1574.1 1255.76L1573.37 1277.42H1407.9Z" stroke="url(#paint1_linear_305_593)" stroke-width="82.6651"/>
<g filter="url(#filter0_d_305_593)">
<path d="M51.2502 44.7799C61.4849 43.6833 64.7289 50.8719 65.0716 54.6033C52.9745 56.5667 47.751 50.8151 45.8871 44.7799M45.8871 44.7799C45.0617 42.1075 44.8951 39.3794 45.082 37.241H64.0436C70.6044 37.241 75.9231 42.5596 75.9231 49.1205C75.9231 55.6814 70.6044 61 64.0436 61H53.1921C44.8017 61 38 54.1983 38 45.8079L38.0342 44.7799H45.8871ZM51.2502 77.2201C61.4849 78.3167 64.7289 71.128 65.0716 67.3966C52.9745 65.4332 47.751 71.1848 45.8871 77.2201M45.8871 77.2201C45.0617 79.8925 44.8951 82.6206 45.082 84.759H64.0436C70.6044 84.759 75.9231 79.4404 75.9231 72.8795C75.9231 66.3186 70.6044 61 64.0436 61H53.1921C44.8017 61 38 67.8017 38 76.1921L38.0342 77.2201H45.8871Z" stroke="url(#paint2_linear_305_593)" stroke-width="3.92308" shape-rendering="crispEdges"/>
</g>
<g filter="url(#filter1_d_305_593)">
<path d="M117.294 58.22L117.33 58.148C118.95 59.732 119.742 61.784 119.778 63.944C119.778 65.024 119.562 66.176 119.058 67.148C118.59 68.156 117.906 68.984 117.15 69.668C115.746 70.928 113.838 71.936 112.002 72.404C110.13 72.872 108.186 73.016 106.17 72.548C102.642 71.72 100.05 68.408 100.014 64.772C99.9782 63.332 100.41 62.252 100.77 62.54C101.022 62.756 101.13 63.836 101.346 64.628C101.742 66.212 102.534 67.832 103.866 68.876C106.386 71 110.346 70.424 113.01 68.912C114.378 68.156 115.602 67.112 116.178 65.888C116.43 65.312 116.538 64.7 116.574 64.088C116.61 62.468 115.674 60.56 114.126 59.948C112.11 59.156 110.418 60.164 108.546 60.848L108.402 60.884C108.258 61.64 108.15 62.396 108.078 63.116C107.97 64.268 108.006 65.348 108.222 66.32C108.294 66.572 108.618 67.076 107.862 67.436C107.574 67.58 107.286 67.508 107.07 67.436C106.278 67.148 105.774 66.392 105.45 65.672C105.126 64.988 104.946 64.232 104.874 63.476C104.766 62.036 105.018 60.704 105.126 59.48C105.198 58.652 105.27 57.86 105.234 57.14C105.162 57.212 105.09 57.284 105.018 57.356C103.506 58.832 100.95 59.66 99.0062 58.544C97.4222 57.644 96.8462 55.808 97.2422 54.08C97.7102 51.956 99.2222 49.904 100.878 48.536C102.282 47.348 103.902 46.52 105.522 46.088C107.142 45.656 108.69 45.512 110.238 45.62C112.182 45.8 114.162 46.412 115.494 47.924C117.258 49.868 117.402 52.388 116.358 54.728C115.998 55.556 115.494 56.276 115.062 56.78C115.89 57.104 116.682 57.608 117.294 58.22ZM103.794 57.392C104.334 57.032 104.802 56.636 105.198 56.24C105.198 56.204 105.198 56.168 105.198 56.132C104.73 56.564 104.226 56.996 103.506 57.356C103.11 57.572 102.678 57.752 102.21 57.86C101.778 57.968 101.13 58.04 100.518 57.932C99.2582 57.752 98.1782 56.636 98.1062 55.268C98.0342 54.62 98.2142 53.828 98.3942 53.36C98.5742 52.82 98.7902 52.352 99.0422 51.884C99.5462 50.984 100.158 50.12 100.914 49.364C102.426 47.852 104.442 46.772 106.566 46.34C105.522 46.556 104.478 46.916 103.506 47.42C102.534 47.924 101.634 48.572 100.842 49.364C100.05 50.156 99.4022 51.02 98.8982 51.956C98.6462 52.424 98.3942 52.928 98.2142 53.504C98.1782 53.648 98.1422 53.792 98.1062 53.972C98.0702 54.152 98.0342 54.332 97.9982 54.512C97.9622 54.872 97.9622 55.232 97.9982 55.592C98.1062 56.312 98.4662 56.96 98.9702 57.392C99.4742 57.824 100.122 58.076 100.77 58.112C101.094 58.148 101.454 58.148 101.742 58.112C101.994 58.076 102.246 58.004 102.498 57.932C102.966 57.788 103.398 57.608 103.794 57.392ZM105.63 65.42V65.456C106.062 66.392 106.71 67.076 107.322 67.436C106.494 66.896 105.702 65.816 105.378 64.448C105.162 63.548 105.126 62.684 105.162 61.964C105.054 62.864 105.054 64.124 105.63 65.42ZM105.522 52.424H105.63C105.702 52.424 105.774 52.424 105.846 52.424C105.738 52.424 105.63 52.424 105.522 52.424ZM106.926 63.548H106.89C106.926 62.72 107.034 61.892 107.142 61.064C107.034 61.892 106.926 62.72 106.926 63.548ZM107.178 61.064H107.214C107.142 61.712 107.07 62.36 107.034 63.008C107.106 62.36 107.178 61.712 107.286 61.064C107.25 61.064 107.214 61.064 107.178 61.064ZM107.214 63.476L107.25 63.512C107.286 62.72 107.394 61.928 107.502 61.1C107.466 61.1 107.43 61.1 107.394 61.1C107.286 61.892 107.214 62.684 107.214 63.476ZM107.646 57.5C107.646 57.464 107.646 57.428 107.646 57.392C107.646 57.428 107.646 57.464 107.646 57.5ZM108.222 54.692H108.15C108.294 55.088 108.402 55.484 108.474 55.916C108.474 55.7 108.438 55.484 108.402 55.268C108.366 55.052 108.33 54.836 108.258 54.62C108.114 54.224 107.934 53.828 107.682 53.468C107.61 53.36 107.538 53.252 107.43 53.144C107.43 53.216 107.43 53.288 107.43 53.36C107.502 53.432 107.574 53.504 107.646 53.576C107.898 53.9 108.078 54.296 108.222 54.692ZM111.966 57.716V57.752C112.002 57.752 112.038 57.752 112.074 57.752C112.11 57.716 112.146 57.68 112.182 57.644C112.146 57.644 112.11 57.644 112.074 57.644C112.038 57.68 112.002 57.68 111.966 57.716ZM112.146 57.644C112.182 57.644 112.218 57.644 112.254 57.644C112.29 57.608 112.326 57.572 112.362 57.536C112.326 57.536 112.29 57.536 112.254 57.536C112.218 57.572 112.182 57.608 112.146 57.644ZM112.29 57.752C112.326 57.716 112.362 57.68 112.398 57.644C112.362 57.644 112.326 57.644 112.29 57.644C112.254 57.68 112.218 57.716 112.182 57.752C112.218 57.752 112.254 57.752 112.29 57.752ZM112.326 57.644V57.572C112.362 57.572 112.398 57.572 112.434 57.572C112.47 57.572 112.506 57.536 112.542 57.536C112.506 57.536 112.47 57.536 112.434 57.536C112.398 57.572 112.362 57.608 112.326 57.644ZM112.506 57.392C112.542 57.356 112.578 57.32 112.614 57.284C112.578 57.284 112.542 57.284 112.506 57.284C112.47 57.32 112.434 57.356 112.398 57.392C112.434 57.392 112.47 57.392 112.506 57.392ZM112.65 57.32C112.614 57.356 112.578 57.392 112.542 57.428C112.578 57.428 112.614 57.428 112.65 57.428C112.686 57.392 112.722 57.356 112.758 57.32C112.722 57.32 112.686 57.32 112.65 57.32ZM112.578 57.68C112.614 57.644 112.65 57.608 112.686 57.572C112.65 57.572 112.614 57.572 112.578 57.572C112.542 57.608 112.506 57.644 112.47 57.68C112.506 57.68 112.542 57.68 112.578 57.68ZM112.722 57.572L112.614 57.608C112.65 57.608 112.686 57.572 112.722 57.572C112.686 57.572 112.65 57.572 112.614 57.572C112.65 57.572 112.686 57.572 112.722 57.572ZM112.83 57.428C112.866 57.392 112.902 57.356 112.938 57.32C112.902 57.32 112.866 57.32 112.83 57.32C112.794 57.356 112.758 57.392 112.722 57.428C112.758 57.428 112.794 57.428 112.83 57.428ZM112.866 53.684L112.902 53.612C113.514 52.46 113.694 51.236 112.686 50.228C111.786 49.436 110.022 49.148 108.33 49.364C106.602 49.544 105.054 50.12 103.758 51.128C103.29 51.488 100.122 54.62 101.274 55.196C101.526 55.304 101.886 55.088 102.102 54.98C102.606 54.728 103.182 54.332 103.578 53.9C103.974 53.432 104.298 52.928 104.802 52.604C105.918 51.848 107.43 51.848 108.222 53.072C108.51 53.54 108.654 54.08 108.762 54.62C108.906 55.484 108.942 56.276 108.906 56.96C109.014 56.924 109.122 56.888 109.23 56.852C110.814 56.06 112.182 54.98 112.866 53.684ZM113.478 56.384L113.586 56.348C114.054 55.88 114.45 55.376 114.774 54.8C115.098 54.224 115.35 53.648 115.53 53C115.674 52.352 115.71 51.632 115.53 50.948C115.674 51.632 115.602 52.352 115.422 53C115.242 53.648 114.99 54.224 114.666 54.8C114.342 55.376 113.946 55.916 113.478 56.384ZM113.658 56.348L113.694 56.384C113.73 56.384 113.766 56.384 113.802 56.384C114.09 56.096 114.342 55.808 114.594 55.484C114.99 54.944 115.278 54.332 115.494 53.72C115.71 53.072 115.854 52.388 115.818 51.668C115.782 50.156 114.846 48.896 113.694 48.14C114.846 48.896 115.746 50.156 115.782 51.632C115.782 52.352 115.638 53.036 115.422 53.648C115.206 54.26 114.882 54.836 114.486 55.376C114.234 55.736 113.946 56.06 113.658 56.348ZM113.91 56.42H113.982C114.522 55.844 114.99 55.196 115.35 54.44C115.638 53.828 115.89 53.144 115.998 52.424C116.106 51.704 116.034 50.912 115.746 50.192C116.034 50.912 116.07 51.704 115.962 52.424C115.854 53.144 115.602 53.828 115.314 54.44C114.954 55.196 114.45 55.844 113.91 56.42ZM114.378 57.644V57.716C115.638 58.004 116.754 58.832 117.474 59.84C118.266 60.92 118.734 62.216 118.842 63.548C118.734 62.216 118.266 60.92 117.474 59.804C116.754 58.796 115.638 57.968 114.378 57.644ZM117.006 64.772H116.826C117.006 63.296 116.466 61.748 115.602 60.74C116.682 62.072 117.258 64.376 116.286 66.248C115.782 67.256 114.81 68.192 113.622 68.948C113.046 69.308 112.398 69.668 111.75 69.92C111.066 70.172 110.31 70.352 109.554 70.46C107.394 70.856 105.234 70.496 103.686 69.236C102.318 68.192 101.526 66.608 101.166 65.06C101.382 66.068 101.742 67.076 102.354 67.94C102.75 68.48 103.218 68.984 103.758 69.38C104.01 69.596 104.334 69.74 104.622 69.92C104.946 70.064 105.234 70.244 105.558 70.316C106.854 70.748 108.294 70.784 109.734 70.532C110.454 70.424 111.174 70.244 111.858 69.992C112.542 69.74 113.226 69.38 113.874 68.984C114.738 68.444 115.494 67.796 116.034 67.076C116.574 66.356 116.898 65.564 117.006 64.772ZM118.41 62.936C118.662 64.232 118.482 65.636 117.87 66.824C118.482 65.636 118.698 64.232 118.482 62.936C118.266 61.64 117.69 60.38 116.79 59.372C116.106 58.58 115.17 58.04 114.162 57.788C114.126 57.788 114.09 57.788 114.054 57.788C115.062 58.04 116.034 58.58 116.718 59.372C117.618 60.38 118.194 61.64 118.41 62.936ZM118.338 66.428L118.374 66.5C118.914 65.204 118.914 63.728 118.59 62.396C118.266 61.064 117.582 59.804 116.502 58.832C115.962 58.364 115.314 57.968 114.63 57.716C114.522 57.68 114.414 57.644 114.306 57.608C114.414 57.644 114.522 57.68 114.63 57.716C115.314 57.932 115.962 58.328 116.502 58.796C117.546 59.732 118.23 60.992 118.554 62.324C118.878 63.656 118.878 65.132 118.338 66.428ZM134.518 68.408L134.662 68.48C134.842 68.804 134.806 69.2 134.626 69.488C134.482 69.704 134.266 69.848 133.978 69.884C133.546 69.92 133.114 69.74 132.754 69.452C132.394 69.164 132.106 68.804 131.854 68.444C131.422 67.832 131.17 67.148 130.954 66.5C130.738 67.004 130.486 67.508 130.126 67.976C128.794 69.812 126.382 70.712 124.258 69.668C122.17 68.552 121.45 66.428 121.234 64.736C120.946 62.828 121.018 60.776 121.522 58.904C121.774 57.932 122.134 56.924 122.746 55.952C123.79 54.332 125.662 53.18 127.606 53.18C128.326 53.18 129.01 53.288 129.658 53.504C129.91 53.576 130.162 53.684 130.414 53.792C130.45 53.684 130.522 53.612 130.63 53.54C130.918 53.396 131.386 53.504 131.638 53.576C132.466 53.792 133.294 54.296 133.798 54.908C134.518 55.736 134.374 56.528 134.23 57.356C134.05 58.472 133.906 59.48 133.834 60.2C133.762 60.92 133.726 61.352 133.726 61.352C133.618 62.648 133.654 63.944 133.798 65.204C133.942 66.464 134.158 67.724 134.518 68.408ZM126.994 56.492H127.03C126.526 56.672 126.13 56.96 125.77 57.392C125.842 57.248 125.95 57.176 126.058 57.068C126.094 57.032 126.13 56.996 126.166 56.96L126.346 56.888C126.454 56.816 126.562 56.744 126.67 56.708C126.778 56.672 126.886 56.6 127.03 56.6C127.174 56.564 127.318 56.528 127.462 56.492C127.606 56.456 127.714 56.42 127.858 56.42C128.146 56.42 128.434 56.456 128.722 56.528C129.262 56.6 129.802 56.816 130.306 57.068C130.342 57.032 130.378 56.996 130.414 56.996C129.874 56.708 129.298 56.492 128.686 56.384C128.074 56.276 127.534 56.312 126.994 56.492ZM125.662 58.544L125.626 58.508C124.654 60.38 124.366 62.972 124.834 65.024C124.978 65.708 125.41 66.752 126.202 66.86C127.138 66.968 127.93 65.816 128.29 65.096C128.83 63.98 128.902 62.828 129.226 61.676L129.586 59.444C129.658 59.012 129.73 58.22 129.946 57.644C128.362 57.176 126.526 56.708 125.662 58.544ZM126.058 67.724V67.688C125.302 67.616 124.618 67.004 124.186 66.176C123.97 65.744 123.826 65.312 123.754 64.808C123.646 64.304 123.61 63.8 123.574 63.296C123.502 62.252 123.538 61.208 123.718 60.2C123.538 61.208 123.466 62.252 123.502 63.296C123.538 63.8 123.574 64.34 123.682 64.844C123.754 65.348 123.898 65.78 124.114 66.212C124.546 67.04 125.266 67.688 126.058 67.76C126.814 67.868 127.642 67.4 128.254 66.68C127.642 67.4 126.814 67.832 126.058 67.724ZM123.79 59.084V59.156C123.502 60.164 123.358 61.208 123.322 62.252C123.286 63.296 123.358 64.376 123.61 65.348C123.862 66.284 124.402 67.184 125.194 67.652C125.986 68.12 126.922 68.012 127.678 67.436C126.886 67.976 125.95 68.048 125.194 67.58C124.438 67.112 123.898 66.212 123.646 65.276C123.394 64.304 123.322 63.224 123.358 62.18C123.394 61.136 123.502 60.092 123.79 59.084ZM123.97 66.572H124.006C124.474 67.436 125.302 68.084 126.202 68.12C127.102 68.156 128.002 67.544 128.614 66.752C128.002 67.508 127.102 68.084 126.202 68.048C125.302 68.012 124.51 67.364 124.042 66.5C123.79 66.068 123.61 65.6 123.502 65.132C123.394 64.628 123.322 64.124 123.286 63.584C123.214 62.54 123.25 61.46 123.394 60.416C123.214 61.46 123.142 62.54 123.214 63.584C123.25 64.124 123.322 64.664 123.43 65.168C123.538 65.672 123.718 66.14 123.97 66.572ZM130.018 67.724H129.982C130.342 67.22 130.63 66.644 130.846 66.068C130.846 65.996 130.846 65.924 130.846 65.852C130.522 66.824 130.018 67.76 129.262 68.516C128.47 69.308 127.318 69.92 126.058 69.848C126.814 69.92 127.642 69.704 128.326 69.308C129.01 68.912 129.586 68.372 130.018 67.724ZM133.33 55.016H133.258C133.114 54.692 132.898 54.368 132.61 54.116C132.862 54.404 133.042 54.728 133.186 55.052C133.33 55.376 133.438 55.736 133.51 56.096C133.546 56.276 133.582 56.456 133.582 56.636C133.618 56.708 133.654 56.816 133.69 56.924C133.69 56.636 133.69 56.348 133.654 56.06C133.582 55.7 133.474 55.34 133.33 55.016ZM133.006 65.816H132.97C132.718 63.908 132.646 61.964 132.682 60.02C132.574 61.964 132.646 63.908 133.006 65.816ZM132.502 59.516C132.358 61.46 132.394 63.44 132.718 65.348C132.502 63.404 132.466 61.46 132.502 59.516ZM132.394 60.128H132.43C132.322 62.072 132.394 64.052 132.754 65.96C132.466 64.016 132.394 62.072 132.394 60.128ZM130.954 65.528C130.954 65.492 130.954 65.456 130.954 65.42C130.954 65.348 130.954 65.276 130.954 65.204C130.954 65.24 130.954 65.276 130.954 65.312C130.954 65.384 130.954 65.456 130.954 65.528ZM131.926 68.156H131.89C132.466 69.056 133.366 69.704 134.086 69.74C133.618 69.704 133.078 69.38 132.646 68.912C132.178 68.444 131.818 67.832 131.53 67.184C131.35 66.788 131.206 66.392 131.098 65.996C131.098 66.032 131.098 66.068 131.098 66.104C131.242 66.752 131.494 67.436 131.926 68.156ZM145.217 51.812L145.325 51.848C144.749 52.208 144.137 52.496 143.489 52.712C142.553 53 141.545 53.144 140.537 53.216C140.537 53.288 140.537 53.36 140.537 53.432C140.573 57.464 138.773 61.64 139.709 65.672C139.997 66.86 141.041 67.292 142.121 66.788C143.453 66.14 144.137 64.448 144.713 63.152C144.965 62.54 145.325 60.956 146.081 61.316C146.369 61.46 146.477 61.928 146.513 62.288C146.693 63.692 146.369 65.348 145.721 66.824C145.397 67.544 145.001 68.264 144.389 68.912C143.777 69.56 142.913 70.136 141.869 70.316C141.005 70.46 139.997 70.496 138.989 70.028C136.469 68.876 136.037 65.672 136.001 63.224C136.001 61.532 136.181 59.912 136.361 58.328C136.541 56.672 136.649 55.016 136.541 53.36C136.073 53.324 135.605 53.288 135.137 53.252C134.309 53.18 133.445 53.072 132.581 53.108C132.365 53.108 132.077 53.072 131.969 52.82C131.861 52.496 132.005 52.028 132.077 51.776C132.329 50.984 132.833 50.192 133.409 49.688C134.201 49.004 134.885 49.148 135.605 49.292C135.677 49.292 135.749 49.292 135.821 49.292C135.749 49.112 135.713 48.932 135.641 48.752C135.497 48.392 135.317 47.888 135.461 47.528C135.605 47.096 136.109 47.024 136.361 46.988C137.189 46.88 138.269 47.276 139.097 48.248C139.493 48.716 139.781 49.256 139.997 49.832C141.941 49.868 143.885 49.472 145.829 49.112C146.117 49.04 146.765 48.752 146.981 49.544C147.053 49.832 146.945 50.084 146.837 50.264C146.477 50.984 145.829 51.452 145.217 51.812ZM135.461 49.94L135.353 49.868C135.569 49.868 135.785 49.868 136.001 49.868L135.893 49.832L135.425 49.796C135.101 49.796 134.777 49.796 134.453 49.868C134.129 49.94 133.805 50.012 133.481 50.156C133.157 50.3 132.869 50.48 132.617 50.732C132.869 50.516 133.193 50.372 133.517 50.228C133.841 50.12 134.165 50.048 134.489 50.012C134.813 49.94 135.137 49.94 135.461 49.94ZM137.477 47.276H137.549C137.945 47.636 138.305 48.176 138.593 48.788C138.737 49.076 138.845 49.364 138.953 49.688C139.025 49.688 139.061 49.688 139.061 49.688C138.917 49.328 138.773 49.004 138.593 48.68C138.269 48.068 137.873 47.564 137.477 47.276ZM138.233 63.98H138.197C138.089 62.072 138.305 60.128 138.521 58.184C138.269 60.128 138.053 62.072 138.161 63.98C138.233 64.916 138.377 65.852 138.737 66.644C139.097 67.436 139.673 68.012 140.501 68.12C139.709 68.012 139.133 67.436 138.773 66.644C138.449 65.852 138.305 64.916 138.233 63.98ZM142.409 69.632L142.337 69.668C142.085 69.74 141.797 69.812 141.545 69.848C141.293 69.884 141.041 69.956 140.789 69.956C140.249 69.956 139.673 69.884 139.133 69.668C138.629 69.452 138.161 69.128 137.801 68.732C138.233 69.236 138.881 69.668 139.601 69.848C140.357 70.028 141.041 69.992 141.761 69.848C142.553 69.704 143.237 69.272 143.777 68.768C144.317 68.264 144.749 67.652 145.073 67.004C145.973 65.132 146.117 63.404 146.117 62C146.081 62.972 145.973 64.052 145.649 65.204C145.505 65.78 145.289 66.392 145.001 67.004C144.713 67.616 144.317 68.228 143.741 68.768C143.381 69.128 142.913 69.416 142.409 69.632ZM140.141 68.264V68.228C140.537 68.336 141.005 68.3 141.437 68.264C141.005 68.3 140.537 68.336 140.141 68.228C139.745 68.12 139.421 67.904 139.133 67.616C138.557 67.004 138.305 66.068 138.161 65.168C137.873 63.296 138.017 61.316 138.197 59.372C137.981 61.316 137.801 63.296 138.089 65.168C138.233 66.104 138.521 67.04 139.097 67.652C139.385 67.94 139.745 68.156 140.141 68.264ZM141.221 68.012H141.257C140.429 68.084 139.745 67.868 139.313 67.292C138.845 66.716 138.593 65.852 138.485 64.952C138.269 63.116 138.413 61.172 138.593 59.228C138.341 61.172 138.161 63.152 138.377 64.988C138.485 65.888 138.737 66.788 139.205 67.364C139.673 67.94 140.393 68.12 141.221 68.012ZM139.277 50.84V50.876C139.313 50.876 139.349 50.876 139.385 50.876V50.84C139.349 50.84 139.313 50.84 139.277 50.84ZM139.313 51.02C139.313 51.056 139.313 51.092 139.313 51.128C139.349 51.128 139.385 51.128 139.421 51.128C139.421 51.092 139.421 51.056 139.421 51.02C139.385 51.02 139.349 51.02 139.313 51.02ZM139.349 51.164C139.385 51.164 139.421 51.164 139.457 51.164C139.421 51.164 139.385 51.164 139.349 51.164ZM139.781 55.592H139.853C139.889 55.124 139.889 54.728 139.889 54.332C139.889 53.972 139.889 53.612 139.853 53.252C139.817 53.252 139.781 53.252 139.745 53.252C139.781 53.612 139.817 53.972 139.817 54.332C139.817 54.728 139.817 55.124 139.781 55.592ZM140.285 50.768V50.732C140.285 50.768 140.285 50.804 140.285 50.84C141.185 50.804 142.085 50.696 142.985 50.516C142.085 50.66 141.185 50.732 140.285 50.768ZM140.321 50.912V50.84C140.321 50.876 140.321 50.912 140.321 50.948C141.077 50.912 141.833 50.84 142.589 50.696C141.833 50.804 141.077 50.876 140.321 50.912ZM140.357 50.984L140.393 50.876C141.329 50.84 142.265 50.732 143.165 50.552C142.229 50.696 141.293 50.804 140.357 50.876C140.357 50.912 140.357 50.948 140.357 50.984ZM144.245 51.776V51.74C143.489 52.1 142.733 52.316 142.049 52.424C142.913 52.352 143.993 52.1 145.073 51.416C145.829 50.948 146.441 50.372 146.873 49.796C146.225 50.516 145.361 51.236 144.245 51.776ZM151.05 56.708V56.744C151.986 57.176 152.094 57.932 152.13 58.688C152.202 59.696 152.166 60.596 152.13 61.244C152.094 61.568 152.058 61.82 152.022 62C151.986 62.18 151.986 62.288 151.986 62.288C151.878 63.44 151.698 64.592 151.626 65.528C151.554 66.5 151.59 67.292 151.77 67.904C151.806 68.084 152.094 68.336 151.446 68.876C151.194 69.056 150.942 69.092 150.726 69.092C149.934 69.056 149.358 68.408 149.034 67.796C148.674 67.184 148.494 66.536 148.422 65.924C148.278 64.736 148.458 63.692 148.458 62.72C148.458 61.568 148.458 60.38 148.242 59.228C148.134 58.58 147.954 57.932 147.594 57.356C147.522 57.212 147.414 57.032 147.594 56.852C147.81 56.636 148.314 56.528 148.566 56.492C149.394 56.348 150.366 56.384 151.05 56.708ZM149.25 67.544L149.286 67.58C149.718 68.372 150.402 68.876 151.014 69.02C150.618 68.876 150.186 68.624 149.826 68.228C149.466 67.832 149.178 67.292 148.998 66.716C148.782 65.96 148.746 65.24 148.746 64.664C148.674 65.384 148.674 66.428 149.25 67.544ZM150.762 63.188C150.798 62.396 150.798 61.604 150.762 60.812C150.762 61.604 150.726 62.396 150.69 63.188C150.654 63.98 150.582 64.772 150.546 65.528C150.618 64.772 150.726 63.98 150.762 63.188ZM150.87 63.62C150.798 64.412 150.726 65.168 150.726 65.888C150.762 65.168 150.87 64.412 150.942 63.62C150.978 62.828 150.978 62.036 150.942 61.244C150.942 62.036 150.906 62.828 150.87 63.62ZM150.654 63.692C150.726 62.9 150.726 62.108 150.69 61.316C150.69 62.108 150.654 62.9 150.582 63.692C150.51 64.484 150.438 65.24 150.438 65.996C150.474 65.24 150.582 64.484 150.654 63.692ZM151.446 58.76H151.41C151.482 59.048 151.554 59.372 151.59 59.696V59.228C151.554 59.084 151.554 58.94 151.518 58.796C151.446 58.472 151.338 58.148 151.194 57.86C151.05 57.572 150.87 57.32 150.618 57.104C150.366 56.888 150.078 56.708 149.718 56.636C150.042 56.744 150.294 56.924 150.546 57.14C150.762 57.356 150.942 57.608 151.086 57.896C151.23 58.184 151.338 58.472 151.446 58.76ZM151.986 51.812L151.914 51.776C152.382 52.352 152.526 53.144 152.274 53.828C152.058 54.368 151.59 55.052 150.942 55.052C150.69 55.052 150.51 54.872 150.474 54.476C150.474 54.188 150.51 53.972 150.51 53.828C150.51 53.576 150.438 53.432 150.33 53.324V53.468C150.33 53.684 150.33 53.9 150.294 54.08C150.258 54.476 150.114 54.836 149.898 55.088C149.25 55.772 148.494 55.412 148.062 54.8C147.738 54.368 147.558 53.828 147.558 53.252C147.558 52.676 147.774 52.208 147.99 51.884C148.458 51.236 149.214 50.84 150.006 50.84C150.33 50.84 150.582 50.912 150.798 50.984C151.266 51.128 151.662 51.38 151.986 51.812ZM149.862 54.584V54.512C150.042 54.368 150.186 54.152 150.222 53.864C150.15 54.152 150.006 54.332 149.826 54.476C149.646 54.62 149.43 54.692 149.214 54.656C148.998 54.656 148.782 54.548 148.566 54.404C148.386 54.26 148.206 54.044 148.098 53.756C148.134 53.9 148.17 54.044 148.242 54.188C148.314 54.296 148.386 54.404 148.494 54.512C148.71 54.692 148.926 54.8 149.178 54.8C149.394 54.8 149.646 54.728 149.862 54.584ZM150.51 54.008L150.474 54.08C150.582 53.792 150.51 53.504 150.366 53.36C150.33 53.324 150.294 53.288 150.258 53.252C150.33 53.288 150.402 53.36 150.438 53.432C150.546 53.576 150.582 53.792 150.51 54.008ZM150.186 52.1C150.546 52.172 150.87 52.352 151.122 52.712C150.906 52.352 150.582 52.136 150.186 52.064C150.006 52.028 149.754 52.028 149.538 52.136C149.322 52.244 149.178 52.424 149.07 52.604C149.178 52.424 149.358 52.28 149.574 52.172C149.79 52.064 150.006 52.064 150.186 52.1ZM148.89 52.82H148.962C149.106 52.352 149.502 52.028 150.006 51.992C150.438 51.992 150.762 52.136 151.086 52.424C150.798 52.1 150.438 51.92 149.97 51.92C149.43 51.956 148.998 52.352 148.89 52.82ZM150.222 51.848L150.186 51.812C150.618 51.884 151.014 52.064 151.302 52.496C151.05 52.064 150.654 51.848 150.186 51.776C149.97 51.74 149.646 51.776 149.394 51.92C149.142 52.064 148.962 52.28 148.854 52.532C148.998 52.28 149.178 52.1 149.43 51.992C149.682 51.848 150.006 51.812 150.222 51.848ZM167.133 66.896L166.917 66.932C167.097 67.184 167.097 67.436 167.097 67.616C167.061 68.336 166.593 68.876 166.089 69.272C165.585 69.632 164.937 69.884 164.253 69.92C163.605 69.956 162.921 69.812 162.345 69.56C161.769 69.308 161.265 68.948 160.797 68.588C159.753 67.688 159.033 66.644 158.349 65.672C158.061 65.276 157.773 64.844 157.449 64.448C157.557 65.744 157.809 66.968 158.241 68.084C158.421 68.48 159.033 69.308 158.313 69.74C158.061 69.884 157.737 69.776 157.485 69.668C156.837 69.344 156.297 68.804 155.901 68.192C155.325 67.364 154.965 66.464 154.641 65.528C154.461 64.988 154.389 64.448 154.317 63.908C154.029 61.82 154.209 59.768 154.389 57.788C154.605 55.484 154.929 53.216 154.929 51.02C154.965 49.796 154.857 48.536 154.497 47.492C154.389 47.24 154.281 46.916 154.461 46.664C154.677 46.376 155.181 46.304 155.433 46.268C156.261 46.16 157.233 46.412 157.989 47.204C158.457 47.744 158.745 48.392 158.853 49.04C158.961 49.688 158.961 50.408 158.889 51.092C158.745 52.928 158.493 54.476 158.313 55.592C158.133 56.672 158.025 57.356 158.025 57.392C158.025 57.428 158.025 57.464 158.025 57.5C158.817 56.564 159.681 55.88 160.437 55.448C160.977 55.124 161.517 54.908 161.913 54.8C163.821 54.224 166.017 55.016 166.665 57.032C166.953 57.932 166.773 58.868 166.413 59.552C165.693 60.992 164.181 61.928 162.849 62.72C162.453 62.936 162.057 63.152 161.661 63.332C161.697 63.404 161.733 63.512 161.769 63.62C162.201 64.52 162.705 65.636 163.497 66.248C164.253 66.86 165.261 66.896 166.161 66.608C166.341 66.536 166.665 66.212 167.133 66.896ZM156.153 59.588L156.081 59.552C156.045 59.84 156.045 60.128 156.045 60.38C156.081 60.308 156.117 60.236 156.153 60.164C156.153 59.984 156.153 59.804 156.189 59.624C156.297 58.22 156.477 56.78 156.621 55.34C156.441 56.78 156.261 58.184 156.153 59.588ZM156.225 59.768H156.153C156.297 58.004 156.513 56.204 156.693 54.404C156.477 56.276 156.225 58.148 156.117 59.984C156.153 59.912 156.189 59.84 156.225 59.768ZM156.765 55.16L156.729 55.232C156.549 56.672 156.369 58.112 156.261 59.552C156.297 59.48 156.333 59.408 156.369 59.336C156.477 57.968 156.621 56.564 156.765 55.16ZM156.189 63.692L156.153 63.584C156.153 63.332 156.153 63.08 156.153 62.828C156.153 63.116 156.153 63.404 156.189 63.692ZM155.937 62.432V62.324C155.937 62.504 155.937 62.684 155.937 62.864C155.937 62.72 155.937 62.576 155.937 62.432ZM155.865 62.108H155.829C155.829 62.072 155.793 62.036 155.793 62C155.793 62.54 155.793 63.116 155.865 63.656C155.829 63.152 155.865 62.612 155.865 62.108ZM157.341 69.488L157.269 69.452C156.081 68.624 155.001 67.076 154.461 65.096C154.245 64.448 154.173 63.8 154.065 63.188C153.993 62.576 153.957 62 153.957 61.46C153.921 62.864 154.029 64.7 154.893 66.572C155.073 66.896 155.253 67.22 155.433 67.508C155.613 67.796 155.865 68.048 156.045 68.3C156.261 68.552 156.441 68.804 156.693 68.984C156.909 69.164 157.125 69.344 157.341 69.488ZM156.873 47.492C157.089 47.96 157.305 48.5 157.413 49.04C157.521 49.58 157.593 50.156 157.593 50.696C157.593 51.272 157.593 51.848 157.557 52.424C157.593 52.136 157.629 51.848 157.665 51.56V50.696C157.665 50.12 157.593 49.508 157.485 48.968C157.377 48.428 157.161 47.888 156.945 47.42C156.693 46.952 156.333 46.556 155.973 46.34C156.297 46.592 156.657 47.024 156.873 47.492ZM157.233 58.688C157.413 58.364 157.629 58.04 157.881 57.716C157.701 57.932 157.521 58.148 157.341 58.364C157.305 58.4 157.269 58.436 157.233 58.472C157.233 58.544 157.233 58.616 157.233 58.688ZM163.965 67.508C162.885 67.364 161.913 66.608 161.085 65.672C161.841 66.68 162.885 67.472 163.965 67.508ZM164.577 56.672L164.613 56.708C164.829 57.032 164.973 57.428 164.973 57.824C164.973 58.22 164.865 58.616 164.685 58.94C164.325 59.624 163.785 60.092 163.281 60.488C163.785 60.092 164.361 59.624 164.721 58.94C164.901 58.616 165.009 58.22 165.009 57.788C165.009 57.356 164.865 56.924 164.613 56.6C164.361 56.276 164.037 56.024 163.677 55.844C163.281 55.664 162.849 55.628 162.489 55.664C161.733 55.772 161.121 56.132 160.581 56.528C161.121 56.168 161.769 55.844 162.525 55.772C162.885 55.736 163.281 55.772 163.641 55.952C164.001 56.096 164.325 56.348 164.577 56.672ZM162.345 55.52V55.556C161.517 55.7 160.905 56.096 160.329 56.492C160.905 56.096 161.553 55.736 162.381 55.592C162.777 55.52 163.209 55.52 163.641 55.664C164.073 55.808 164.433 56.06 164.721 56.384C165.009 56.708 165.225 57.14 165.261 57.608C165.333 58.076 165.225 58.544 165.045 58.94C164.685 59.696 164.109 60.2 163.605 60.632C164.145 60.236 164.721 59.732 165.081 58.94C165.261 58.544 165.369 58.076 165.297 57.608C165.261 57.14 165.045 56.708 164.757 56.348C164.469 55.988 164.073 55.736 163.641 55.592C163.173 55.448 162.741 55.448 162.345 55.52ZM161.625 55.952V55.988C160.941 56.276 160.401 56.672 159.861 57.104C160.401 56.672 160.941 56.312 161.625 56.024C162.273 55.772 163.173 55.664 163.929 56.096C164.289 56.276 164.577 56.564 164.793 56.924C165.009 57.284 165.117 57.716 165.081 58.148C165.009 59.012 164.505 59.66 164.001 60.128C164.505 59.66 165.045 59.012 165.117 58.112C165.153 57.68 165.045 57.212 164.829 56.852C164.613 56.492 164.289 56.204 163.929 55.988C163.569 55.772 163.101 55.664 162.705 55.7C162.309 55.7 161.949 55.808 161.625 55.952ZM159.861 60.56L159.897 60.488C159.717 60.848 159.573 61.208 159.465 61.604C159.753 61.316 160.041 61.028 160.329 60.776C160.941 60.2 161.553 59.624 162.165 59.048C162.417 58.796 162.885 58.436 162.957 58.076C163.029 57.716 162.417 58.04 162.309 58.112C161.985 58.256 161.661 58.436 161.373 58.688C160.761 59.192 160.221 59.84 159.861 60.56ZM159.321 62.252H159.393C160.113 61.604 160.869 60.884 161.661 60.092C162.021 59.732 162.381 59.372 162.741 59.012C163.029 58.688 163.245 58.4 163.317 58.184C163.173 58.436 162.849 58.796 162.345 59.264C161.841 59.732 161.301 60.236 160.725 60.812C160.221 61.28 159.753 61.712 159.321 62.144C159.321 62.18 159.321 62.216 159.321 62.252ZM160.473 63.548L160.545 63.656C160.617 63.728 160.689 63.8 160.761 63.872C160.905 64.052 161.049 64.232 161.193 64.412L161.013 64.088C160.941 63.98 160.869 63.872 160.797 63.764C160.725 63.692 160.653 63.62 160.581 63.548C160.545 63.548 160.509 63.548 160.473 63.548ZM163.857 67.832H163.929C162.777 67.58 161.805 66.716 160.977 65.708C161.697 66.752 162.705 67.652 163.857 67.832ZM161.193 66.068L161.157 66.032C161.949 67.076 163.065 67.904 164.289 67.94C163.101 67.832 162.057 67.04 161.193 66.068ZM165.729 69.02L165.693 68.984C166.377 68.516 166.737 67.868 166.917 67.292C166.665 68.012 166.089 68.876 164.973 69.308C164.253 69.596 163.425 69.56 162.777 69.344C163.533 69.668 164.793 69.704 165.729 69.02ZM182.19 68.408L182.334 68.48C182.514 68.804 182.478 69.2 182.298 69.488C182.154 69.704 181.938 69.848 181.65 69.884C181.218 69.92 180.786 69.74 180.426 69.452C180.066 69.164 179.778 68.804 179.526 68.444C179.094 67.832 178.842 67.148 178.626 66.5C178.41 67.004 178.158 67.508 177.798 67.976C176.466 69.812 174.054 70.712 171.93 69.668C169.842 68.552 169.122 66.428 168.906 64.736C168.618 62.828 168.69 60.776 169.194 58.904C169.446 57.932 169.806 56.924 170.418 55.952C171.462 54.332 173.334 53.18 175.278 53.18C175.998 53.18 176.682 53.288 177.33 53.504C177.582 53.576 177.834 53.684 178.086 53.792C178.122 53.684 178.194 53.612 178.302 53.54C178.59 53.396 179.058 53.504 179.31 53.576C180.138 53.792 180.966 54.296 181.47 54.908C182.19 55.736 182.046 56.528 181.902 57.356C181.722 58.472 181.578 59.48 181.506 60.2C181.434 60.92 181.398 61.352 181.398 61.352C181.29 62.648 181.326 63.944 181.47 65.204C181.614 66.464 181.83 67.724 182.19 68.408ZM174.666 56.492H174.702C174.198 56.672 173.802 56.96 173.442 57.392C173.514 57.248 173.622 57.176 173.73 57.068C173.766 57.032 173.802 56.996 173.838 56.96L174.018 56.888C174.126 56.816 174.234 56.744 174.342 56.708C174.45 56.672 174.558 56.6 174.702 56.6C174.846 56.564 174.99 56.528 175.134 56.492C175.278 56.456 175.386 56.42 175.53 56.42C175.818 56.42 176.106 56.456 176.394 56.528C176.934 56.6 177.474 56.816 177.978 57.068C178.014 57.032 178.05 56.996 178.086 56.996C177.546 56.708 176.97 56.492 176.358 56.384C175.746 56.276 175.206 56.312 174.666 56.492ZM173.334 58.544L173.298 58.508C172.326 60.38 172.038 62.972 172.506 65.024C172.65 65.708 173.082 66.752 173.874 66.86C174.81 66.968 175.602 65.816 175.962 65.096C176.502 63.98 176.574 62.828 176.898 61.676L177.258 59.444C177.33 59.012 177.402 58.22 177.618 57.644C176.034 57.176 174.198 56.708 173.334 58.544ZM173.73 67.724V67.688C172.974 67.616 172.29 67.004 171.858 66.176C171.642 65.744 171.498 65.312 171.426 64.808C171.318 64.304 171.282 63.8 171.246 63.296C171.174 62.252 171.21 61.208 171.39 60.2C171.21 61.208 171.138 62.252 171.174 63.296C171.21 63.8 171.246 64.34 171.354 64.844C171.426 65.348 171.57 65.78 171.786 66.212C172.218 67.04 172.938 67.688 173.73 67.76C174.486 67.868 175.314 67.4 175.926 66.68C175.314 67.4 174.486 67.832 173.73 67.724ZM171.462 59.084V59.156C171.174 60.164 171.03 61.208 170.994 62.252C170.958 63.296 171.03 64.376 171.282 65.348C171.534 66.284 172.074 67.184 172.866 67.652C173.658 68.12 174.594 68.012 175.35 67.436C174.558 67.976 173.622 68.048 172.866 67.58C172.11 67.112 171.57 66.212 171.318 65.276C171.066 64.304 170.994 63.224 171.03 62.18C171.066 61.136 171.174 60.092 171.462 59.084ZM171.642 66.572H171.678C172.146 67.436 172.974 68.084 173.874 68.12C174.774 68.156 175.674 67.544 176.286 66.752C175.674 67.508 174.774 68.084 173.874 68.048C172.974 68.012 172.182 67.364 171.714 66.5C171.462 66.068 171.282 65.6 171.174 65.132C171.066 64.628 170.994 64.124 170.958 63.584C170.886 62.54 170.922 61.46 171.066 60.416C170.886 61.46 170.814 62.54 170.886 63.584C170.922 64.124 170.994 64.664 171.102 65.168C171.21 65.672 171.39 66.14 171.642 66.572ZM177.69 67.724H177.654C178.014 67.22 178.302 66.644 178.518 66.068C178.518 65.996 178.518 65.924 178.518 65.852C178.194 66.824 177.69 67.76 176.934 68.516C176.142 69.308 174.99 69.92 173.73 69.848C174.486 69.92 175.314 69.704 175.998 69.308C176.682 68.912 177.258 68.372 177.69 67.724ZM181.002 55.016H180.93C180.786 54.692 180.57 54.368 180.282 54.116C180.534 54.404 180.714 54.728 180.858 55.052C181.002 55.376 181.11 55.736 181.182 56.096C181.218 56.276 181.254 56.456 181.254 56.636C181.29 56.708 181.326 56.816 181.362 56.924C181.362 56.636 181.362 56.348 181.326 56.06C181.254 55.7 181.146 55.34 181.002 55.016ZM180.678 65.816H180.642C180.39 63.908 180.318 61.964 180.354 60.02C180.246 61.964 180.318 63.908 180.678 65.816ZM180.174 59.516C180.03 61.46 180.066 63.44 180.39 65.348C180.174 63.404 180.138 61.46 180.174 59.516ZM180.066 60.128H180.102C179.994 62.072 180.066 64.052 180.426 65.96C180.138 64.016 180.066 62.072 180.066 60.128ZM178.626 65.528C178.626 65.492 178.626 65.456 178.626 65.42C178.626 65.348 178.626 65.276 178.626 65.204C178.626 65.24 178.626 65.276 178.626 65.312C178.626 65.384 178.626 65.456 178.626 65.528ZM179.598 68.156H179.562C180.138 69.056 181.038 69.704 181.758 69.74C181.29 69.704 180.75 69.38 180.318 68.912C179.85 68.444 179.49 67.832 179.202 67.184C179.022 66.788 178.878 66.392 178.77 65.996C178.77 66.032 178.77 66.068 178.77 66.104C178.914 66.752 179.166 67.436 179.598 68.156ZM192.551 61.856L192.587 61.712C192.839 63.512 192.263 65.348 191.435 66.968C191.075 67.688 190.679 68.372 190.103 68.912C188.627 70.28 186.503 69.92 185.315 68.372C183.875 66.464 184.127 63.728 184.307 61.496C184.559 58.328 185.207 55.34 185.099 52.532C185.027 50.984 184.739 49.364 184.019 48.176C183.839 47.888 183.623 47.528 183.695 47.204C183.803 46.808 184.235 46.592 184.487 46.484C185.243 46.16 186.395 46.268 187.367 47.204C188.015 47.816 188.447 48.644 188.663 49.544C188.879 50.444 188.915 51.416 188.915 52.352C188.879 54.908 188.483 56.996 188.231 58.436C187.979 59.876 187.727 61.352 187.583 62.828C187.511 63.764 187.115 65.6 187.871 66.356C188.267 66.752 188.735 66.068 188.951 65.78C189.923 64.484 190.571 63.008 191.291 61.568C191.435 61.316 191.615 61.028 191.903 61.028C191.975 61.028 192.047 61.028 192.119 61.064C192.371 61.208 192.515 61.568 192.551 61.856ZM186.467 65.312L186.395 65.24C186.323 64.376 186.323 63.44 186.359 62.504C186.467 60.632 186.755 58.76 186.971 56.852C186.719 58.76 186.431 60.632 186.323 62.504C186.287 63.44 186.287 64.412 186.395 65.312C186.431 65.744 186.539 66.176 186.683 66.536C186.827 66.86 187.043 67.148 187.331 67.364C187.079 67.148 186.899 66.86 186.755 66.536C186.611 66.176 186.503 65.744 186.467 65.312ZM186.251 63.62H186.215C186.215 61.748 186.467 59.876 186.683 57.968C186.395 59.84 186.143 61.712 186.143 63.584C186.143 64.52 186.179 65.456 186.467 66.248C186.611 66.644 186.791 66.968 187.043 67.22C187.295 67.472 187.655 67.652 188.015 67.652C187.655 67.652 187.295 67.472 187.043 67.22C186.791 66.968 186.611 66.644 186.503 66.284C186.251 65.492 186.251 64.556 186.251 63.62ZM187.907 67.364C187.583 67.328 187.331 67.148 187.151 66.932C187.043 66.824 186.971 66.68 186.899 66.536C186.863 66.464 186.827 66.392 186.791 66.32C186.755 66.248 186.719 66.14 186.683 66.032C186.467 65.276 186.467 64.34 186.467 63.404C186.503 61.568 186.755 59.696 186.971 57.788C186.719 59.696 186.431 61.568 186.395 63.404C186.395 64.34 186.395 65.276 186.611 66.032C186.647 66.14 186.683 66.248 186.719 66.32C186.755 66.392 186.791 66.464 186.827 66.536C186.899 66.68 186.971 66.824 187.079 66.932C187.295 67.148 187.583 67.328 187.907 67.364ZM186.899 47.636L186.935 47.744C186.539 47.168 186.071 46.736 185.639 46.556C186.071 46.808 186.503 47.312 186.863 47.888C187.223 48.464 187.511 49.148 187.727 49.868C187.943 50.588 188.051 51.344 188.123 52.1C188.195 52.856 188.195 53.612 188.159 54.368C188.195 53.972 188.231 53.576 188.267 53.18C188.267 52.784 188.267 52.388 188.231 51.992C188.159 51.2 188.051 50.408 187.835 49.652C187.619 48.932 187.295 48.212 186.899 47.636ZM191.363 66.464L191.255 66.536C192.011 64.772 192.263 63.116 192.263 61.748C192.227 62.684 192.083 63.728 191.759 64.844C191.615 65.384 191.435 65.96 191.183 66.536C191.075 66.824 190.931 67.112 190.787 67.4C190.607 67.724 190.463 67.976 190.139 68.336C189.743 68.804 189.239 69.2 188.699 69.38C188.159 69.596 187.547 69.596 187.007 69.38C186.467 69.2 185.999 68.84 185.639 68.408C185.459 68.192 185.315 67.94 185.171 67.688C185.027 67.436 184.919 67.148 184.847 66.968C184.919 67.22 185.063 67.616 185.243 67.904C185.423 68.228 185.675 68.516 185.963 68.768C186.539 69.272 187.331 69.632 188.159 69.56C188.987 69.488 189.743 68.984 190.319 68.3C190.859 67.616 191.075 67.076 191.363 66.464ZM205.563 58.904H205.599C205.779 59.84 205.851 60.812 205.815 61.784C205.779 62.936 205.563 64.088 205.167 65.204C204.627 66.716 203.727 68.156 202.431 69.092C200.883 70.208 198.903 70.388 197.247 69.416C194.655 67.904 193.791 64.808 193.791 62C193.791 61.352 193.827 60.704 193.863 60.056C193.899 59.48 194.043 58.688 194.367 58.292C194.763 57.824 195.231 58.04 195.447 58.148C196.239 58.508 196.851 59.588 197.247 60.92C197.499 61.82 197.643 62.684 197.823 63.476C198.039 64.376 198.363 65.564 199.191 66.14C200.559 67.076 201.747 64.376 202.035 63.44C202.179 63.008 202.215 62.756 202.215 62.756C202.323 62.288 202.359 61.82 202.395 61.352C202.179 61.424 201.963 61.46 201.747 61.46C200.883 61.496 199.911 61.352 198.975 60.956C198.039 60.596 197.103 59.984 196.419 59.048C196.095 58.58 195.807 58.04 195.699 57.464C195.555 56.888 195.555 56.24 195.735 55.556C195.915 54.872 196.347 54.26 196.923 53.828C197.535 53.36 198.147 53.18 198.759 53.072C199.947 52.892 201.063 53.072 202.143 53.576C202.683 53.828 203.223 54.188 203.619 54.656C204.015 55.088 204.339 55.556 204.591 56.024C205.095 56.96 205.383 57.932 205.563 58.904ZM197.859 65.78H197.787C198.183 66.32 198.723 66.752 199.155 66.86C198.939 66.788 198.687 66.644 198.471 66.428C198.219 66.248 198.003 65.996 197.823 65.708C197.463 65.168 197.175 64.448 196.995 63.692C196.779 62.936 196.671 62.108 196.563 61.352C196.455 60.596 196.383 59.84 196.203 59.3C196.347 59.912 196.383 60.704 196.491 61.46C196.599 62.252 196.707 63.044 196.923 63.8C197.139 64.52 197.463 65.24 197.859 65.78ZM199.047 60.704L198.939 60.812C199.947 61.208 200.919 61.352 201.783 61.388C200.595 61.28 199.227 60.992 197.931 60.164C197.283 59.732 196.635 59.156 196.239 58.292C196.059 57.86 195.915 57.392 195.915 56.888C195.843 56.384 195.951 55.772 196.167 55.232C196.491 54.512 197.175 53.972 197.859 53.72C198.543 53.468 199.227 53.396 199.875 53.432C201.135 53.504 202.395 54.008 203.259 54.944C202.755 54.368 201.999 53.864 201.207 53.612C200.415 53.36 199.515 53.252 198.579 53.432C198.111 53.54 197.643 53.684 197.175 54.008C196.707 54.296 196.347 54.764 196.095 55.268C195.987 55.52 195.879 55.772 195.843 56.06L195.807 56.492L195.843 56.888C195.843 57.392 196.023 57.896 196.239 58.364C196.563 59.012 197.031 59.516 197.535 59.876C198.039 60.236 198.543 60.524 199.047 60.704ZM201.927 60.272L201.963 60.344C202.035 60.38 202.107 60.416 202.179 60.452C202.143 59.876 202.071 59.3 201.927 58.76C201.747 58.112 201.459 57.536 201.099 57.104C200.811 56.708 200.343 56.492 199.875 56.384C199.479 56.276 198.831 56.24 198.507 56.564C198.003 57.032 198.579 58.04 198.903 58.4C199.299 58.832 199.839 59.264 200.487 59.588C200.811 59.768 201.423 60.02 201.927 60.272ZM203.115 59.624L203.043 59.732C203.475 62 203.115 64.448 201.891 66.32C203.151 64.448 203.547 61.964 203.115 59.696C202.899 58.544 202.503 57.428 201.819 56.6C201.207 55.844 200.127 55.448 199.119 55.52C200.127 55.484 201.207 55.88 201.819 56.636C202.503 57.428 202.899 58.508 203.115 59.624ZM201.279 67.292L201.243 67.22C202.071 66.5 202.647 65.42 203.007 64.304C203.367 63.188 203.511 62 203.439 60.812C203.367 59.624 203.115 58.436 202.611 57.428C202.359 56.924 202.035 56.456 201.639 56.132C201.243 55.808 200.739 55.556 200.199 55.448C200.739 55.592 201.243 55.844 201.603 56.168C201.999 56.492 202.323 56.96 202.575 57.464C203.079 58.472 203.331 59.66 203.403 60.848C203.475 62.036 203.331 63.224 202.971 64.34C202.611 65.456 202.071 66.536 201.279 67.292ZM202.215 66.212H202.251C203.511 64.232 203.871 61.676 203.367 59.336C203.115 58.184 202.647 57.068 201.855 56.24C201.135 55.484 199.911 55.124 198.831 55.268C199.911 55.16 201.099 55.52 201.819 56.276C202.575 57.104 203.007 58.22 203.259 59.372C203.763 61.676 203.439 64.196 202.215 66.212ZM221.438 68.228L221.366 68.264C221.474 68.552 221.618 68.912 221.474 69.2C221.33 69.56 220.862 69.704 220.61 69.776C219.818 70.028 218.702 69.776 217.91 68.732C217.37 68.048 217.118 67.184 217.01 66.32C216.866 65.168 217.046 63.98 217.154 62.828C217.298 61.388 217.586 59.948 217.586 58.508C217.586 57.824 217.298 57.464 216.794 58.076C216.254 58.688 215.858 59.408 215.462 60.128C214.562 61.784 213.806 63.512 213.122 65.276C212.834 65.996 212.546 66.716 212.294 67.436C212.114 67.976 212.006 69.02 211.394 69.236C210.458 69.56 209.522 68.588 209.018 67.976C208.622 67.508 208.298 66.968 208.082 66.392C207.686 65.312 207.542 64.16 207.47 63.008C207.362 61.676 207.434 60.344 207.506 59.012C207.542 58.256 207.614 57.464 207.542 56.672C207.542 56.492 207.542 56.24 207.794 56.168C208.082 56.06 208.55 56.204 208.802 56.276C209.594 56.564 210.422 57.068 210.926 57.608C211.61 58.328 211.466 58.904 211.358 59.516C211.178 60.344 211.07 61.064 210.998 61.604C210.926 62.144 210.89 62.468 210.89 62.468C210.854 62.792 210.854 63.116 210.854 63.44C211.106 62.324 211.43 61.244 211.862 60.164C212.618 58.22 213.59 55.772 215.39 54.548C216.29 53.972 217.334 53.648 218.342 53.864C220.79 54.368 221.222 57.464 221.222 59.516C221.222 60.956 221.078 62.36 221.006 63.764C220.934 65.384 220.934 67.004 221.438 68.228ZM210.314 57.644L210.278 57.536C210.134 57.248 209.954 56.96 209.702 56.744C209.954 56.996 210.098 57.284 210.242 57.572C210.386 57.86 210.494 58.148 210.53 58.436C210.602 58.724 210.602 59.012 210.602 59.3C210.602 59.588 210.602 59.876 210.602 60.164L210.674 59.768L210.71 59.372C210.71 59.084 210.71 58.796 210.638 58.508C210.566 58.22 210.458 57.932 210.314 57.644ZM210.134 65.708C209.846 64.268 209.702 62.792 209.702 61.316C209.63 62.792 209.774 64.268 210.134 65.708ZM209.558 60.92C209.45 62.396 209.558 63.908 209.882 65.348C209.63 63.872 209.522 62.396 209.558 60.92ZM209.45 61.388H209.414C209.342 62.9 209.486 64.412 209.882 65.852C209.594 64.376 209.45 62.9 209.45 61.388ZM209.018 67.616V67.652C209.522 68.3 210.134 68.768 210.71 69.092C209.99 68.624 209.27 67.904 208.694 66.932C208.298 66.284 208.082 65.636 207.938 65.024C208.046 65.78 208.334 66.716 209.018 67.616ZM211.574 61.964V61.892C212.042 60.272 212.726 58.796 213.338 57.608C212.474 59.12 211.538 61.244 211.07 63.692C210.998 63.98 210.962 64.268 210.926 64.556C210.926 64.664 210.926 64.772 210.926 64.88C211.07 63.944 211.286 62.972 211.574 61.964ZM214.778 58.436L214.85 58.544C214.418 59.372 213.986 60.164 213.626 60.992C214.022 60.164 214.454 59.372 214.886 58.544C215.102 58.148 215.318 57.752 215.57 57.392C215.678 57.212 215.822 57.032 215.966 56.888C216.074 56.744 216.182 56.636 216.326 56.528C216.614 56.312 216.938 56.132 217.262 56.024C217.586 55.916 217.982 55.988 218.234 56.24C218.486 56.492 218.63 56.816 218.738 57.14C218.846 57.464 218.918 57.896 218.954 58.328C218.918 57.896 218.846 57.464 218.738 57.14C218.63 56.78 218.486 56.42 218.234 56.168C217.982 55.916 217.586 55.808 217.226 55.916C216.866 56.024 216.542 56.204 216.254 56.42C216.11 56.528 216.002 56.636 215.858 56.78C215.714 56.924 215.57 57.104 215.462 57.284C215.21 57.644 214.994 58.04 214.778 58.436ZM218.918 59.48V59.552C218.918 59.12 218.918 58.688 218.882 58.256C218.846 58.04 218.81 57.824 218.774 57.644C218.738 57.464 218.702 57.284 218.63 57.104C218.522 56.78 218.342 56.456 218.054 56.276C217.766 56.06 217.37 56.06 217.046 56.168C215.75 56.528 214.994 58.436 214.13 60.02C215.03 58.436 215.822 56.564 217.046 56.24C217.334 56.132 217.694 56.132 217.982 56.312C218.27 56.492 218.45 56.78 218.558 57.104C218.63 57.248 218.666 57.392 218.702 57.572C218.738 57.752 218.774 57.968 218.81 58.184C218.882 58.616 218.918 59.048 218.918 59.48ZM217.37 56.456H217.334C217.622 56.42 217.91 56.528 218.09 56.744C218.45 57.212 218.558 57.716 218.666 58.652C218.594 57.716 218.522 57.212 218.162 56.708C217.982 56.456 217.658 56.312 217.37 56.348C217.082 56.384 216.794 56.528 216.542 56.708C216.11 56.996 215.606 57.788 215.21 58.58C214.778 59.408 214.346 60.2 213.986 61.028C214.382 60.236 214.814 59.444 215.246 58.652C215.642 57.896 216.182 57.104 216.578 56.816C216.83 56.636 217.082 56.492 217.37 56.456ZM218.306 68.3V68.336C218.594 68.948 218.99 69.452 219.386 69.704C218.99 69.38 218.63 68.84 218.378 68.228C218.126 67.616 217.946 66.932 217.838 66.212C217.73 65.492 217.73 64.772 217.73 64.052C217.73 63.332 217.766 62.612 217.802 61.892L217.694 62.972L217.622 64.052C217.622 64.772 217.622 65.528 217.73 66.248C217.838 66.968 218.018 67.688 218.306 68.3ZM238.011 63.728L238.227 63.62C238.335 64.412 238.371 65.204 238.371 66.032C238.371 70.532 237.111 75.464 234.159 78.956C233.403 79.82 232.575 80.648 231.387 81.26C230.811 81.548 230.127 81.8 229.371 81.836C228.111 81.908 226.851 81.44 225.987 80.504C224.115 78.488 224.835 74.96 226.527 73.052C226.923 72.584 227.391 72.332 227.643 72.692C227.823 72.944 227.715 73.448 227.643 73.808C227.427 75.212 227.031 76.868 227.463 77.876C227.715 78.524 228.255 78.884 228.939 78.776C230.127 78.596 231.099 77.516 231.747 76.616C232.467 75.68 233.043 74.528 233.475 73.34C234.447 70.532 234.807 67.4 234.339 64.448C234.267 63.944 234.159 63.44 234.015 62.936C233.943 64.52 233.619 66.284 232.467 67.868C231.135 69.704 228.723 70.604 226.599 69.56C224.511 68.444 223.791 66.32 223.575 64.628C223.287 62.72 223.359 60.668 223.863 58.796C224.115 57.824 224.475 56.816 225.087 55.844C226.131 54.224 228.003 53.072 229.947 53.072C230.667 53.072 231.351 53.18 231.999 53.396C233.331 53.828 234.555 54.62 235.455 55.88C235.887 56.456 236.283 57.5 236.103 58.148C236.031 58.364 235.959 58.508 235.851 58.616C237.219 59.804 237.795 61.784 238.011 63.728ZM229.407 56.312H229.443C228.939 56.492 228.507 56.816 228.183 57.212C228.939 56.42 230.055 56.132 231.135 56.348C231.675 56.42 232.215 56.636 232.719 56.888C232.755 56.852 232.791 56.816 232.827 56.816C232.287 56.528 231.711 56.312 231.099 56.204C230.487 56.096 229.947 56.132 229.407 56.312ZM228.075 58.364L228.039 58.328C227.067 60.2 226.779 62.792 227.247 64.844C227.391 65.528 227.823 66.572 228.615 66.68C229.551 66.788 230.343 65.636 230.703 64.916C231.243 63.8 231.315 62.648 231.639 61.496L231.999 59.264C232.071 58.832 232.143 58.04 232.359 57.464C230.775 56.996 228.939 56.528 228.075 58.364ZM228.471 67.544V67.508C227.715 67.436 227.031 66.824 226.599 65.996C226.383 65.564 226.239 65.132 226.167 64.628C226.059 64.124 226.023 63.62 225.987 63.116C225.915 62.072 225.951 61.028 226.131 60.02C225.951 61.028 225.879 62.072 225.915 63.116C225.951 63.62 225.987 64.16 226.095 64.664C226.167 65.168 226.311 65.6 226.527 66.032C226.959 66.86 227.679 67.508 228.471 67.58C229.227 67.688 230.055 67.22 230.667 66.5C230.055 67.22 229.227 67.652 228.471 67.544ZM226.203 58.904V58.976C225.915 59.984 225.771 61.028 225.735 62.072C225.699 63.116 225.771 64.196 226.023 65.168C226.275 66.104 226.815 67.004 227.607 67.472C228.399 67.94 229.335 67.832 230.091 67.256C229.299 67.796 228.363 67.868 227.607 67.4C226.851 66.932 226.311 66.032 226.059 65.096C225.807 64.124 225.735 63.044 225.771 62C225.807 60.956 225.915 59.912 226.203 58.904ZM226.383 66.392H226.419C226.887 67.256 227.715 67.904 228.615 67.94C229.515 67.976 230.415 67.364 231.027 66.572C230.415 67.328 229.515 67.904 228.615 67.868C227.715 67.832 226.923 67.184 226.455 66.32C226.203 65.888 226.023 65.42 225.915 64.952C225.807 64.448 225.735 63.944 225.699 63.404C225.627 62.36 225.663 61.28 225.807 60.236C225.627 61.28 225.555 62.36 225.627 63.404C225.663 63.944 225.735 64.484 225.843 64.988C225.951 65.492 226.131 65.96 226.383 66.392ZM233.763 63.188V63.152C233.799 62.684 233.799 62.252 233.799 61.82C233.763 61.748 233.727 61.676 233.691 61.604C233.727 62.756 233.691 64.088 233.295 65.492C232.971 66.536 232.467 67.544 231.639 68.336C230.847 69.128 229.695 69.74 228.435 69.668C229.191 69.74 230.019 69.524 230.703 69.128C231.387 68.732 231.963 68.192 232.395 67.544C233.295 66.284 233.691 64.736 233.763 63.188ZM233.763 57.536H233.727C233.763 57.536 233.799 57.536 233.835 57.536C233.727 57.428 233.619 57.32 233.511 57.212C233.547 57.248 233.547 57.284 233.547 57.32C233.619 57.392 233.691 57.464 233.763 57.536ZM229.155 78.992L229.119 79.064C229.443 78.992 229.731 78.848 230.019 78.668C230.559 78.344 230.991 77.876 231.423 77.444C230.955 77.876 230.487 78.344 229.911 78.632C229.047 79.1 227.859 79.136 227.319 78.164C226.959 77.516 226.887 76.652 226.995 75.824C227.067 74.996 227.247 74.204 227.499 73.484C227.139 74.456 226.887 75.536 226.887 76.652C226.887 77.192 226.995 77.732 227.247 78.164C227.463 78.596 227.859 78.884 228.291 78.992C228.579 79.064 228.867 79.064 229.155 78.992ZM232.611 78.704H232.575C231.819 79.46 230.955 80.18 229.803 80.504C230.955 80.216 231.855 79.496 232.611 78.74C233.367 77.948 233.979 77.048 234.483 76.112C235.491 74.24 236.103 72.188 236.391 70.1C236.031 72.152 235.419 74.204 234.447 76.076C233.943 77.012 233.331 77.912 232.611 78.704ZM236.643 68.84L236.679 68.876C236.463 70.964 235.959 73.016 235.131 74.96C234.303 76.904 233.115 78.812 231.207 80.072C233.115 78.848 234.339 76.94 235.167 74.996C235.995 73.016 236.463 70.928 236.643 68.84ZM234.879 76.112V76.076C235.851 74.132 236.427 72.044 236.715 69.956C236.391 72.044 235.779 74.096 234.807 76.004C234.339 76.976 233.727 77.912 232.971 78.74C232.215 79.568 231.315 80.324 230.163 80.756C231.351 80.36 232.251 79.604 233.007 78.812C233.763 78.02 234.375 77.084 234.879 76.112ZM237.399 63.512L237.363 63.548C237.543 64.376 237.651 65.204 237.687 66.068C237.687 65.636 237.687 65.204 237.651 64.772C237.615 64.34 237.543 63.908 237.471 63.476C237.291 62.648 237.039 61.82 236.715 61.064C236.391 60.308 235.995 59.624 235.527 59.048C235.419 58.904 235.311 58.76 235.203 58.652C235.167 58.652 235.131 58.652 235.095 58.652C235.275 58.832 235.419 59.012 235.563 59.228C235.995 59.804 236.355 60.488 236.679 61.208C237.003 61.928 237.219 62.72 237.399 63.512ZM253.241 68.408L253.385 68.48C253.565 68.804 253.529 69.2 253.349 69.488C253.205 69.704 252.989 69.848 252.701 69.884C252.269 69.92 251.837 69.74 251.477 69.452C251.117 69.164 250.829 68.804 250.577 68.444C250.145 67.832 249.893 67.148 249.677 66.5C249.461 67.004 249.209 67.508 248.849 67.976C247.517 69.812 245.105 70.712 242.981 69.668C240.893 68.552 240.173 66.428 239.957 64.736C239.669 62.828 239.741 60.776 240.245 58.904C240.497 57.932 240.857 56.924 241.469 55.952C242.513 54.332 244.385 53.18 246.329 53.18C247.049 53.18 247.733 53.288 248.381 53.504C248.633 53.576 248.885 53.684 249.137 53.792C249.173 53.684 249.245 53.612 249.353 53.54C249.641 53.396 250.109 53.504 250.361 53.576C251.189 53.792 252.017 54.296 252.521 54.908C253.241 55.736 253.097 56.528 252.953 57.356C252.773 58.472 252.629 59.48 252.557 60.2C252.485 60.92 252.449 61.352 252.449 61.352C252.341 62.648 252.377 63.944 252.521 65.204C252.665 66.464 252.881 67.724 253.241 68.408ZM245.717 56.492H245.753C245.249 56.672 244.853 56.96 244.493 57.392C244.565 57.248 244.673 57.176 244.781 57.068C244.817 57.032 244.853 56.996 244.889 56.96L245.069 56.888C245.177 56.816 245.285 56.744 245.393 56.708C245.501 56.672 245.609 56.6 245.753 56.6C245.897 56.564 246.041 56.528 246.185 56.492C246.329 56.456 246.437 56.42 246.581 56.42C246.869 56.42 247.157 56.456 247.445 56.528C247.985 56.6 248.525 56.816 249.029 57.068C249.065 57.032 249.101 56.996 249.137 56.996C248.597 56.708 248.021 56.492 247.409 56.384C246.797 56.276 246.257 56.312 245.717 56.492ZM244.385 58.544L244.349 58.508C243.377 60.38 243.089 62.972 243.557 65.024C243.701 65.708 244.133 66.752 244.925 66.86C245.861 66.968 246.653 65.816 247.013 65.096C247.553 63.98 247.625 62.828 247.949 61.676L248.309 59.444C248.381 59.012 248.453 58.22 248.669 57.644C247.085 57.176 245.249 56.708 244.385 58.544ZM244.781 67.724V67.688C244.025 67.616 243.341 67.004 242.909 66.176C242.693 65.744 242.549 65.312 242.477 64.808C242.369 64.304 242.333 63.8 242.297 63.296C242.225 62.252 242.261 61.208 242.441 60.2C242.261 61.208 242.189 62.252 242.225 63.296C242.261 63.8 242.297 64.34 242.405 64.844C242.477 65.348 242.621 65.78 242.837 66.212C243.269 67.04 243.989 67.688 244.781 67.76C245.537 67.868 246.365 67.4 246.977 66.68C246.365 67.4 245.537 67.832 244.781 67.724ZM242.513 59.084V59.156C242.225 60.164 242.081 61.208 242.045 62.252C242.009 63.296 242.081 64.376 242.333 65.348C242.585 66.284 243.125 67.184 243.917 67.652C244.709 68.12 245.645 68.012 246.401 67.436C245.609 67.976 244.673 68.048 243.917 67.58C243.161 67.112 242.621 66.212 242.369 65.276C242.117 64.304 242.045 63.224 242.081 62.18C242.117 61.136 242.225 60.092 242.513 59.084ZM242.693 66.572H242.729C243.197 67.436 244.025 68.084 244.925 68.12C245.825 68.156 246.725 67.544 247.337 66.752C246.725 67.508 245.825 68.084 244.925 68.048C244.025 68.012 243.233 67.364 242.765 66.5C242.513 66.068 242.333 65.6 242.225 65.132C242.117 64.628 242.045 64.124 242.009 63.584C241.937 62.54 241.973 61.46 242.117 60.416C241.937 61.46 241.865 62.54 241.937 63.584C241.973 64.124 242.045 64.664 242.153 65.168C242.261 65.672 242.441 66.14 242.693 66.572ZM248.741 67.724H248.705C249.065 67.22 249.353 66.644 249.569 66.068C249.569 65.996 249.569 65.924 249.569 65.852C249.245 66.824 248.741 67.76 247.985 68.516C247.193 69.308 246.041 69.92 244.781 69.848C245.537 69.92 246.365 69.704 247.049 69.308C247.733 68.912 248.309 68.372 248.741 67.724ZM252.053 55.016H251.981C251.837 54.692 251.621 54.368 251.333 54.116C251.585 54.404 251.765 54.728 251.909 55.052C252.053 55.376 252.161 55.736 252.233 56.096C252.269 56.276 252.305 56.456 252.305 56.636C252.341 56.708 252.377 56.816 252.413 56.924C252.413 56.636 252.413 56.348 252.377 56.06C252.305 55.7 252.197 55.34 252.053 55.016ZM251.729 65.816H251.693C251.441 63.908 251.369 61.964 251.405 60.02C251.297 61.964 251.369 63.908 251.729 65.816ZM251.225 59.516C251.081 61.46 251.117 63.44 251.441 65.348C251.225 63.404 251.189 61.46 251.225 59.516ZM251.117 60.128H251.153C251.045 62.072 251.117 64.052 251.477 65.96C251.189 64.016 251.117 62.072 251.117 60.128ZM249.677 65.528C249.677 65.492 249.677 65.456 249.677 65.42C249.677 65.348 249.677 65.276 249.677 65.204C249.677 65.24 249.677 65.276 249.677 65.312C249.677 65.384 249.677 65.456 249.677 65.528ZM250.649 68.156H250.613C251.189 69.056 252.089 69.704 252.809 69.74C252.341 69.704 251.801 69.38 251.369 68.912C250.901 68.444 250.541 67.832 250.253 67.184C250.073 66.788 249.929 66.392 249.821 65.996C249.821 66.032 249.821 66.068 249.821 66.104C249.965 66.752 250.217 67.436 250.649 68.156ZM269.11 68.228L269.038 68.264C269.146 68.552 269.29 68.912 269.146 69.2C269.002 69.56 268.534 69.704 268.282 69.776C267.49 70.028 266.374 69.776 265.582 68.732C265.042 68.048 264.79 67.184 264.682 66.32C264.538 65.168 264.718 63.98 264.826 62.828C264.97 61.388 265.258 59.948 265.258 58.508C265.258 57.824 264.97 57.464 264.466 58.076C263.926 58.688 263.53 59.408 263.134 60.128C262.234 61.784 261.478 63.512 260.794 65.276C260.506 65.996 260.218 66.716 259.966 67.436C259.786 67.976 259.678 69.02 259.066 69.236C258.13 69.56 257.194 68.588 256.69 67.976C256.294 67.508 255.97 66.968 255.754 66.392C255.358 65.312 255.214 64.16 255.142 63.008C255.034 61.676 255.106 60.344 255.178 59.012C255.214 58.256 255.286 57.464 255.214 56.672C255.214 56.492 255.214 56.24 255.466 56.168C255.754 56.06 256.222 56.204 256.474 56.276C257.266 56.564 258.094 57.068 258.598 57.608C259.282 58.328 259.138 58.904 259.03 59.516C258.85 60.344 258.742 61.064 258.67 61.604C258.598 62.144 258.562 62.468 258.562 62.468C258.526 62.792 258.526 63.116 258.526 63.44C258.778 62.324 259.102 61.244 259.534 60.164C260.29 58.22 261.262 55.772 263.062 54.548C263.962 53.972 265.006 53.648 266.014 53.864C268.462 54.368 268.894 57.464 268.894 59.516C268.894 60.956 268.75 62.36 268.678 63.764C268.606 65.384 268.606 67.004 269.11 68.228ZM257.986 57.644L257.95 57.536C257.806 57.248 257.626 56.96 257.374 56.744C257.626 56.996 257.77 57.284 257.914 57.572C258.058 57.86 258.166 58.148 258.202 58.436C258.274 58.724 258.274 59.012 258.274 59.3C258.274 59.588 258.274 59.876 258.274 60.164L258.346 59.768L258.382 59.372C258.382 59.084 258.382 58.796 258.31 58.508C258.238 58.22 258.13 57.932 257.986 57.644ZM257.806 65.708C257.518 64.268 257.374 62.792 257.374 61.316C257.302 62.792 257.446 64.268 257.806 65.708ZM257.23 60.92C257.122 62.396 257.23 63.908 257.554 65.348C257.302 63.872 257.194 62.396 257.23 60.92ZM257.122 61.388H257.086C257.014 62.9 257.158 64.412 257.554 65.852C257.266 64.376 257.122 62.9 257.122 61.388ZM256.69 67.616V67.652C257.194 68.3 257.806 68.768 258.382 69.092C257.662 68.624 256.942 67.904 256.366 66.932C255.97 66.284 255.754 65.636 255.61 65.024C255.718 65.78 256.006 66.716 256.69 67.616ZM259.246 61.964V61.892C259.714 60.272 260.398 58.796 261.01 57.608C260.146 59.12 259.21 61.244 258.742 63.692C258.67 63.98 258.634 64.268 258.598 64.556C258.598 64.664 258.598 64.772 258.598 64.88C258.742 63.944 258.958 62.972 259.246 61.964ZM262.45 58.436L262.522 58.544C262.09 59.372 261.658 60.164 261.298 60.992C261.694 60.164 262.126 59.372 262.558 58.544C262.774 58.148 262.99 57.752 263.242 57.392C263.35 57.212 263.494 57.032 263.638 56.888C263.746 56.744 263.854 56.636 263.998 56.528C264.286 56.312 264.61 56.132 264.934 56.024C265.258 55.916 265.654 55.988 265.906 56.24C266.158 56.492 266.302 56.816 266.41 57.14C266.518 57.464 266.59 57.896 266.626 58.328C266.59 57.896 266.518 57.464 266.41 57.14C266.302 56.78 266.158 56.42 265.906 56.168C265.654 55.916 265.258 55.808 264.898 55.916C264.538 56.024 264.214 56.204 263.926 56.42C263.782 56.528 263.674 56.636 263.53 56.78C263.386 56.924 263.242 57.104 263.134 57.284C262.882 57.644 262.666 58.04 262.45 58.436ZM266.59 59.48V59.552C266.59 59.12 266.59 58.688 266.554 58.256C266.518 58.04 266.482 57.824 266.446 57.644C266.41 57.464 266.374 57.284 266.302 57.104C266.194 56.78 266.014 56.456 265.726 56.276C265.438 56.06 265.042 56.06 264.718 56.168C263.422 56.528 262.666 58.436 261.802 60.02C262.702 58.436 263.494 56.564 264.718 56.24C265.006 56.132 265.366 56.132 265.654 56.312C265.942 56.492 266.122 56.78 266.23 57.104C266.302 57.248 266.338 57.392 266.374 57.572C266.41 57.752 266.446 57.968 266.482 58.184C266.554 58.616 266.59 59.048 266.59 59.48ZM265.042 56.456H265.006C265.294 56.42 265.582 56.528 265.762 56.744C266.122 57.212 266.23 57.716 266.338 58.652C266.266 57.716 266.194 57.212 265.834 56.708C265.654 56.456 265.33 56.312 265.042 56.348C264.754 56.384 264.466 56.528 264.214 56.708C263.782 56.996 263.278 57.788 262.882 58.58C262.45 59.408 262.018 60.2 261.658 61.028C262.054 60.236 262.486 59.444 262.918 58.652C263.314 57.896 263.854 57.104 264.25 56.816C264.502 56.636 264.754 56.492 265.042 56.456ZM265.978 68.3V68.336C266.266 68.948 266.662 69.452 267.058 69.704C266.662 69.38 266.302 68.84 266.05 68.228C265.798 67.616 265.618 66.932 265.51 66.212C265.402 65.492 265.402 64.772 265.402 64.052C265.402 63.332 265.438 62.612 265.474 61.892L265.366 62.972L265.294 64.052C265.294 64.772 265.294 65.528 265.402 66.248C265.51 66.968 265.69 67.688 265.978 68.3Z" fill="white"/>
</g>
</g>
<defs>
<filter id="filter0_d_305_593" x="25.577" y="30.0486" width="62.7693" height="72.3642" filterUnits="userSpaceOnUse" color-interpolation-filters="sRGB">
<feFlood flood-opacity="0" result="BackgroundImageFix"/>
<feColorMatrix in="SourceAlpha" type="matrix" values="0 0 0 0 0 0 0 0 0 0 0 0 0 0 0 0 0 0 127 0" result="hardAlpha"/>
<feOffset dy="5.23077"/>
<feGaussianBlur stdDeviation="5.23077"/>
<feComposite in2="hardAlpha" operator="out"/>
<feColorMatrix type="matrix" values="0 0 0 0 0 0 0 0 0 0 0 0 0 0 0 0 0 0 0.25 0"/>
<feBlend mode="normal" in2="BackgroundImageFix" result="effect1_dropShadow_305_593"/>
<feBlend mode="normal" in="SourceGraphic" in2="effect1_dropShadow_305_593" result="shape"/>
</filter>
<filter id="filter1_d_305_593" x="86.3847" y="40.2813" width="193.366" height="57.3191" filterUnits="userSpaceOnUse" color-interpolation-filters="sRGB">
<feFlood flood-opacity="0" result="BackgroundImageFix"/>
<feColorMatrix in="SourceAlpha" type="matrix" values="0 0 0 0 0 0 0 0 0 0 0 0 0 0 0 0 0 0 127 0" result="hardAlpha"/>
<feOffset dy="5.23077"/>
<feGaussianBlur stdDeviation="5.23077"/>
<feComposite in2="hardAlpha" operator="out"/>
<feColorMatrix type="matrix" values="0 0 0 0 0 0 0 0 0 0 0 0 0 0 0 0 0 0 0.25 0"/>
<feBlend mode="normal" in2="BackgroundImageFix" result="effect1_dropShadow_305_593"/>
<feBlend mode="normal" in="SourceGraphic" in2="effect1_dropShadow_305_593" result="shape"/>
</filter>
<linearGradient id="paint0_linear_305_593" x1="553" y1="-18" x2="-24.0962" y2="703.37" gradientUnits="userSpaceOnUse">
<stop stop-color="white"/>
<stop offset="1" stop-color="#FFC275"/>
</linearGradient>
<linearGradient id="paint1_linear_305_593" x1="775" y1="435" x2="1574.1" y2="1433.87" gradientUnits="userSpaceOnUse">
<stop stop-color="white"/>
<stop offset="1" stop-color="#FFC275"/>
</linearGradient>
<linearGradient id="paint2_linear_305_593" x1="75.9231" y1="37.241" x2="38" y2="84.6448" gradientUnits="userSpaceOnUse">
<stop stop-color="white"/>
<stop offset="1" stop-color="#FFC275"/>
</linearGradient>
<clipPath id="clip0_305_593">
<rect width="1440" height="1024" fill="white"/>
</clipPath>
</defs>
</svg>
