<svg width="1440" height="1024" viewBox="0 0 1440 1024" fill="none" xmlns="http://www.w3.org/2000/svg">
<g clip-path="url(#clip0_360_357)">
<rect width="1440" height="1024" fill="#D88E30"/>
<path opacity="0.2" d="M177.54 96.7239C333.286 80.0368 382.652 189.43 387.867 246.213C203.779 276.091 124.291 188.566 95.9258 96.7239M95.9258 96.7239C83.3658 56.0561 80.8299 14.5419 83.6751 -18H372.223C472.063 -18 553 62.9366 553 162.777C553 262.617 472.063 343.554 372.223 343.554H207.09C79.4093 343.554 -24.0962 240.049 -24.0962 112.368L-23.5752 96.7239H95.9258ZM177.54 590.384C333.286 607.071 382.652 497.678 387.867 440.895C203.779 411.017 124.291 498.543 95.9258 590.384M95.9258 590.384C83.3658 631.052 80.8299 672.566 83.6751 705.108H372.223C472.063 705.108 553 624.171 553 524.331C553 424.491 472.063 343.554 372.223 343.554H207.09C79.4093 343.554 -24.0962 447.06 -24.0962 574.74L-23.5752 590.384H95.9258Z" stroke="url(#paint0_linear_360_357)" stroke-width="59.6996"/>
<path opacity="0.2" d="M1294.89 593.856C1079.23 570.75 1010.88 722.225 1003.66 800.851C1258.56 842.223 1368.63 721.028 1407.9 593.856M1407.9 593.856C1425.3 537.544 1428.81 480.06 1424.87 435H1025.32C887.072 435 775 547.072 775 685.319C775 823.567 887.072 935.638 1025.32 935.638H1253.98C1430.77 935.638 1574.1 792.316 1574.1 615.519L1573.37 593.856H1407.9ZM1294.89 1277.42C1079.23 1300.53 1010.88 1149.05 1003.66 1070.43C1258.56 1029.05 1368.63 1150.25 1407.9 1277.42M1407.9 1277.42C1425.3 1333.73 1428.81 1391.22 1424.87 1436.28H1025.32C887.072 1436.28 775 1324.2 775 1185.96C775 1047.71 887.072 935.638 1025.32 935.638H1253.98C1430.77 935.638 1574.1 1078.96 1574.1 1255.76L1573.37 1277.42H1407.9Z" stroke="url(#paint1_linear_360_357)" stroke-width="82.6651"/>
</g>
<defs>
<linearGradient id="paint0_linear_360_357" x1="553" y1="-18" x2="-24.0962" y2="703.37" gradientUnits="userSpaceOnUse">
<stop stop-color="white"/>
<stop offset="1" stop-color="#FFC275"/>
</linearGradient>
<linearGradient id="paint1_linear_360_357" x1="775" y1="435" x2="1574.1" y2="1433.87" gradientUnits="userSpaceOnUse">
<stop stop-color="white"/>
<stop offset="1" stop-color="#FFC275"/>
</linearGradient>
<clipPath id="clip0_360_357">
<rect width="1440" height="1024" fill="white"/>
</clipPath>
</defs>
</svg>
