<svg width="49" height="48" viewBox="0 0 49 48" fill="none" xmlns="http://www.w3.org/2000/svg">
<circle cx="24.25" cy="24" r="24" fill="white"/>
<path d="M27.2499 17L31.2499 21M33.4239 18.812C33.9526 18.2834 34.2497 17.5665 34.2498 16.8189C34.2499 16.0713 33.953 15.3542 33.4244 14.8255C32.8959 14.2968 32.1789 13.9997 31.4313 13.9996C30.6837 13.9995 29.9666 14.2964 29.4379 14.825L16.0919 28.174C15.8598 28.4055 15.688 28.6905 15.5919 29.004L14.2709 33.356C14.2451 33.4425 14.2431 33.5344 14.2653 33.6219C14.2874 33.7094 14.3329 33.7892 14.3967 33.853C14.4606 33.9168 14.5406 33.9621 14.6281 33.9841C14.7156 34.0061 14.8075 34.004 14.8939 33.978L19.2469 32.658C19.5601 32.5628 19.8451 32.3921 20.0769 32.161L33.4239 18.812Z" stroke="#FF8A00" stroke-width="2" stroke-linecap="round" stroke-linejoin="round"/>
</svg>
