<svg width="1440" height="2512" viewBox="0 0 1440 2512" fill="none" xmlns="http://www.w3.org/2000/svg">
<g clip-path="url(#clip0_276_3024)">
<path opacity="0.5" d="M158.41 193.319C266.091 181.782 300.223 257.416 303.828 296.675C176.551 317.332 121.593 256.818 101.982 193.319M101.982 193.319C93.2984 165.202 91.5451 136.499 93.5122 114H293.012C362.041 114 418 169.959 418 238.988C418 308.017 362.041 363.976 293.012 363.976H178.84C90.5629 363.976 19 292.413 19 204.135L19.3602 193.319H101.982ZM158.41 534.632C266.091 546.17 300.223 470.536 303.828 431.277C176.551 410.619 121.593 471.134 101.982 534.632M101.982 534.632C93.2984 562.75 91.5451 591.452 93.5122 613.951H293.012C362.041 613.951 418 557.992 418 488.964C418 419.935 362.041 363.976 293.012 363.976H178.84C90.5629 363.976 19 435.539 19 523.816L19.3602 534.632H101.982Z" stroke="url(#paint0_linear_276_3024)" stroke-width="41.2759"/>
<path opacity="0.5" d="M1319.29 791.422C1100.15 767.942 1030.69 921.863 1023.35 1001.76C1282.37 1043.8 1394.21 920.647 1434.12 791.422M1434.12 791.422C1451.8 734.2 1455.36 675.788 1451.36 630H1045.36C904.881 630 791 743.881 791 884.361C791 1024.84 904.881 1138.72 1045.36 1138.72H1277.71C1457.36 1138.72 1603 993.086 1603 813.434L1602.27 791.422H1434.12ZM1319.29 1486.02C1100.15 1509.5 1030.69 1355.58 1023.35 1275.69C1282.37 1233.65 1394.21 1356.8 1434.12 1486.02M1434.12 1486.02C1451.8 1543.24 1455.36 1601.66 1451.36 1647.45H1045.36C904.882 1647.45 791 1533.56 791 1393.08C791 1252.6 904.882 1138.72 1045.36 1138.72H1277.71C1457.36 1138.72 1603 1284.36 1603 1464.01L1602.27 1486.02H1434.12Z" stroke="url(#paint1_linear_276_3024)" stroke-width="84"/>
<path opacity="0.5" d="M329.132 2151.26C583.359 2124.03 663.94 2302.59 672.452 2395.28C371.963 2444.05 242.213 2301.18 195.913 2151.26M195.913 2151.26C175.411 2084.88 171.272 2017.12 175.916 1964H646.916C809.886 1964 942 2096.11 942 2259.08C942 2422.05 809.886 2554.17 646.916 2554.17H377.367C168.953 2554.17 0 2385.22 0 2176.8L0.850381 2151.26H195.913ZM329.132 2957.07C583.359 2984.31 663.94 2805.75 672.452 2713.06C371.963 2664.29 242.213 2807.16 195.913 2957.07M195.913 2957.07C175.411 3023.45 171.272 3091.22 175.916 3144.34H646.916C809.886 3144.34 942 3012.22 942 2849.25C942 2686.28 809.886 2554.17 646.916 2554.17H377.367C168.953 2554.17 0 2723.12 0 2931.54L0.850381 2957.07H195.913Z" stroke="url(#paint2_linear_276_3024)" stroke-width="97.4483"/>
</g>
<defs>
<linearGradient id="paint0_linear_276_3024" x1="418" y1="114" x2="19" y2="612.75" gradientUnits="userSpaceOnUse">
<stop stop-color="white"/>
<stop offset="1" stop-color="#FFC275"/>
</linearGradient>
<linearGradient id="paint1_linear_276_3024" x1="791" y1="630" x2="1603" y2="1645" gradientUnits="userSpaceOnUse">
<stop stop-color="white"/>
<stop offset="1" stop-color="#FFC275"/>
</linearGradient>
<linearGradient id="paint2_linear_276_3024" x1="942" y1="1964" x2="7.28729e-05" y2="3141.5" gradientUnits="userSpaceOnUse">
<stop stop-color="white"/>
<stop offset="1" stop-color="#FFC275"/>
</linearGradient>
<clipPath id="clip0_276_3024">
<rect width="1440" height="2512" fill="white"/>
</clipPath>
</defs>
</svg>
