<svg width="282" height="345" viewBox="0 0 282 345" fill="none" xmlns="http://www.w3.org/2000/svg">
<path d="M102.747 63.6747C171.296 56.3302 193.024 104.478 195.319 129.47C114.296 142.62 79.3101 104.097 66.8258 63.6747M66.8258 63.6747C61.2977 45.7754 60.1816 27.5036 61.4339 13.1808H188.434C232.377 13.1808 268 48.8038 268 92.747C268 136.69 232.377 172.313 188.434 172.313H115.753C59.5563 172.313 14 126.757 14 70.5603L14.2293 63.6747H66.8258ZM102.747 280.952C171.296 288.296 193.024 240.149 195.319 215.157C114.296 202.006 79.3101 240.529 66.8258 280.952M66.8258 280.952C61.2977 298.851 60.1816 317.123 61.4339 331.446H188.434C232.377 331.446 268 295.823 268 251.879C268 207.936 232.377 172.313 188.434 172.313H115.753C59.5563 172.313 14 217.87 14 274.066L14.2293 280.952H66.8258Z" stroke="url(#paint0_linear_275_2828)" stroke-width="26.2759"/>
<defs>
<linearGradient id="paint0_linear_275_2828" x1="268" y1="13.1808" x2="14" y2="330.681" gradientUnits="userSpaceOnUse">
<stop stop-color="white"/>
<stop offset="1" stop-color="#FFC275"/>
</linearGradient>
</defs>
</svg>
