<svg width="721" height="84" viewBox="0 0 721 84" fill="none" xmlns="http://www.w3.org/2000/svg">
<path d="M17.6747 16.4026C29.0096 15.1882 32.6024 23.1496 32.9819 27.2821C19.5843 29.4566 13.7993 23.0867 11.735 16.4026M11.735 16.4026C10.8209 13.4429 10.6363 10.4216 10.8434 8.05322H31.8434C39.1096 8.05322 45 13.9436 45 21.2098C45 28.476 39.1096 34.3665 31.8434 34.3665H19.8253C10.5329 34.3665 3 26.8335 3 17.5412L3.03792 16.4026H11.735ZM17.6747 52.3303C29.0096 53.5448 32.6024 45.5833 32.9819 41.4508C19.5843 39.2763 13.7993 45.6462 11.735 52.3303M11.735 52.3303C10.8209 55.29 10.6363 58.3114 10.8434 60.6797H31.8434C39.1096 60.6797 45 54.7893 45 47.5231C45 40.2569 39.1096 34.3665 31.8434 34.3665H19.8253C10.5329 34.3665 3 41.8994 3 51.1917L3.03792 52.3303H11.735Z" stroke="url(#paint0_linear_311_36)" stroke-width="4.34483"/>
<g filter="url(#filter0_d_311_36)">
<path d="M88.264 30.8265L88.312 30.7305C90.472 32.8425 91.528 35.5785 91.576 38.4585C91.576 39.8985 91.288 41.4345 90.616 42.7305C89.992 44.0745 89.08 45.1785 88.072 46.0905C86.2 47.7705 83.656 49.1145 81.208 49.7385C78.712 50.3625 76.12 50.5545 73.432 49.9305C68.728 48.8265 65.272 44.4105 65.224 39.5625C65.176 37.6425 65.752 36.2025 66.232 36.5865C66.568 36.8745 66.712 38.3145 67 39.3705C67.528 41.4825 68.584 43.6425 70.36 45.0345C73.72 47.8665 79 47.0985 82.552 45.0825C84.376 44.0745 86.008 42.6825 86.776 41.0505C87.112 40.2825 87.256 39.4665 87.304 38.6505C87.352 36.4905 86.104 33.9465 84.04 33.1305C81.352 32.0745 79.096 33.4185 76.6 34.3305L76.408 34.3785C76.216 35.3865 76.072 36.3945 75.976 37.3545C75.832 38.8905 75.88 40.3305 76.168 41.6265C76.264 41.9625 76.696 42.6345 75.688 43.1145C75.304 43.3065 74.92 43.2105 74.632 43.1145C73.576 42.7305 72.904 41.7225 72.472 40.7625C72.04 39.8505 71.8 38.8425 71.704 37.8345C71.56 35.9145 71.896 34.1385 72.04 32.5065C72.136 31.4025 72.232 30.3465 72.184 29.3865C72.088 29.4825 71.992 29.5785 71.896 29.6745C69.88 31.6425 66.472 32.7465 63.88 31.2585C61.768 30.0585 61 27.6105 61.528 25.3065C62.152 22.4745 64.168 19.7385 66.376 17.9145C68.248 16.3305 70.408 15.2265 72.568 14.6505C74.728 14.0745 76.792 13.8825 78.856 14.0265C81.448 14.2665 84.088 15.0825 85.864 17.0985C88.216 19.6905 88.408 23.0505 87.016 26.1705C86.536 27.2745 85.864 28.2345 85.288 28.9065C86.392 29.3385 87.448 30.0105 88.264 30.8265ZM70.264 29.7225C70.984 29.2425 71.608 28.7145 72.136 28.1865C72.136 28.1385 72.136 28.0905 72.136 28.0425C71.512 28.6185 70.84 29.1945 69.88 29.6745C69.352 29.9625 68.776 30.2025 68.152 30.3465C67.576 30.4905 66.712 30.5865 65.896 30.4425C64.216 30.2025 62.776 28.7145 62.68 26.8905C62.584 26.0265 62.824 24.9705 63.064 24.3465C63.304 23.6265 63.592 23.0025 63.928 22.3785C64.6 21.1785 65.416 20.0265 66.424 19.0185C68.44 17.0025 71.128 15.5625 73.96 14.9865C72.568 15.2745 71.176 15.7545 69.88 16.4265C68.584 17.0985 67.384 17.9625 66.328 19.0185C65.272 20.0745 64.408 21.2265 63.736 22.4745C63.4 23.0985 63.064 23.7705 62.824 24.5385C62.776 24.7305 62.728 24.9225 62.68 25.1625C62.632 25.4025 62.584 25.6425 62.536 25.8825C62.488 26.3625 62.488 26.8425 62.536 27.3225C62.68 28.2825 63.16 29.1465 63.832 29.7225C64.504 30.2985 65.368 30.6345 66.232 30.6825C66.664 30.7305 67.144 30.7305 67.528 30.6825C67.864 30.6345 68.2 30.5385 68.536 30.4425C69.16 30.2505 69.736 30.0105 70.264 29.7225ZM72.712 40.4265V40.4745C73.288 41.7225 74.152 42.6345 74.968 43.1145C73.864 42.3945 72.808 40.9545 72.376 39.1305C72.088 37.9305 72.04 36.7785 72.088 35.8185C71.944 37.0185 71.944 38.6985 72.712 40.4265ZM72.568 23.0985H72.712C72.808 23.0985 72.904 23.0985 73 23.0985C72.856 23.0985 72.712 23.0985 72.568 23.0985ZM74.44 37.9305H74.392C74.44 36.8265 74.584 35.7225 74.728 34.6185C74.584 35.7225 74.44 36.8265 74.44 37.9305ZM74.776 34.6185H74.824C74.728 35.4825 74.632 36.3465 74.584 37.2105C74.68 36.3465 74.776 35.4825 74.92 34.6185C74.872 34.6185 74.824 34.6185 74.776 34.6185ZM74.824 37.8345L74.872 37.8825C74.92 36.8265 75.064 35.7705 75.208 34.6665C75.16 34.6665 75.112 34.6665 75.064 34.6665C74.92 35.7225 74.824 36.7785 74.824 37.8345ZM75.4 29.8665C75.4 29.8185 75.4 29.7705 75.4 29.7225C75.4 29.7705 75.4 29.8185 75.4 29.8665ZM76.168 26.1225H76.072C76.264 26.6505 76.408 27.1785 76.504 27.7545C76.504 27.4665 76.456 27.1785 76.408 26.8905C76.36 26.6025 76.312 26.3145 76.216 26.0265C76.024 25.4985 75.784 24.9705 75.448 24.4905C75.352 24.3465 75.256 24.2025 75.112 24.0585C75.112 24.1545 75.112 24.2505 75.112 24.3465C75.208 24.4425 75.304 24.5385 75.4 24.6345C75.736 25.0665 75.976 25.5945 76.168 26.1225ZM81.16 30.1545V30.2025C81.208 30.2025 81.256 30.2025 81.304 30.2025C81.352 30.1545 81.4 30.1065 81.448 30.0585C81.4 30.0585 81.352 30.0585 81.304 30.0585C81.256 30.1065 81.208 30.1065 81.16 30.1545ZM81.4 30.0585C81.448 30.0585 81.496 30.0585 81.544 30.0585C81.592 30.0105 81.64 29.9625 81.688 29.9145C81.64 29.9145 81.592 29.9145 81.544 29.9145C81.496 29.9625 81.448 30.0105 81.4 30.0585ZM81.592 30.2025C81.64 30.1545 81.688 30.1065 81.736 30.0585C81.688 30.0585 81.64 30.0585 81.592 30.0585C81.544 30.1065 81.496 30.1545 81.448 30.2025C81.496 30.2025 81.544 30.2025 81.592 30.2025ZM81.64 30.0585V29.9625C81.688 29.9625 81.736 29.9625 81.784 29.9625C81.832 29.9625 81.88 29.9145 81.928 29.9145C81.88 29.9145 81.832 29.9145 81.784 29.9145C81.736 29.9625 81.688 30.0105 81.64 30.0585ZM81.88 29.7225C81.928 29.6745 81.976 29.6265 82.024 29.5785C81.976 29.5785 81.928 29.5785 81.88 29.5785C81.832 29.6265 81.784 29.6745 81.736 29.7225C81.784 29.7225 81.832 29.7225 81.88 29.7225ZM82.072 29.6265C82.024 29.6745 81.976 29.7225 81.928 29.7705C81.976 29.7705 82.024 29.7705 82.072 29.7705C82.12 29.7225 82.168 29.6745 82.216 29.6265C82.168 29.6265 82.12 29.6265 82.072 29.6265ZM81.976 30.1065C82.024 30.0585 82.072 30.0105 82.12 29.9625C82.072 29.9625 82.024 29.9625 81.976 29.9625C81.928 30.0105 81.88 30.0585 81.832 30.1065C81.88 30.1065 81.928 30.1065 81.976 30.1065ZM82.168 29.9625L82.024 30.0105C82.072 30.0105 82.12 29.9625 82.168 29.9625C82.12 29.9625 82.072 29.9625 82.024 29.9625C82.072 29.9625 82.12 29.9625 82.168 29.9625ZM82.312 29.7705C82.36 29.7225 82.408 29.6745 82.456 29.6265C82.408 29.6265 82.36 29.6265 82.312 29.6265C82.264 29.6745 82.216 29.7225 82.168 29.7705C82.216 29.7705 82.264 29.7705 82.312 29.7705ZM82.36 24.7785L82.408 24.6825C83.224 23.1465 83.464 21.5145 82.12 20.1705C80.92 19.1145 78.568 18.7305 76.312 19.0185C74.008 19.2585 71.944 20.0265 70.216 21.3705C69.592 21.8505 65.368 26.0265 66.904 26.7945C67.24 26.9385 67.72 26.6505 68.008 26.5065C68.68 26.1705 69.448 25.6425 69.976 25.0665C70.504 24.4425 70.936 23.7705 71.608 23.3385C73.096 22.3305 75.112 22.3305 76.168 23.9625C76.552 24.5865 76.744 25.3065 76.888 26.0265C77.08 27.1785 77.128 28.2345 77.08 29.1465C77.224 29.0985 77.368 29.0505 77.512 29.0025C79.624 27.9465 81.448 26.5065 82.36 24.7785ZM83.176 28.3785L83.32 28.3305C83.944 27.7065 84.472 27.0345 84.904 26.2665C85.336 25.4985 85.672 24.7305 85.912 23.8665C86.104 23.0025 86.152 22.0425 85.912 21.1305C86.104 22.0425 86.008 23.0025 85.768 23.8665C85.528 24.7305 85.192 25.4985 84.76 26.2665C84.328 27.0345 83.8 27.7545 83.176 28.3785ZM83.416 28.3305L83.464 28.3785C83.512 28.3785 83.56 28.3785 83.608 28.3785C83.992 27.9945 84.328 27.6105 84.664 27.1785C85.192 26.4585 85.576 25.6425 85.864 24.8265C86.152 23.9625 86.344 23.0505 86.296 22.0905C86.248 20.0745 85 18.3945 83.464 17.3865C85 18.3945 86.2 20.0745 86.248 22.0425C86.248 23.0025 86.056 23.9145 85.768 24.7305C85.48 25.5465 85.048 26.3145 84.52 27.0345C84.184 27.5145 83.8 27.9465 83.416 28.3305ZM83.752 28.4265H83.848C84.568 27.6585 85.192 26.7945 85.672 25.7865C86.056 24.9705 86.392 24.0585 86.536 23.0985C86.68 22.1385 86.584 21.0825 86.2 20.1225C86.584 21.0825 86.632 22.1385 86.488 23.0985C86.344 24.0585 86.008 24.9705 85.624 25.7865C85.144 26.7945 84.472 27.6585 83.752 28.4265ZM84.376 30.0585V30.1545C86.056 30.5385 87.544 31.6425 88.504 32.9865C89.56 34.4265 90.184 36.1545 90.328 37.9305C90.184 36.1545 89.56 34.4265 88.504 32.9385C87.544 31.5945 86.056 30.4905 84.376 30.0585ZM87.88 39.5625H87.64C87.88 37.5945 87.16 35.5305 86.008 34.1865C87.448 35.9625 88.216 39.0345 86.92 41.5305C86.248 42.8745 84.952 44.1225 83.368 45.1305C82.6 45.6105 81.736 46.0905 80.872 46.4265C79.96 46.7625 78.952 47.0025 77.944 47.1465C75.064 47.6745 72.184 47.1945 70.12 45.5145C68.296 44.1225 67.24 42.0105 66.76 39.9465C67.048 41.2905 67.528 42.6345 68.344 43.7865C68.872 44.5065 69.496 45.1785 70.216 45.7065C70.552 45.9945 70.984 46.1865 71.368 46.4265C71.8 46.6185 72.184 46.8585 72.616 46.9545C74.344 47.5305 76.264 47.5785 78.184 47.2425C79.144 47.0985 80.104 46.8585 81.016 46.5225C81.928 46.1865 82.84 45.7065 83.704 45.1785C84.856 44.4585 85.864 43.5945 86.584 42.6345C87.304 41.6745 87.736 40.6185 87.88 39.5625ZM89.752 37.1145C90.088 38.8425 89.848 40.7145 89.032 42.2985C89.848 40.7145 90.136 38.8425 89.848 37.1145C89.56 35.3865 88.792 33.7065 87.592 32.3625C86.68 31.3065 85.432 30.5865 84.088 30.2505C84.04 30.2505 83.992 30.2505 83.944 30.2505C85.288 30.5865 86.584 31.3065 87.496 32.3625C88.696 33.7065 89.464 35.3865 89.752 37.1145ZM89.656 41.7705L89.704 41.8665C90.424 40.1385 90.424 38.1705 89.992 36.3945C89.56 34.6185 88.648 32.9385 87.208 31.6425C86.488 31.0185 85.624 30.4905 84.712 30.1545C84.568 30.1065 84.424 30.0585 84.28 30.0105C84.424 30.0585 84.568 30.1065 84.712 30.1545C85.624 30.4425 86.488 30.9705 87.208 31.5945C88.6 32.8425 89.512 34.5225 89.944 36.2985C90.376 38.0745 90.376 40.0425 89.656 41.7705ZM111.229 44.4105L111.421 44.5065C111.661 44.9385 111.613 45.4665 111.373 45.8505C111.181 46.1385 110.893 46.3305 110.509 46.3785C109.933 46.4265 109.357 46.1865 108.877 45.8025C108.397 45.4185 108.013 44.9385 107.677 44.4585C107.101 43.6425 106.765 42.7305 106.477 41.8665C106.189 42.5385 105.853 43.2105 105.373 43.8345C103.597 46.2825 100.381 47.4825 97.549 46.0905C94.765 44.6025 93.805 41.7705 93.517 39.5145C93.133 36.9705 93.229 34.2345 93.901 31.7385C94.237 30.4425 94.717 29.0985 95.533 27.8025C96.925 25.6425 99.421 24.1065 102.013 24.1065C102.973 24.1065 103.885 24.2505 104.749 24.5385C105.085 24.6345 105.421 24.7785 105.757 24.9225C105.805 24.7785 105.901 24.6825 106.045 24.5865C106.429 24.3945 107.053 24.5385 107.389 24.6345C108.493 24.9225 109.597 25.5945 110.269 26.4105C111.229 27.5145 111.037 28.5705 110.845 29.6745C110.605 31.1625 110.413 32.5065 110.317 33.4665C110.221 34.4265 110.173 35.0025 110.173 35.0025C110.029 36.7305 110.077 38.4585 110.269 40.1385C110.461 41.8185 110.749 43.4985 111.229 44.4105ZM101.197 28.5225H101.245C100.573 28.7625 100.045 29.1465 99.565 29.7225C99.661 29.5305 99.805 29.4345 99.949 29.2905C99.997 29.2425 100.045 29.1945 100.093 29.1465L100.333 29.0505C100.477 28.9545 100.621 28.8585 100.765 28.8105C100.909 28.7625 101.053 28.6665 101.245 28.6665C101.437 28.6185 101.629 28.5705 101.821 28.5225C102.013 28.4745 102.157 28.4265 102.349 28.4265C102.733 28.4265 103.117 28.4745 103.501 28.5705C104.221 28.6665 104.941 28.9545 105.613 29.2905C105.661 29.2425 105.709 29.1945 105.757 29.1945C105.037 28.8105 104.269 28.5225 103.453 28.3785C102.637 28.2345 101.917 28.2825 101.197 28.5225ZM99.421 31.2585L99.373 31.2105C98.077 33.7065 97.693 37.1625 98.317 39.8985C98.509 40.8105 99.085 42.2025 100.141 42.3465C101.389 42.4905 102.445 40.9545 102.925 39.9945C103.645 38.5065 103.741 36.9705 104.173 35.4345L104.653 32.4585C104.749 31.8825 104.845 30.8265 105.133 30.0585C103.021 29.4345 100.573 28.8105 99.421 31.2585ZM99.949 43.4985V43.4505C98.941 43.3545 98.029 42.5385 97.453 41.4345C97.165 40.8585 96.973 40.2825 96.877 39.6105C96.733 38.9385 96.685 38.2665 96.637 37.5945C96.541 36.2025 96.589 34.8105 96.829 33.4665C96.589 34.8105 96.493 36.2025 96.541 37.5945C96.589 38.2665 96.637 38.9865 96.781 39.6585C96.877 40.3305 97.069 40.9065 97.357 41.4825C97.933 42.5865 98.893 43.4505 99.949 43.5465C100.957 43.6905 102.061 43.0665 102.877 42.1065C102.061 43.0665 100.957 43.6425 99.949 43.4985ZM96.925 31.9785V32.0745C96.541 33.4185 96.349 34.8105 96.301 36.2025C96.253 37.5945 96.349 39.0345 96.685 40.3305C97.021 41.5785 97.741 42.7785 98.797 43.4025C99.853 44.0265 101.101 43.8825 102.109 43.1145C101.053 43.8345 99.805 43.9305 98.797 43.3065C97.789 42.6825 97.069 41.4825 96.733 40.2345C96.397 38.9385 96.301 37.4985 96.349 36.1065C96.397 34.7145 96.541 33.3225 96.925 31.9785ZM97.165 41.9625H97.213C97.837 43.1145 98.941 43.9785 100.141 44.0265C101.341 44.0745 102.541 43.2585 103.357 42.2025C102.541 43.2105 101.341 43.9785 100.141 43.9305C98.941 43.8825 97.885 43.0185 97.261 41.8665C96.925 41.2905 96.685 40.6665 96.541 40.0425C96.397 39.3705 96.301 38.6985 96.253 37.9785C96.157 36.5865 96.205 35.1465 96.397 33.7545C96.157 35.1465 96.061 36.5865 96.157 37.9785C96.205 38.6985 96.301 39.4185 96.445 40.0905C96.589 40.7625 96.829 41.3865 97.165 41.9625ZM105.229 43.4985H105.181C105.661 42.8265 106.045 42.0585 106.333 41.2905C106.333 41.1945 106.333 41.0985 106.333 41.0025C105.901 42.2985 105.229 43.5465 104.221 44.5545C103.165 45.6105 101.629 46.4265 99.949 46.3305C100.957 46.4265 102.061 46.1385 102.973 45.6105C103.885 45.0825 104.653 44.3625 105.229 43.4985ZM109.645 26.5545H109.549C109.357 26.1225 109.069 25.6905 108.685 25.3545C109.021 25.7385 109.261 26.1705 109.453 26.6025C109.645 27.0345 109.789 27.5145 109.885 27.9945C109.933 28.2345 109.981 28.4745 109.981 28.7145C110.029 28.8105 110.077 28.9545 110.125 29.0985C110.125 28.7145 110.125 28.3305 110.077 27.9465C109.981 27.4665 109.837 26.9865 109.645 26.5545ZM109.213 40.9545H109.165C108.829 38.4105 108.733 35.8185 108.781 33.2265C108.637 35.8185 108.733 38.4105 109.213 40.9545ZM108.541 32.5545C108.349 35.1465 108.397 37.7865 108.829 40.3305C108.541 37.7385 108.493 35.1465 108.541 32.5545ZM108.397 33.3705H108.445C108.301 35.9625 108.397 38.6025 108.877 41.1465C108.493 38.5545 108.397 35.9625 108.397 33.3705ZM106.477 40.5705C106.477 40.5225 106.477 40.4745 106.477 40.4265C106.477 40.3305 106.477 40.2345 106.477 40.1385C106.477 40.1865 106.477 40.2345 106.477 40.2825C106.477 40.3785 106.477 40.4745 106.477 40.5705ZM107.773 44.0745H107.725C108.493 45.2745 109.693 46.1385 110.653 46.1865C110.029 46.1385 109.309 45.7065 108.733 45.0825C108.109 44.4585 107.629 43.6425 107.245 42.7785C107.005 42.2505 106.813 41.7225 106.669 41.1945C106.669 41.2425 106.669 41.2905 106.669 41.3385C106.861 42.2025 107.197 43.1145 107.773 44.0745ZM125.495 22.2825L125.639 22.3305C124.871 22.8105 124.055 23.1945 123.191 23.4825C121.943 23.8665 120.599 24.0585 119.255 24.1545C119.255 24.2505 119.255 24.3465 119.255 24.4425C119.303 29.8185 116.903 35.3865 118.151 40.7625C118.535 42.3465 119.927 42.9225 121.367 42.2505C123.143 41.3865 124.055 39.1305 124.823 37.4025C125.159 36.5865 125.639 34.4745 126.647 34.9545C127.031 35.1465 127.175 35.7705 127.223 36.2505C127.463 38.1225 127.031 40.3305 126.167 42.2985C125.735 43.2585 125.207 44.2185 124.391 45.0825C123.575 45.9465 122.423 46.7145 121.031 46.9545C119.879 47.1465 118.535 47.1945 117.191 46.5705C113.831 45.0345 113.255 40.7625 113.207 37.4985C113.207 35.2425 113.447 33.0825 113.687 30.9705C113.927 28.7625 114.071 26.5545 113.927 24.3465C113.303 24.2985 112.679 24.2505 112.055 24.2025C110.951 24.1065 109.799 23.9625 108.647 24.0105C108.359 24.0105 107.975 23.9625 107.831 23.6265C107.687 23.1945 107.879 22.5705 107.975 22.2345C108.311 21.1785 108.983 20.1225 109.751 19.4505C110.807 18.5385 111.719 18.7305 112.679 18.9225C112.775 18.9225 112.871 18.9225 112.967 18.9225C112.871 18.6825 112.823 18.4425 112.727 18.2025C112.535 17.7225 112.295 17.0505 112.487 16.5705C112.679 15.9945 113.351 15.8985 113.687 15.8505C114.791 15.7065 116.231 16.2345 117.335 17.5305C117.863 18.1545 118.247 18.8745 118.535 19.6425C121.127 19.6905 123.719 19.1625 126.311 18.6825C126.695 18.5865 127.559 18.2025 127.847 19.2585C127.943 19.6425 127.799 19.9785 127.655 20.2185C127.175 21.1785 126.311 21.8025 125.495 22.2825ZM112.487 19.7865L112.343 19.6905C112.631 19.6905 112.919 19.6905 113.207 19.6905L113.063 19.6425L112.439 19.5945C112.007 19.5945 111.575 19.5945 111.143 19.6905C110.711 19.7865 110.279 19.8825 109.847 20.0745C109.415 20.2665 109.031 20.5065 108.695 20.8425C109.031 20.5545 109.463 20.3625 109.895 20.1705C110.327 20.0265 110.759 19.9305 111.191 19.8825C111.623 19.7865 112.055 19.7865 112.487 19.7865ZM115.175 16.2345H115.271C115.799 16.7145 116.279 17.4345 116.663 18.2505C116.855 18.6345 116.999 19.0185 117.143 19.4505C117.239 19.4505 117.287 19.4505 117.287 19.4505C117.095 18.9705 116.903 18.5385 116.663 18.1065C116.231 17.2905 115.703 16.6185 115.175 16.2345ZM116.183 38.5065H116.135C115.991 35.9625 116.279 33.3705 116.567 30.7785C116.231 33.3705 115.943 35.9625 116.087 38.5065C116.183 39.7545 116.375 41.0025 116.855 42.0585C117.335 43.1145 118.103 43.8825 119.207 44.0265C118.151 43.8825 117.383 43.1145 116.903 42.0585C116.471 41.0025 116.279 39.7545 116.183 38.5065ZM121.751 46.0425L121.655 46.0905C121.319 46.1865 120.935 46.2825 120.599 46.3305C120.263 46.3785 119.927 46.4745 119.591 46.4745C118.871 46.4745 118.103 46.3785 117.383 46.0905C116.711 45.8025 116.087 45.3705 115.607 44.8425C116.183 45.5145 117.047 46.0905 118.007 46.3305C119.015 46.5705 119.927 46.5225 120.887 46.3305C121.943 46.1385 122.855 45.5625 123.575 44.8905C124.295 44.2185 124.871 43.4025 125.303 42.5385C126.503 40.0425 126.695 37.7385 126.695 35.8665C126.647 37.1625 126.503 38.6025 126.071 40.1385C125.879 40.9065 125.591 41.7225 125.207 42.5385C124.823 43.3545 124.295 44.1705 123.527 44.8905C123.047 45.3705 122.423 45.7545 121.751 46.0425ZM118.727 44.2185V44.1705C119.255 44.3145 119.879 44.2665 120.455 44.2185C119.879 44.2665 119.255 44.3145 118.727 44.1705C118.199 44.0265 117.767 43.7385 117.383 43.3545C116.615 42.5385 116.279 41.2905 116.087 40.0905C115.703 37.5945 115.895 34.9545 116.135 32.3625C115.847 34.9545 115.607 37.5945 115.991 40.0905C116.183 41.3385 116.567 42.5865 117.335 43.4025C117.719 43.7865 118.199 44.0745 118.727 44.2185ZM120.167 43.8825H120.215C119.111 43.9785 118.199 43.6905 117.623 42.9225C116.999 42.1545 116.663 41.0025 116.519 39.8025C116.231 37.3545 116.423 34.7625 116.663 32.1705C116.327 34.7625 116.087 37.4025 116.375 39.8505C116.519 41.0505 116.855 42.2505 117.479 43.0185C118.103 43.7865 119.063 44.0265 120.167 43.8825ZM117.575 20.9865V21.0345C117.623 21.0345 117.671 21.0345 117.719 21.0345V20.9865C117.671 20.9865 117.623 20.9865 117.575 20.9865ZM117.623 21.2265C117.623 21.2745 117.623 21.3225 117.623 21.3705C117.671 21.3705 117.719 21.3705 117.767 21.3705C117.767 21.3225 117.767 21.2745 117.767 21.2265C117.719 21.2265 117.671 21.2265 117.623 21.2265ZM117.671 21.4185C117.719 21.4185 117.767 21.4185 117.815 21.4185C117.767 21.4185 117.719 21.4185 117.671 21.4185ZM118.247 27.3225H118.343C118.391 26.6985 118.391 26.1705 118.391 25.6425C118.391 25.1625 118.391 24.6825 118.343 24.2025C118.295 24.2025 118.247 24.2025 118.199 24.2025C118.247 24.6825 118.295 25.1625 118.295 25.6425C118.295 26.1705 118.295 26.6985 118.247 27.3225ZM118.919 20.8905V20.8425C118.919 20.8905 118.919 20.9385 118.919 20.9865C120.119 20.9385 121.319 20.7945 122.519 20.5545C121.319 20.7465 120.119 20.8425 118.919 20.8905ZM118.967 21.0825V20.9865C118.967 21.0345 118.967 21.0825 118.967 21.1305C119.975 21.0825 120.983 20.9865 121.991 20.7945C120.983 20.9385 119.975 21.0345 118.967 21.0825ZM119.015 21.1785L119.063 21.0345C120.311 20.9865 121.559 20.8425 122.759 20.6025C121.511 20.7945 120.263 20.9385 119.015 21.0345C119.015 21.0825 119.015 21.1305 119.015 21.1785ZM124.199 22.2345V22.1865C123.191 22.6665 122.183 22.9545 121.271 23.0985C122.423 23.0025 123.863 22.6665 125.303 21.7545C126.311 21.1305 127.127 20.3625 127.703 19.5945C126.839 20.5545 125.687 21.5145 124.199 22.2345ZM133.271 28.8105V28.8585C134.519 29.4345 134.663 30.4425 134.711 31.4505C134.807 32.7945 134.759 33.9945 134.711 34.8585C134.663 35.2905 134.615 35.6265 134.567 35.8665C134.519 36.1065 134.519 36.2505 134.519 36.2505C134.375 37.7865 134.135 39.3225 134.039 40.5705C133.943 41.8665 133.991 42.9225 134.231 43.7385C134.279 43.9785 134.663 44.3145 133.799 45.0345C133.463 45.2745 133.127 45.3225 132.839 45.3225C131.783 45.2745 131.015 44.4105 130.583 43.5945C130.103 42.7785 129.863 41.9145 129.767 41.0985C129.575 39.5145 129.815 38.1225 129.815 36.8265C129.815 35.2905 129.815 33.7065 129.527 32.1705C129.383 31.3065 129.143 30.4425 128.663 29.6745C128.567 29.4825 128.423 29.2425 128.663 29.0025C128.951 28.7145 129.623 28.5705 129.959 28.5225C131.063 28.3305 132.359 28.3785 133.271 28.8105ZM130.871 43.2585L130.919 43.3065C131.495 44.3625 132.407 45.0345 133.223 45.2265C132.695 45.0345 132.119 44.6985 131.639 44.1705C131.159 43.6425 130.775 42.9225 130.535 42.1545C130.247 41.1465 130.199 40.1865 130.199 39.4185C130.103 40.3785 130.103 41.7705 130.871 43.2585ZM132.887 37.4505C132.935 36.3945 132.935 35.3385 132.887 34.2825C132.887 35.3385 132.839 36.3945 132.791 37.4505C132.743 38.5065 132.647 39.5625 132.599 40.5705C132.695 39.5625 132.839 38.5065 132.887 37.4505ZM133.031 38.0265C132.935 39.0825 132.839 40.0905 132.839 41.0505C132.887 40.0905 133.031 39.0825 133.127 38.0265C133.175 36.9705 133.175 35.9145 133.127 34.8585C133.127 35.9145 133.079 36.9705 133.031 38.0265ZM132.743 38.1225C132.839 37.0665 132.839 36.0105 132.791 34.9545C132.791 36.0105 132.743 37.0665 132.647 38.1225C132.551 39.1785 132.455 40.1865 132.455 41.1945C132.503 40.1865 132.647 39.1785 132.743 38.1225ZM133.799 31.5465H133.751C133.847 31.9305 133.943 32.3625 133.991 32.7945V32.1705C133.943 31.9785 133.943 31.7865 133.895 31.5945C133.799 31.1625 133.655 30.7305 133.463 30.3465C133.271 29.9625 133.031 29.6265 132.695 29.3385C132.359 29.0505 131.975 28.8105 131.495 28.7145C131.927 28.8585 132.263 29.0985 132.599 29.3865C132.887 29.6745 133.127 30.0105 133.319 30.3945C133.511 30.7785 133.655 31.1625 133.799 31.5465ZM134.519 22.2825L134.423 22.2345C135.047 23.0025 135.239 24.0585 134.903 24.9705C134.615 25.6905 133.991 26.6025 133.127 26.6025C132.791 26.6025 132.551 26.3625 132.503 25.8345C132.503 25.4505 132.551 25.1625 132.551 24.9705C132.551 24.6345 132.455 24.4425 132.311 24.2985V24.4905C132.311 24.7785 132.311 25.0665 132.263 25.3065C132.215 25.8345 132.023 26.3145 131.735 26.6505C130.871 27.5625 129.863 27.0825 129.287 26.2665C128.855 25.6905 128.615 24.9705 128.615 24.2025C128.615 23.4345 128.903 22.8105 129.191 22.3785C129.815 21.5145 130.823 20.9865 131.879 20.9865C132.311 20.9865 132.647 21.0825 132.935 21.1785C133.559 21.3705 134.087 21.7065 134.519 22.2825ZM131.687 25.9785V25.8825C131.927 25.6905 132.119 25.4025 132.167 25.0185C132.071 25.4025 131.879 25.6425 131.639 25.8345C131.399 26.0265 131.111 26.1225 130.823 26.0745C130.535 26.0745 130.247 25.9305 129.959 25.7385C129.719 25.5465 129.479 25.2585 129.335 24.8745C129.383 25.0665 129.431 25.2585 129.527 25.4505C129.623 25.5945 129.719 25.7385 129.863 25.8825C130.151 26.1225 130.439 26.2665 130.775 26.2665C131.063 26.2665 131.399 26.1705 131.687 25.9785ZM132.551 25.2105L132.503 25.3065C132.647 24.9225 132.551 24.5385 132.359 24.3465C132.311 24.2985 132.263 24.2505 132.215 24.2025C132.311 24.2505 132.407 24.3465 132.455 24.4425C132.599 24.6345 132.647 24.9225 132.551 25.2105ZM132.119 22.6665C132.599 22.7625 133.031 23.0025 133.367 23.4825C133.079 23.0025 132.647 22.7145 132.119 22.6185C131.879 22.5705 131.543 22.5705 131.255 22.7145C130.967 22.8585 130.775 23.0985 130.631 23.3385C130.775 23.0985 131.015 22.9065 131.303 22.7625C131.591 22.6185 131.879 22.6185 132.119 22.6665ZM130.391 23.6265H130.487C130.679 23.0025 131.207 22.5705 131.879 22.5225C132.455 22.5225 132.887 22.7145 133.319 23.0985C132.935 22.6665 132.455 22.4265 131.831 22.4265C131.111 22.4745 130.535 23.0025 130.391 23.6265ZM132.167 22.3305L132.119 22.2825C132.695 22.3785 133.223 22.6185 133.607 23.1945C133.271 22.6185 132.743 22.3305 132.119 22.2345C131.831 22.1865 131.399 22.2345 131.063 22.4265C130.727 22.6185 130.487 22.9065 130.343 23.2425C130.535 22.9065 130.775 22.6665 131.111 22.5225C131.447 22.3305 131.879 22.2825 132.167 22.3305ZM154.716 42.3945L154.428 42.4425C154.668 42.7785 154.668 43.1145 154.668 43.3545C154.62 44.3145 153.996 45.0345 153.324 45.5625C152.652 46.0425 151.788 46.3785 150.876 46.4265C150.012 46.4745 149.1 46.2825 148.332 45.9465C147.564 45.6105 146.892 45.1305 146.268 44.6505C144.876 43.4505 143.916 42.0585 143.004 40.7625C142.62 40.2345 142.236 39.6585 141.804 39.1305C141.948 40.8585 142.284 42.4905 142.86 43.9785C143.1 44.5065 143.916 45.6105 142.956 46.1865C142.62 46.3785 142.188 46.2345 141.852 46.0905C140.988 45.6585 140.268 44.9385 139.74 44.1225C138.972 43.0185 138.492 41.8185 138.06 40.5705C137.82 39.8505 137.724 39.1305 137.628 38.4105C137.244 35.6265 137.484 32.8905 137.724 30.2505C138.012 27.1785 138.444 24.1545 138.444 21.2265C138.492 19.5945 138.348 17.9145 137.868 16.5225C137.724 16.1865 137.58 15.7545 137.82 15.4185C138.108 15.0345 138.78 14.9385 139.116 14.8905C140.22 14.7465 141.516 15.0825 142.523 16.1385C143.148 16.8585 143.532 17.7225 143.676 18.5865C143.82 19.4505 143.82 20.4105 143.724 21.3225C143.532 23.7705 143.196 25.8345 142.956 27.3225C142.716 28.7625 142.572 29.6745 142.572 29.7225C142.572 29.7705 142.572 29.8185 142.572 29.8665C143.628 28.6185 144.78 27.7065 145.788 27.1305C146.508 26.6985 147.228 26.4105 147.756 26.2665C150.299 25.4985 153.228 26.5545 154.092 29.2425C154.476 30.4425 154.236 31.6905 153.756 32.6025C152.796 34.5225 150.78 35.7705 149.004 36.8265C148.476 37.1145 147.948 37.4025 147.42 37.6425C147.468 37.7385 147.516 37.8825 147.564 38.0265C148.14 39.2265 148.812 40.7145 149.868 41.5305C150.876 42.3465 152.22 42.3945 153.42 42.0105C153.66 41.9145 154.092 41.4825 154.716 42.3945ZM140.076 32.6505L139.98 32.6025C139.932 32.9865 139.932 33.3705 139.932 33.7065C139.98 33.6105 140.028 33.5145 140.076 33.4185C140.076 33.1785 140.076 32.9385 140.124 32.6985C140.268 30.8265 140.508 28.9065 140.7 26.9865C140.46 28.9065 140.22 30.7785 140.076 32.6505ZM140.172 32.8905H140.076C140.268 30.5385 140.556 28.1385 140.796 25.7385C140.508 28.2345 140.172 30.7305 140.028 33.1785C140.076 33.0825 140.124 32.9865 140.172 32.8905ZM140.892 26.7465L140.844 26.8425C140.604 28.7625 140.364 30.6825 140.22 32.6025C140.268 32.5065 140.316 32.4105 140.364 32.3145C140.508 30.4905 140.7 28.6185 140.892 26.7465ZM140.124 38.1225L140.076 37.9785C140.076 37.6425 140.076 37.3065 140.076 36.9705C140.076 37.3545 140.076 37.7385 140.124 38.1225ZM139.788 36.4425V36.2985C139.788 36.5385 139.788 36.7785 139.788 37.0185C139.788 36.8265 139.788 36.6345 139.788 36.4425ZM139.692 36.0105H139.644C139.644 35.9625 139.596 35.9145 139.596 35.8665C139.596 36.5865 139.596 37.3545 139.692 38.0745C139.644 37.4025 139.692 36.6825 139.692 36.0105ZM141.66 45.8505L141.564 45.8025C139.98 44.6985 138.54 42.6345 137.82 39.9945C137.532 39.1305 137.436 38.2665 137.292 37.4505C137.196 36.6345 137.148 35.8665 137.148 35.1465C137.1 37.0185 137.244 39.4665 138.396 41.9625C138.636 42.3945 138.876 42.8265 139.116 43.2105C139.355 43.5945 139.692 43.9305 139.932 44.2665C140.22 44.6025 140.46 44.9385 140.796 45.1785C141.084 45.4185 141.372 45.6585 141.66 45.8505ZM141.036 16.5225C141.324 17.1465 141.612 17.8665 141.756 18.5865C141.9 19.3065 141.996 20.0745 141.996 20.7945C141.996 21.5625 141.996 22.3305 141.948 23.0985C141.996 22.7145 142.044 22.3305 142.092 21.9465V20.7945C142.092 20.0265 141.996 19.2105 141.852 18.4905C141.708 17.7705 141.42 17.0505 141.132 16.4265C140.796 15.8025 140.316 15.2745 139.836 14.9865C140.268 15.3225 140.748 15.8985 141.036 16.5225ZM141.516 31.4505C141.756 31.0185 142.044 30.5865 142.38 30.1545C142.14 30.4425 141.9 30.7305 141.66 31.0185C141.612 31.0665 141.564 31.1145 141.516 31.1625C141.516 31.2585 141.516 31.3545 141.516 31.4505ZM150.492 43.2105C149.052 43.0185 147.756 42.0105 146.652 40.7625C147.66 42.1065 149.052 43.1625 150.492 43.2105ZM151.308 28.7625L151.356 28.8105C151.644 29.2425 151.836 29.7705 151.836 30.2985C151.836 30.8265 151.692 31.3545 151.452 31.7865C150.972 32.6985 150.252 33.3225 149.58 33.8505C150.252 33.3225 151.02 32.6985 151.5 31.7865C151.74 31.3545 151.884 30.8265 151.884 30.2505C151.884 29.6745 151.692 29.0985 151.356 28.6665C151.02 28.2345 150.588 27.8985 150.108 27.6585C149.58 27.4185 149.004 27.3705 148.523 27.4185C147.516 27.5625 146.7 28.0425 145.98 28.5705C146.7 28.0905 147.564 27.6585 148.572 27.5625C149.052 27.5145 149.58 27.5625 150.06 27.8025C150.54 27.9945 150.972 28.3305 151.308 28.7625ZM148.332 27.2265V27.2745C147.228 27.4665 146.412 27.9945 145.644 28.5225C146.412 27.9945 147.276 27.5145 148.38 27.3225C148.908 27.2265 149.484 27.2265 150.06 27.4185C150.636 27.6105 151.116 27.9465 151.5 28.3785C151.884 28.8105 152.172 29.3865 152.22 30.0105C152.316 30.6345 152.172 31.2585 151.932 31.7865C151.452 32.7945 150.684 33.4665 150.012 34.0425C150.732 33.5145 151.5 32.8425 151.98 31.7865C152.22 31.2585 152.364 30.6345 152.268 30.0105C152.22 29.3865 151.932 28.8105 151.548 28.3305C151.164 27.8505 150.636 27.5145 150.06 27.3225C149.436 27.1305 148.859 27.1305 148.332 27.2265ZM147.372 27.8025V27.8505C146.46 28.2345 145.74 28.7625 145.02 29.3385C145.74 28.7625 146.46 28.2825 147.372 27.8985C148.236 27.5625 149.436 27.4185 150.444 27.9945C150.924 28.2345 151.308 28.6185 151.596 29.0985C151.884 29.5785 152.028 30.1545 151.98 30.7305C151.884 31.8825 151.212 32.7465 150.54 33.3705C151.212 32.7465 151.932 31.8825 152.028 30.6825C152.076 30.1065 151.932 29.4825 151.644 29.0025C151.356 28.5225 150.924 28.1385 150.444 27.8505C149.964 27.5625 149.34 27.4185 148.812 27.4665C148.284 27.4665 147.804 27.6105 147.372 27.8025ZM145.02 33.9465L145.068 33.8505C144.828 34.3305 144.636 34.8105 144.492 35.3385C144.876 34.9545 145.26 34.5705 145.644 34.2345C146.46 33.4665 147.276 32.6985 148.092 31.9305C148.428 31.5945 149.052 31.1145 149.148 30.6345C149.244 30.1545 148.428 30.5865 148.284 30.6825C147.852 30.8745 147.42 31.1145 147.036 31.4505C146.22 32.1225 145.5 32.9865 145.02 33.9465ZM144.3 36.2025H144.396C145.356 35.3385 146.364 34.3785 147.42 33.3225C147.9 32.8425 148.38 32.3625 148.859 31.8825C149.244 31.4505 149.532 31.0665 149.628 30.7785C149.436 31.1145 149.004 31.5945 148.332 32.2185C147.66 32.8425 146.94 33.5145 146.172 34.2825C145.5 34.9065 144.876 35.4825 144.3 36.0585C144.3 36.1065 144.3 36.1545 144.3 36.2025ZM145.836 37.9305L145.932 38.0745C146.028 38.1705 146.124 38.2665 146.22 38.3625C146.412 38.6025 146.604 38.8425 146.796 39.0825L146.556 38.6505C146.46 38.5065 146.364 38.3625 146.268 38.2185C146.172 38.1225 146.076 38.0265 145.98 37.9305C145.932 37.9305 145.884 37.9305 145.836 37.9305ZM150.348 43.6425H150.444C148.908 43.3065 147.612 42.1545 146.508 40.8105C147.468 42.2025 148.812 43.4025 150.348 43.6425ZM146.796 41.2905L146.748 41.2425C147.804 42.6345 149.292 43.7385 150.924 43.7865C149.34 43.6425 147.948 42.5865 146.796 41.2905ZM152.844 45.2265L152.796 45.1785C153.708 44.5545 154.188 43.6905 154.428 42.9225C154.092 43.8825 153.324 45.0345 151.836 45.6105C150.876 45.9945 149.772 45.9465 148.908 45.6585C149.916 46.0905 151.596 46.1385 152.844 45.2265ZM174.792 44.4105L174.984 44.5065C175.224 44.9385 175.176 45.4665 174.936 45.8505C174.744 46.1385 174.456 46.3305 174.072 46.3785C173.496 46.4265 172.92 46.1865 172.44 45.8025C171.96 45.4185 171.576 44.9385 171.24 44.4585C170.664 43.6425 170.328 42.7305 170.04 41.8665C169.752 42.5385 169.416 43.2105 168.936 43.8345C167.16 46.2825 163.944 47.4825 161.112 46.0905C158.328 44.6025 157.368 41.7705 157.08 39.5145C156.696 36.9705 156.792 34.2345 157.464 31.7385C157.8 30.4425 158.28 29.0985 159.096 27.8025C160.488 25.6425 162.984 24.1065 165.576 24.1065C166.536 24.1065 167.448 24.2505 168.312 24.5385C168.648 24.6345 168.984 24.7785 169.32 24.9225C169.368 24.7785 169.464 24.6825 169.608 24.5865C169.992 24.3945 170.616 24.5385 170.952 24.6345C172.056 24.9225 173.16 25.5945 173.832 26.4105C174.792 27.5145 174.6 28.5705 174.408 29.6745C174.168 31.1625 173.976 32.5065 173.88 33.4665C173.784 34.4265 173.736 35.0025 173.736 35.0025C173.592 36.7305 173.64 38.4585 173.832 40.1385C174.024 41.8185 174.312 43.4985 174.792 44.4105ZM164.76 28.5225H164.808C164.136 28.7625 163.608 29.1465 163.128 29.7225C163.224 29.5305 163.368 29.4345 163.512 29.2905C163.56 29.2425 163.608 29.1945 163.656 29.1465L163.896 29.0505C164.04 28.9545 164.184 28.8585 164.328 28.8105C164.472 28.7625 164.616 28.6665 164.808 28.6665C165 28.6185 165.192 28.5705 165.384 28.5225C165.576 28.4745 165.72 28.4265 165.912 28.4265C166.296 28.4265 166.68 28.4745 167.064 28.5705C167.784 28.6665 168.504 28.9545 169.176 29.2905C169.224 29.2425 169.272 29.1945 169.32 29.1945C168.6 28.8105 167.832 28.5225 167.016 28.3785C166.2 28.2345 165.48 28.2825 164.76 28.5225ZM162.984 31.2585L162.936 31.2105C161.64 33.7065 161.256 37.1625 161.88 39.8985C162.072 40.8105 162.648 42.2025 163.704 42.3465C164.952 42.4905 166.008 40.9545 166.488 39.9945C167.208 38.5065 167.304 36.9705 167.736 35.4345L168.216 32.4585C168.312 31.8825 168.408 30.8265 168.696 30.0585C166.584 29.4345 164.136 28.8105 162.984 31.2585ZM163.512 43.4985V43.4505C162.504 43.3545 161.592 42.5385 161.016 41.4345C160.728 40.8585 160.536 40.2825 160.44 39.6105C160.296 38.9385 160.248 38.2665 160.2 37.5945C160.104 36.2025 160.152 34.8105 160.392 33.4665C160.152 34.8105 160.056 36.2025 160.104 37.5945C160.152 38.2665 160.2 38.9865 160.344 39.6585C160.44 40.3305 160.632 40.9065 160.92 41.4825C161.496 42.5865 162.456 43.4505 163.512 43.5465C164.52 43.6905 165.624 43.0665 166.44 42.1065C165.624 43.0665 164.52 43.6425 163.512 43.4985ZM160.488 31.9785V32.0745C160.104 33.4185 159.912 34.8105 159.864 36.2025C159.816 37.5945 159.912 39.0345 160.248 40.3305C160.584 41.5785 161.304 42.7785 162.36 43.4025C163.416 44.0265 164.664 43.8825 165.672 43.1145C164.616 43.8345 163.368 43.9305 162.36 43.3065C161.352 42.6825 160.632 41.4825 160.296 40.2345C159.96 38.9385 159.864 37.4985 159.912 36.1065C159.96 34.7145 160.104 33.3225 160.488 31.9785ZM160.728 41.9625H160.776C161.4 43.1145 162.504 43.9785 163.704 44.0265C164.904 44.0745 166.104 43.2585 166.92 42.2025C166.104 43.2105 164.904 43.9785 163.704 43.9305C162.504 43.8825 161.448 43.0185 160.824 41.8665C160.488 41.2905 160.248 40.6665 160.104 40.0425C159.96 39.3705 159.864 38.6985 159.816 37.9785C159.72 36.5865 159.768 35.1465 159.96 33.7545C159.72 35.1465 159.624 36.5865 159.72 37.9785C159.768 38.6985 159.864 39.4185 160.008 40.0905C160.152 40.7625 160.392 41.3865 160.728 41.9625ZM168.792 43.4985H168.744C169.224 42.8265 169.608 42.0585 169.896 41.2905C169.896 41.1945 169.896 41.0985 169.896 41.0025C169.464 42.2985 168.792 43.5465 167.784 44.5545C166.728 45.6105 165.192 46.4265 163.512 46.3305C164.52 46.4265 165.624 46.1385 166.536 45.6105C167.448 45.0825 168.216 44.3625 168.792 43.4985ZM173.208 26.5545H173.112C172.92 26.1225 172.632 25.6905 172.248 25.3545C172.584 25.7385 172.824 26.1705 173.016 26.6025C173.208 27.0345 173.352 27.5145 173.448 27.9945C173.496 28.2345 173.544 28.4745 173.544 28.7145C173.592 28.8105 173.64 28.9545 173.688 29.0985C173.688 28.7145 173.688 28.3305 173.64 27.9465C173.544 27.4665 173.4 26.9865 173.208 26.5545ZM172.776 40.9545H172.728C172.392 38.4105 172.296 35.8185 172.344 33.2265C172.2 35.8185 172.296 38.4105 172.776 40.9545ZM172.104 32.5545C171.912 35.1465 171.96 37.7865 172.392 40.3305C172.104 37.7385 172.056 35.1465 172.104 32.5545ZM171.96 33.3705H172.008C171.864 35.9625 171.96 38.6025 172.44 41.1465C172.056 38.5545 171.96 35.9625 171.96 33.3705ZM170.04 40.5705C170.04 40.5225 170.04 40.4745 170.04 40.4265C170.04 40.3305 170.04 40.2345 170.04 40.1385C170.04 40.1865 170.04 40.2345 170.04 40.2825C170.04 40.3785 170.04 40.4745 170.04 40.5705ZM171.336 44.0745H171.288C172.056 45.2745 173.256 46.1385 174.216 46.1865C173.592 46.1385 172.872 45.7065 172.296 45.0825C171.672 44.4585 171.192 43.6425 170.808 42.7785C170.568 42.2505 170.376 41.7225 170.232 41.1945C170.232 41.2425 170.232 41.2905 170.232 41.3385C170.424 42.2025 170.76 43.1145 171.336 44.0745ZM188.606 35.6745L188.654 35.4825C188.99 37.8825 188.222 40.3305 187.118 42.4905C186.638 43.4505 186.11 44.3625 185.342 45.0825C183.374 46.9065 180.542 46.4265 178.958 44.3625C177.038 41.8185 177.374 38.1705 177.614 35.1945C177.95 30.9705 178.814 26.9865 178.67 23.2425C178.574 21.1785 178.19 19.0185 177.23 17.4345C176.99 17.0505 176.702 16.5705 176.798 16.1385C176.942 15.6105 177.518 15.3225 177.854 15.1785C178.862 14.7465 180.398 14.8905 181.694 16.1385C182.558 16.9545 183.134 18.0585 183.422 19.2585C183.71 20.4585 183.758 21.7545 183.758 23.0025C183.71 26.4105 183.182 29.1945 182.846 31.1145C182.51 33.0345 182.174 35.0025 181.982 36.9705C181.886 38.2185 181.358 40.6665 182.366 41.6745C182.894 42.2025 183.518 41.2905 183.806 40.9065C185.102 39.1785 185.966 37.2105 186.926 35.2905C187.118 34.9545 187.358 34.5705 187.742 34.5705C187.838 34.5705 187.934 34.5705 188.03 34.6185C188.366 34.8105 188.558 35.2905 188.606 35.6745ZM180.494 40.2825L180.398 40.1865C180.302 39.0345 180.302 37.7865 180.35 36.5385C180.494 34.0425 180.878 31.5465 181.166 29.0025C180.83 31.5465 180.446 34.0425 180.302 36.5385C180.254 37.7865 180.254 39.0825 180.398 40.2825C180.446 40.8585 180.59 41.4345 180.782 41.9145C180.974 42.3465 181.262 42.7305 181.646 43.0185C181.31 42.7305 181.07 42.3465 180.878 41.9145C180.686 41.4345 180.542 40.8585 180.494 40.2825ZM180.206 38.0265H180.158C180.158 35.5305 180.494 33.0345 180.782 30.4905C180.398 32.9865 180.062 35.4825 180.062 37.9785C180.062 39.2265 180.11 40.4745 180.494 41.5305C180.686 42.0585 180.926 42.4905 181.262 42.8265C181.598 43.1625 182.078 43.4025 182.558 43.4025C182.078 43.4025 181.598 43.1625 181.262 42.8265C180.926 42.4905 180.686 42.0585 180.542 41.5785C180.206 40.5225 180.206 39.2745 180.206 38.0265ZM182.414 43.0185C181.982 42.9705 181.646 42.7305 181.406 42.4425C181.262 42.2985 181.166 42.1065 181.07 41.9145C181.022 41.8185 180.974 41.7225 180.926 41.6265C180.878 41.5305 180.83 41.3865 180.782 41.2425C180.494 40.2345 180.494 38.9865 180.494 37.7385C180.542 35.2905 180.878 32.7945 181.166 30.2505C180.83 32.7945 180.446 35.2905 180.398 37.7385C180.398 38.9865 180.398 40.2345 180.686 41.2425C180.734 41.3865 180.782 41.5305 180.83 41.6265C180.878 41.7225 180.926 41.8185 180.974 41.9145C181.07 42.1065 181.166 42.2985 181.31 42.4425C181.598 42.7305 181.982 42.9705 182.414 43.0185ZM181.07 16.7145L181.118 16.8585C180.59 16.0905 179.966 15.5145 179.39 15.2745C179.966 15.6105 180.542 16.2825 181.022 17.0505C181.502 17.8185 181.886 18.7305 182.174 19.6905C182.462 20.6505 182.606 21.6585 182.702 22.6665C182.798 23.6745 182.798 24.6825 182.75 25.6905C182.798 25.1625 182.846 24.6345 182.894 24.1065C182.894 23.5785 182.894 23.0505 182.846 22.5225C182.75 21.4665 182.606 20.4105 182.318 19.4025C182.03 18.4425 181.598 17.4825 181.07 16.7145ZM187.022 41.8185L186.878 41.9145C187.886 39.5625 188.222 37.3545 188.222 35.5305C188.174 36.7785 187.982 38.1705 187.55 39.6585C187.358 40.3785 187.118 41.1465 186.782 41.9145C186.638 42.2985 186.446 42.6825 186.254 43.0665C186.014 43.4985 185.822 43.8345 185.39 44.3145C184.862 44.9385 184.19 45.4665 183.47 45.7065C182.75 45.9945 181.934 45.9945 181.214 45.7065C180.494 45.4665 179.87 44.9865 179.39 44.4105C179.15 44.1225 178.958 43.7865 178.766 43.4505C178.574 43.1145 178.43 42.7305 178.334 42.4905C178.43 42.8265 178.622 43.3545 178.862 43.7385C179.102 44.1705 179.438 44.5545 179.822 44.8905C180.59 45.5625 181.646 46.0425 182.75 45.9465C183.854 45.8505 184.862 45.1785 185.63 44.2665C186.35 43.3545 186.638 42.6345 187.022 41.8185ZM205.955 31.7385H206.003C206.243 32.9865 206.339 34.2825 206.291 35.5785C206.243 37.1145 205.955 38.6505 205.427 40.1385C204.707 42.1545 203.507 44.0745 201.779 45.3225C199.715 46.8105 197.075 47.0505 194.867 45.7545C191.411 43.7385 190.259 39.6105 190.259 35.8665C190.259 35.0025 190.307 34.1385 190.355 33.2745C190.403 32.5065 190.595 31.4505 191.027 30.9225C191.555 30.2985 192.179 30.5865 192.467 30.7305C193.523 31.2105 194.339 32.6505 194.867 34.4265C195.203 35.6265 195.395 36.7785 195.635 37.8345C195.923 39.0345 196.355 40.6185 197.459 41.3865C199.283 42.6345 200.867 39.0345 201.251 37.7865C201.443 37.2105 201.491 36.8745 201.491 36.8745C201.635 36.2505 201.683 35.6265 201.731 35.0025C201.443 35.0985 201.155 35.1465 200.867 35.1465C199.715 35.1945 198.419 35.0025 197.171 34.4745C195.923 33.9945 194.675 33.1785 193.763 31.9305C193.331 31.3065 192.947 30.5865 192.803 29.8185C192.611 29.0505 192.611 28.1865 192.851 27.2745C193.091 26.3625 193.667 25.5465 194.435 24.9705C195.251 24.3465 196.067 24.1065 196.883 23.9625C198.467 23.7225 199.955 23.9625 201.395 24.6345C202.115 24.9705 202.835 25.4505 203.363 26.0745C203.891 26.6505 204.323 27.2745 204.659 27.8985C205.331 29.1465 205.715 30.4425 205.955 31.7385ZM195.683 40.9065H195.587C196.115 41.6265 196.835 42.2025 197.411 42.3465C197.123 42.2505 196.787 42.0585 196.499 41.7705C196.163 41.5305 195.875 41.1945 195.635 40.8105C195.155 40.0905 194.771 39.1305 194.531 38.1225C194.243 37.1145 194.099 36.0105 193.955 35.0025C193.811 33.9945 193.715 32.9865 193.475 32.2665C193.667 33.0825 193.715 34.1385 193.859 35.1465C194.003 36.2025 194.147 37.2585 194.435 38.2665C194.723 39.2265 195.155 40.1865 195.683 40.9065ZM197.267 34.1385L197.123 34.2825C198.467 34.8105 199.763 35.0025 200.915 35.0505C199.331 34.9065 197.507 34.5225 195.779 33.4185C194.915 32.8425 194.051 32.0745 193.523 30.9225C193.283 30.3465 193.091 29.7225 193.091 29.0505C192.995 28.3785 193.139 27.5625 193.427 26.8425C193.859 25.8825 194.771 25.1625 195.683 24.8265C196.595 24.4905 197.507 24.3945 198.371 24.4425C200.051 24.5385 201.731 25.2105 202.883 26.4585C202.211 25.6905 201.203 25.0185 200.147 24.6825C199.091 24.3465 197.891 24.2025 196.643 24.4425C196.019 24.5865 195.395 24.7785 194.771 25.2105C194.147 25.5945 193.667 26.2185 193.331 26.8905C193.187 27.2265 193.043 27.5625 192.995 27.9465L192.947 28.5225L192.995 29.0505C192.995 29.7225 193.235 30.3945 193.523 31.0185C193.955 31.8825 194.579 32.5545 195.251 33.0345C195.923 33.5145 196.595 33.8985 197.267 34.1385ZM201.107 33.5625L201.155 33.6585C201.251 33.7065 201.347 33.7545 201.443 33.8025C201.395 33.0345 201.299 32.2665 201.107 31.5465C200.867 30.6825 200.483 29.9145 200.003 29.3385C199.619 28.8105 198.995 28.5225 198.371 28.3785C197.843 28.2345 196.979 28.1865 196.547 28.6185C195.875 29.2425 196.643 30.5865 197.075 31.0665C197.603 31.6425 198.323 32.2185 199.187 32.6505C199.619 32.8905 200.435 33.2265 201.107 33.5625ZM202.691 32.6985L202.595 32.8425C203.171 35.8665 202.691 39.1305 201.059 41.6265C202.739 39.1305 203.267 35.8185 202.691 32.7945C202.403 31.2585 201.875 29.7705 200.963 28.6665C200.147 27.6585 198.707 27.1305 197.363 27.2265C198.707 27.1785 200.147 27.7065 200.963 28.7145C201.875 29.7705 202.403 31.2105 202.691 32.6985ZM200.243 42.9225L200.195 42.8265C201.299 41.8665 202.067 40.4265 202.547 38.9385C203.027 37.4505 203.219 35.8665 203.123 34.2825C203.027 32.6985 202.691 31.1145 202.019 29.7705C201.683 29.0985 201.251 28.4745 200.723 28.0425C200.195 27.6105 199.523 27.2745 198.803 27.1305C199.523 27.3225 200.195 27.6585 200.675 28.0905C201.203 28.5225 201.635 29.1465 201.971 29.8185C202.643 31.1625 202.979 32.7465 203.075 34.3305C203.171 35.9145 202.979 37.4985 202.499 38.9865C202.019 40.4745 201.299 41.9145 200.243 42.9225ZM201.491 41.4825H201.539C203.219 38.8425 203.699 35.4345 203.027 32.3145C202.691 30.7785 202.067 29.2905 201.011 28.1865C200.051 27.1785 198.419 26.6985 196.979 26.8905C198.419 26.7465 200.003 27.2265 200.963 28.2345C201.971 29.3385 202.547 30.8265 202.883 32.3625C203.555 35.4345 203.123 38.7945 201.491 41.4825ZM227.122 44.1705L227.026 44.2185C227.17 44.6025 227.362 45.0825 227.17 45.4665C226.978 45.9465 226.354 46.1385 226.018 46.2345C224.962 46.5705 223.474 46.2345 222.418 44.8425C221.698 43.9305 221.362 42.7785 221.218 41.6265C221.026 40.0905 221.266 38.5065 221.41 36.9705C221.602 35.0505 221.986 33.1305 221.986 31.2105C221.986 30.2985 221.602 29.8185 220.93 30.6345C220.21 31.4505 219.682 32.4105 219.154 33.3705C217.954 35.5785 216.946 37.8825 216.034 40.2345C215.65 41.1945 215.266 42.1545 214.93 43.1145C214.69 43.8345 214.546 45.2265 213.73 45.5145C212.482 45.9465 211.234 44.6505 210.562 43.8345C210.034 43.2105 209.602 42.4905 209.314 41.7225C208.786 40.2825 208.594 38.7465 208.498 37.2105C208.354 35.4345 208.45 33.6585 208.546 31.8825C208.594 30.8745 208.69 29.8185 208.594 28.7625C208.594 28.5225 208.594 28.1865 208.93 28.0905C209.314 27.9465 209.938 28.1385 210.274 28.2345C211.33 28.6185 212.434 29.2905 213.106 30.0105C214.018 30.9705 213.826 31.7385 213.682 32.5545C213.442 33.6585 213.298 34.6185 213.202 35.3385C213.106 36.0585 213.058 36.4905 213.058 36.4905C213.01 36.9225 213.01 37.3545 213.01 37.7865C213.346 36.2985 213.778 34.8585 214.354 33.4185C215.362 30.8265 216.658 27.5625 219.058 25.9305C220.258 25.1625 221.65 24.7305 222.994 25.0185C226.258 25.6905 226.834 29.8185 226.834 32.5545C226.834 34.4745 226.642 36.3465 226.546 38.2185C226.45 40.3785 226.45 42.5385 227.122 44.1705ZM212.29 30.0585L212.242 29.9145C212.05 29.5305 211.81 29.1465 211.474 28.8585C211.81 29.1945 212.002 29.5785 212.194 29.9625C212.386 30.3465 212.53 30.7305 212.578 31.1145C212.674 31.4985 212.674 31.8825 212.674 32.2665C212.674 32.6505 212.674 33.0345 212.674 33.4185L212.77 32.8905L212.818 32.3625C212.818 31.9785 212.818 31.5945 212.722 31.2105C212.626 30.8265 212.482 30.4425 212.29 30.0585ZM212.05 40.8105C211.666 38.8905 211.474 36.9225 211.474 34.9545C211.378 36.9225 211.57 38.8905 212.05 40.8105ZM211.282 34.4265C211.138 36.3945 211.282 38.4105 211.714 40.3305C211.378 38.3625 211.234 36.3945 211.282 34.4265ZM211.138 35.0505H211.09C210.994 37.0665 211.186 39.0825 211.714 41.0025C211.33 39.0345 211.138 37.0665 211.138 35.0505ZM210.562 43.3545V43.4025C211.234 44.2665 212.05 44.8905 212.818 45.3225C211.858 44.6985 210.898 43.7385 210.13 42.4425C209.602 41.5785 209.314 40.7145 209.122 39.8985C209.266 40.9065 209.65 42.1545 210.562 43.3545ZM213.97 35.8185V35.7225C214.594 33.5625 215.506 31.5945 216.322 30.0105C215.17 32.0265 213.922 34.8585 213.298 38.1225C213.202 38.5065 213.154 38.8905 213.106 39.2745C213.106 39.4185 213.106 39.5625 213.106 39.7065C213.298 38.4585 213.586 37.1625 213.97 35.8185ZM218.242 31.1145L218.338 31.2585C217.762 32.3625 217.186 33.4185 216.706 34.5225C217.234 33.4185 217.81 32.3625 218.386 31.2585C218.674 30.7305 218.962 30.2025 219.298 29.7225C219.442 29.4825 219.634 29.2425 219.826 29.0505C219.97 28.8585 220.114 28.7145 220.306 28.5705C220.69 28.2825 221.122 28.0425 221.554 27.8985C221.986 27.7545 222.514 27.8505 222.85 28.1865C223.186 28.5225 223.378 28.9545 223.522 29.3865C223.666 29.8185 223.762 30.3945 223.81 30.9705C223.762 30.3945 223.666 29.8185 223.522 29.3865C223.378 28.9065 223.186 28.4265 222.85 28.0905C222.514 27.7545 221.986 27.6105 221.506 27.7545C221.026 27.8985 220.594 28.1385 220.21 28.4265C220.018 28.5705 219.874 28.7145 219.682 28.9065C219.49 29.0985 219.298 29.3385 219.154 29.5785C218.818 30.0585 218.53 30.5865 218.242 31.1145ZM223.762 32.5065V32.6025C223.762 32.0265 223.762 31.4505 223.714 30.8745C223.666 30.5865 223.618 30.2985 223.57 30.0585C223.522 29.8185 223.474 29.5785 223.378 29.3385C223.234 28.9065 222.994 28.4745 222.61 28.2345C222.226 27.9465 221.698 27.9465 221.266 28.0905C219.538 28.5705 218.53 31.1145 217.378 33.2265C218.578 31.1145 219.634 28.6185 221.266 28.1865C221.65 28.0425 222.13 28.0425 222.514 28.2825C222.898 28.5225 223.138 28.9065 223.282 29.3385C223.378 29.5305 223.426 29.7225 223.474 29.9625C223.522 30.2025 223.57 30.4905 223.618 30.7785C223.714 31.3545 223.762 31.9305 223.762 32.5065ZM221.698 28.4745H221.65C222.034 28.4265 222.418 28.5705 222.658 28.8585C223.138 29.4825 223.282 30.1545 223.426 31.4025C223.33 30.1545 223.234 29.4825 222.754 28.8105C222.514 28.4745 222.082 28.2825 221.698 28.3305C221.314 28.3785 220.93 28.5705 220.594 28.8105C220.018 29.1945 219.346 30.2505 218.818 31.3065C218.242 32.4105 217.666 33.4665 217.186 34.5705C217.714 33.5145 218.29 32.4585 218.866 31.4025C219.394 30.3945 220.114 29.3385 220.642 28.9545C220.978 28.7145 221.314 28.5225 221.698 28.4745ZM222.946 44.2665V44.3145C223.33 45.1305 223.858 45.8025 224.386 46.1385C223.858 45.7065 223.378 44.9865 223.042 44.1705C222.706 43.3545 222.466 42.4425 222.322 41.4825C222.178 40.5225 222.178 39.5625 222.178 38.6025C222.178 37.6425 222.226 36.6825 222.274 35.7225L222.13 37.1625L222.034 38.6025C222.034 39.5625 222.034 40.5705 222.178 41.5305C222.322 42.4905 222.562 43.4505 222.946 44.2665ZM249.219 38.1705L249.507 38.0265C249.651 39.0825 249.699 40.1385 249.699 41.2425C249.699 47.2425 248.019 53.8185 244.083 58.4745C243.075 59.6265 241.971 60.7305 240.387 61.5465C239.619 61.9305 238.707 62.2665 237.699 62.3145C236.019 62.4105 234.339 61.7865 233.187 60.5385C230.691 57.8505 231.651 53.1465 233.907 50.6025C234.435 49.9785 235.059 49.6425 235.395 50.1225C235.635 50.4585 235.491 51.1305 235.395 51.6105C235.107 53.4825 234.579 55.6905 235.155 57.0345C235.491 57.8985 236.211 58.3785 237.123 58.2345C238.707 57.9945 240.003 56.5545 240.867 55.3545C241.827 54.1065 242.595 52.5705 243.171 50.9865C244.467 47.2425 244.947 43.0665 244.323 39.1305C244.227 38.4585 244.083 37.7865 243.891 37.1145C243.795 39.2265 243.363 41.5785 241.827 43.6905C240.051 46.1385 236.835 47.3385 234.003 45.9465C231.219 44.4585 230.259 41.6265 229.971 39.3705C229.587 36.8265 229.683 34.0905 230.355 31.5945C230.691 30.2985 231.171 28.9545 231.987 27.6585C233.379 25.4985 235.875 23.9625 238.467 23.9625C239.427 23.9625 240.339 24.1065 241.203 24.3945C242.979 24.9705 244.611 26.0265 245.811 27.7065C246.387 28.4745 246.915 29.8665 246.675 30.7305C246.579 31.0185 246.483 31.2105 246.339 31.3545C248.163 32.9385 248.931 35.5785 249.219 38.1705ZM237.747 28.2825H237.795C237.123 28.5225 236.547 28.9545 236.115 29.4825C237.123 28.4265 238.611 28.0425 240.051 28.3305C240.771 28.4265 241.491 28.7145 242.163 29.0505C242.211 29.0025 242.259 28.9545 242.307 28.9545C241.587 28.5705 240.819 28.2825 240.003 28.1385C239.187 27.9945 238.467 28.0425 237.747 28.2825ZM235.971 31.0185L235.923 30.9705C234.627 33.4665 234.243 36.9225 234.867 39.6585C235.059 40.5705 235.635 41.9625 236.691 42.1065C237.939 42.2505 238.995 40.7145 239.475 39.7545C240.195 38.2665 240.291 36.7305 240.723 35.1945L241.203 32.2185C241.299 31.6425 241.395 30.5865 241.683 29.8185C239.571 29.1945 237.123 28.5705 235.971 31.0185ZM236.499 43.2585V43.2105C235.491 43.1145 234.579 42.2985 234.003 41.1945C233.715 40.6185 233.523 40.0425 233.427 39.3705C233.283 38.6985 233.235 38.0265 233.187 37.3545C233.091 35.9625 233.139 34.5705 233.379 33.2265C233.139 34.5705 233.043 35.9625 233.091 37.3545C233.139 38.0265 233.187 38.7465 233.331 39.4185C233.427 40.0905 233.619 40.6665 233.907 41.2425C234.483 42.3465 235.443 43.2105 236.499 43.3065C237.507 43.4505 238.611 42.8265 239.427 41.8665C238.611 42.8265 237.507 43.4025 236.499 43.2585ZM233.475 31.7385V31.8345C233.091 33.1785 232.899 34.5705 232.851 35.9625C232.803 37.3545 232.899 38.7945 233.235 40.0905C233.571 41.3385 234.291 42.5385 235.347 43.1625C236.403 43.7865 237.651 43.6425 238.659 42.8745C237.603 43.5945 236.355 43.6905 235.347 43.0665C234.339 42.4425 233.619 41.2425 233.283 39.9945C232.947 38.6985 232.851 37.2585 232.899 35.8665C232.947 34.4745 233.091 33.0825 233.475 31.7385ZM233.715 41.7225H233.763C234.387 42.8745 235.491 43.7385 236.691 43.7865C237.891 43.8345 239.091 43.0185 239.907 41.9625C239.091 42.9705 237.891 43.7385 236.691 43.6905C235.491 43.6425 234.435 42.7785 233.811 41.6265C233.475 41.0505 233.235 40.4265 233.091 39.8025C232.947 39.1305 232.851 38.4585 232.803 37.7385C232.707 36.3465 232.755 34.9065 232.947 33.5145C232.707 34.9065 232.611 36.3465 232.707 37.7385C232.755 38.4585 232.851 39.1785 232.995 39.8505C233.139 40.5225 233.379 41.1465 233.715 41.7225ZM243.555 37.4505V37.4025C243.603 36.7785 243.603 36.2025 243.603 35.6265C243.555 35.5305 243.507 35.4345 243.459 35.3385C243.507 36.8745 243.459 38.6505 242.931 40.5225C242.499 41.9145 241.827 43.2585 240.723 44.3145C239.667 45.3705 238.131 46.1865 236.451 46.0905C237.459 46.1865 238.563 45.8985 239.475 45.3705C240.387 44.8425 241.155 44.1225 241.731 43.2585C242.931 41.5785 243.459 39.5145 243.555 37.4505ZM243.555 29.9145H243.507C243.555 29.9145 243.603 29.9145 243.651 29.9145C243.507 29.7705 243.363 29.6265 243.219 29.4825C243.267 29.5305 243.267 29.5785 243.267 29.6265C243.363 29.7225 243.459 29.8185 243.555 29.9145ZM237.411 58.5225L237.363 58.6185C237.795 58.5225 238.179 58.3305 238.563 58.0905C239.283 57.6585 239.859 57.0345 240.435 56.4585C239.811 57.0345 239.187 57.6585 238.419 58.0425C237.267 58.6665 235.683 58.7145 234.963 57.4185C234.483 56.5545 234.387 55.4025 234.531 54.2985C234.627 53.1945 234.867 52.1385 235.203 51.1785C234.723 52.4745 234.387 53.9145 234.387 55.4025C234.387 56.1225 234.531 56.8425 234.867 57.4185C235.155 57.9945 235.683 58.3785 236.259 58.5225C236.643 58.6185 237.027 58.6185 237.411 58.5225ZM242.019 58.1385H241.971C240.963 59.1465 239.811 60.1065 238.275 60.5385C239.811 60.1545 241.011 59.1945 242.019 58.1865C243.027 57.1305 243.843 55.9305 244.515 54.6825C245.859 52.1865 246.675 49.4505 247.059 46.6665C246.579 49.4025 245.763 52.1385 244.467 54.6345C243.795 55.8825 242.979 57.0825 242.019 58.1385ZM247.395 44.9865L247.443 45.0345C247.155 47.8185 246.483 50.5545 245.379 53.1465C244.275 55.7385 242.691 58.2825 240.147 59.9625C242.691 58.3305 244.323 55.7865 245.427 53.1945C246.531 50.5545 247.155 47.7705 247.395 44.9865ZM245.043 54.6825V54.6345C246.339 52.0425 247.107 49.2585 247.491 46.4745C247.059 49.2585 246.243 51.9945 244.947 54.5385C244.323 55.8345 243.507 57.0825 242.499 58.1865C241.491 59.2905 240.291 60.2985 238.755 60.8745C240.339 60.3465 241.539 59.3385 242.547 58.2825C243.555 57.2265 244.371 55.9785 245.043 54.6825ZM248.403 37.8825L248.355 37.9305C248.595 39.0345 248.739 40.1385 248.787 41.2905C248.787 40.7145 248.787 40.1385 248.739 39.5625C248.691 38.9865 248.595 38.4105 248.499 37.8345C248.259 36.7305 247.923 35.6265 247.491 34.6185C247.059 33.6105 246.531 32.6985 245.907 31.9305C245.763 31.7385 245.619 31.5465 245.475 31.4025C245.427 31.4025 245.379 31.4025 245.331 31.4025C245.571 31.6425 245.763 31.8825 245.955 32.1705C246.531 32.9385 247.011 33.8505 247.443 34.8105C247.875 35.7705 248.163 36.8265 248.403 37.8825ZM269.526 44.4105L269.718 44.5065C269.958 44.9385 269.91 45.4665 269.67 45.8505C269.478 46.1385 269.19 46.3305 268.806 46.3785C268.23 46.4265 267.654 46.1865 267.174 45.8025C266.694 45.4185 266.31 44.9385 265.974 44.4585C265.398 43.6425 265.062 42.7305 264.774 41.8665C264.486 42.5385 264.15 43.2105 263.67 43.8345C261.894 46.2825 258.678 47.4825 255.846 46.0905C253.062 44.6025 252.102 41.7705 251.814 39.5145C251.43 36.9705 251.526 34.2345 252.198 31.7385C252.534 30.4425 253.014 29.0985 253.83 27.8025C255.222 25.6425 257.718 24.1065 260.31 24.1065C261.27 24.1065 262.182 24.2505 263.046 24.5385C263.382 24.6345 263.718 24.7785 264.054 24.9225C264.102 24.7785 264.198 24.6825 264.342 24.5865C264.726 24.3945 265.35 24.5385 265.686 24.6345C266.79 24.9225 267.894 25.5945 268.566 26.4105C269.526 27.5145 269.334 28.5705 269.142 29.6745C268.902 31.1625 268.71 32.5065 268.614 33.4665C268.518 34.4265 268.47 35.0025 268.47 35.0025C268.326 36.7305 268.374 38.4585 268.566 40.1385C268.758 41.8185 269.046 43.4985 269.526 44.4105ZM259.494 28.5225H259.542C258.87 28.7625 258.342 29.1465 257.862 29.7225C257.958 29.5305 258.102 29.4345 258.246 29.2905C258.294 29.2425 258.342 29.1945 258.39 29.1465L258.63 29.0505C258.774 28.9545 258.918 28.8585 259.062 28.8105C259.206 28.7625 259.35 28.6665 259.542 28.6665C259.734 28.6185 259.926 28.5705 260.118 28.5225C260.31 28.4745 260.454 28.4265 260.646 28.4265C261.03 28.4265 261.414 28.4745 261.798 28.5705C262.518 28.6665 263.238 28.9545 263.91 29.2905C263.958 29.2425 264.006 29.1945 264.054 29.1945C263.334 28.8105 262.566 28.5225 261.75 28.3785C260.934 28.2345 260.214 28.2825 259.494 28.5225ZM257.718 31.2585L257.67 31.2105C256.374 33.7065 255.99 37.1625 256.614 39.8985C256.806 40.8105 257.382 42.2025 258.438 42.3465C259.686 42.4905 260.742 40.9545 261.222 39.9945C261.942 38.5065 262.038 36.9705 262.47 35.4345L262.95 32.4585C263.046 31.8825 263.142 30.8265 263.43 30.0585C261.318 29.4345 258.87 28.8105 257.718 31.2585ZM258.246 43.4985V43.4505C257.238 43.3545 256.326 42.5385 255.75 41.4345C255.462 40.8585 255.27 40.2825 255.174 39.6105C255.03 38.9385 254.982 38.2665 254.934 37.5945C254.838 36.2025 254.886 34.8105 255.126 33.4665C254.886 34.8105 254.79 36.2025 254.838 37.5945C254.886 38.2665 254.934 38.9865 255.078 39.6585C255.174 40.3305 255.366 40.9065 255.654 41.4825C256.23 42.5865 257.19 43.4505 258.246 43.5465C259.254 43.6905 260.358 43.0665 261.174 42.1065C260.358 43.0665 259.254 43.6425 258.246 43.4985ZM255.222 31.9785V32.0745C254.838 33.4185 254.646 34.8105 254.598 36.2025C254.55 37.5945 254.646 39.0345 254.982 40.3305C255.318 41.5785 256.038 42.7785 257.094 43.4025C258.15 44.0265 259.398 43.8825 260.406 43.1145C259.35 43.8345 258.102 43.9305 257.094 43.3065C256.086 42.6825 255.366 41.4825 255.03 40.2345C254.694 38.9385 254.598 37.4985 254.646 36.1065C254.694 34.7145 254.838 33.3225 255.222 31.9785ZM255.462 41.9625H255.51C256.134 43.1145 257.238 43.9785 258.438 44.0265C259.638 44.0745 260.838 43.2585 261.654 42.2025C260.838 43.2105 259.638 43.9785 258.438 43.9305C257.238 43.8825 256.182 43.0185 255.558 41.8665C255.222 41.2905 254.982 40.6665 254.838 40.0425C254.694 39.3705 254.598 38.6985 254.55 37.9785C254.454 36.5865 254.502 35.1465 254.694 33.7545C254.454 35.1465 254.358 36.5865 254.454 37.9785C254.502 38.6985 254.598 39.4185 254.742 40.0905C254.886 40.7625 255.126 41.3865 255.462 41.9625ZM263.526 43.4985H263.478C263.958 42.8265 264.342 42.0585 264.63 41.2905C264.63 41.1945 264.63 41.0985 264.63 41.0025C264.198 42.2985 263.526 43.5465 262.518 44.5545C261.462 45.6105 259.926 46.4265 258.246 46.3305C259.254 46.4265 260.358 46.1385 261.27 45.6105C262.182 45.0825 262.95 44.3625 263.526 43.4985ZM267.942 26.5545H267.846C267.654 26.1225 267.366 25.6905 266.982 25.3545C267.318 25.7385 267.558 26.1705 267.75 26.6025C267.942 27.0345 268.086 27.5145 268.182 27.9945C268.23 28.2345 268.278 28.4745 268.278 28.7145C268.326 28.8105 268.374 28.9545 268.422 29.0985C268.422 28.7145 268.422 28.3305 268.374 27.9465C268.278 27.4665 268.134 26.9865 267.942 26.5545ZM267.51 40.9545H267.462C267.126 38.4105 267.03 35.8185 267.078 33.2265C266.934 35.8185 267.03 38.4105 267.51 40.9545ZM266.838 32.5545C266.646 35.1465 266.694 37.7865 267.126 40.3305C266.838 37.7385 266.79 35.1465 266.838 32.5545ZM266.694 33.3705H266.742C266.598 35.9625 266.694 38.6025 267.174 41.1465C266.79 38.5545 266.694 35.9625 266.694 33.3705ZM264.774 40.5705C264.774 40.5225 264.774 40.4745 264.774 40.4265C264.774 40.3305 264.774 40.2345 264.774 40.1385C264.774 40.1865 264.774 40.2345 264.774 40.2825C264.774 40.3785 264.774 40.4745 264.774 40.5705ZM266.07 44.0745H266.022C266.79 45.2745 267.99 46.1385 268.95 46.1865C268.326 46.1385 267.606 45.7065 267.03 45.0825C266.406 44.4585 265.926 43.6425 265.542 42.7785C265.302 42.2505 265.11 41.7225 264.966 41.1945C264.966 41.2425 264.966 41.2905 264.966 41.3385C265.158 42.2025 265.494 43.1145 266.07 44.0745ZM290.685 44.1705L290.589 44.2185C290.733 44.6025 290.925 45.0825 290.733 45.4665C290.541 45.9465 289.917 46.1385 289.581 46.2345C288.525 46.5705 287.037 46.2345 285.981 44.8425C285.261 43.9305 284.924 42.7785 284.781 41.6265C284.589 40.0905 284.829 38.5065 284.973 36.9705C285.165 35.0505 285.549 33.1305 285.549 31.2105C285.549 30.2985 285.165 29.8185 284.493 30.6345C283.773 31.4505 283.245 32.4105 282.717 33.3705C281.517 35.5785 280.509 37.8825 279.597 40.2345C279.213 41.1945 278.829 42.1545 278.493 43.1145C278.253 43.8345 278.109 45.2265 277.293 45.5145C276.045 45.9465 274.797 44.6505 274.125 43.8345C273.597 43.2105 273.165 42.4905 272.877 41.7225C272.349 40.2825 272.157 38.7465 272.061 37.2105C271.917 35.4345 272.013 33.6585 272.109 31.8825C272.157 30.8745 272.253 29.8185 272.157 28.7625C272.157 28.5225 272.157 28.1865 272.493 28.0905C272.877 27.9465 273.501 28.1385 273.837 28.2345C274.893 28.6185 275.997 29.2905 276.669 30.0105C277.581 30.9705 277.389 31.7385 277.245 32.5545C277.005 33.6585 276.861 34.6185 276.765 35.3385C276.669 36.0585 276.621 36.4905 276.621 36.4905C276.573 36.9225 276.573 37.3545 276.573 37.7865C276.909 36.2985 277.341 34.8585 277.917 33.4185C278.925 30.8265 280.221 27.5625 282.621 25.9305C283.821 25.1625 285.213 24.7305 286.557 25.0185C289.821 25.6905 290.397 29.8185 290.397 32.5545C290.397 34.4745 290.205 36.3465 290.109 38.2185C290.013 40.3785 290.013 42.5385 290.685 44.1705ZM275.853 30.0585L275.805 29.9145C275.613 29.5305 275.373 29.1465 275.037 28.8585C275.373 29.1945 275.565 29.5785 275.757 29.9625C275.949 30.3465 276.093 30.7305 276.141 31.1145C276.237 31.4985 276.237 31.8825 276.237 32.2665C276.237 32.6505 276.237 33.0345 276.237 33.4185L276.333 32.8905L276.381 32.3625C276.381 31.9785 276.381 31.5945 276.285 31.2105C276.189 30.8265 276.045 30.4425 275.853 30.0585ZM275.613 40.8105C275.229 38.8905 275.037 36.9225 275.037 34.9545C274.941 36.9225 275.133 38.8905 275.613 40.8105ZM274.845 34.4265C274.701 36.3945 274.845 38.4105 275.277 40.3305C274.941 38.3625 274.797 36.3945 274.845 34.4265ZM274.701 35.0505H274.653C274.557 37.0665 274.749 39.0825 275.277 41.0025C274.893 39.0345 274.701 37.0665 274.701 35.0505ZM274.125 43.3545V43.4025C274.797 44.2665 275.613 44.8905 276.381 45.3225C275.421 44.6985 274.461 43.7385 273.693 42.4425C273.165 41.5785 272.877 40.7145 272.685 39.8985C272.829 40.9065 273.213 42.1545 274.125 43.3545ZM277.533 35.8185V35.7225C278.157 33.5625 279.069 31.5945 279.885 30.0105C278.733 32.0265 277.485 34.8585 276.861 38.1225C276.765 38.5065 276.717 38.8905 276.669 39.2745C276.669 39.4185 276.669 39.5625 276.669 39.7065C276.861 38.4585 277.148 37.1625 277.533 35.8185ZM281.805 31.1145L281.901 31.2585C281.325 32.3625 280.749 33.4185 280.269 34.5225C280.797 33.4185 281.373 32.3625 281.949 31.2585C282.237 30.7305 282.525 30.2025 282.861 29.7225C283.005 29.4825 283.197 29.2425 283.389 29.0505C283.533 28.8585 283.677 28.7145 283.869 28.5705C284.253 28.2825 284.685 28.0425 285.117 27.8985C285.549 27.7545 286.077 27.8505 286.413 28.1865C286.749 28.5225 286.941 28.9545 287.085 29.3865C287.229 29.8185 287.325 30.3945 287.373 30.9705C287.325 30.3945 287.229 29.8185 287.085 29.3865C286.941 28.9065 286.749 28.4265 286.413 28.0905C286.077 27.7545 285.549 27.6105 285.069 27.7545C284.589 27.8985 284.157 28.1385 283.773 28.4265C283.581 28.5705 283.437 28.7145 283.245 28.9065C283.053 29.0985 282.861 29.3385 282.717 29.5785C282.381 30.0585 282.093 30.5865 281.805 31.1145ZM287.325 32.5065V32.6025C287.325 32.0265 287.325 31.4505 287.277 30.8745C287.229 30.5865 287.181 30.2985 287.133 30.0585C287.085 29.8185 287.037 29.5785 286.941 29.3385C286.797 28.9065 286.557 28.4745 286.173 28.2345C285.789 27.9465 285.261 27.9465 284.829 28.0905C283.101 28.5705 282.093 31.1145 280.941 33.2265C282.141 31.1145 283.197 28.6185 284.829 28.1865C285.213 28.0425 285.693 28.0425 286.077 28.2825C286.461 28.5225 286.701 28.9065 286.845 29.3385C286.941 29.5305 286.989 29.7225 287.037 29.9625C287.085 30.2025 287.133 30.4905 287.181 30.7785C287.277 31.3545 287.325 31.9305 287.325 32.5065ZM285.261 28.4745H285.213C285.597 28.4265 285.981 28.5705 286.221 28.8585C286.701 29.4825 286.845 30.1545 286.989 31.4025C286.893 30.1545 286.797 29.4825 286.317 28.8105C286.077 28.4745 285.645 28.2825 285.261 28.3305C284.877 28.3785 284.493 28.5705 284.157 28.8105C283.581 29.1945 282.909 30.2505 282.381 31.3065C281.805 32.4105 281.229 33.4665 280.749 34.5705C281.277 33.5145 281.853 32.4585 282.429 31.4025C282.957 30.3945 283.677 29.3385 284.205 28.9545C284.541 28.7145 284.877 28.5225 285.261 28.4745ZM286.509 44.2665V44.3145C286.893 45.1305 287.421 45.8025 287.949 46.1385C287.421 45.7065 286.941 44.9865 286.605 44.1705C286.269 43.3545 286.029 42.4425 285.885 41.4825C285.741 40.5225 285.741 39.5625 285.741 38.6025C285.741 37.6425 285.789 36.6825 285.837 35.7225L285.693 37.1625L285.597 38.6025C285.597 39.5625 285.597 40.5705 285.741 41.5305C285.885 42.4905 286.125 43.4505 286.509 44.2665Z" fill="white"/>
</g>
<defs>
<filter id="filter0_d_311_36" x="47.0148" y="6.88998" width="257.895" height="76.4982" filterUnits="userSpaceOnUse" color-interpolation-filters="sRGB">
<feFlood flood-opacity="0" result="BackgroundImageFix"/>
<feColorMatrix in="SourceAlpha" type="matrix" values="0 0 0 0 0 0 0 0 0 0 0 0 0 0 0 0 0 0 127 0" result="hardAlpha"/>
<feOffset dy="6.99259"/>
<feGaussianBlur stdDeviation="6.99259"/>
<feComposite in2="hardAlpha" operator="out"/>
<feColorMatrix type="matrix" values="0 0 0 0 0 0 0 0 0 0 0 0 0 0 0 0 0 0 0.25 0"/>
<feBlend mode="normal" in2="BackgroundImageFix" result="effect1_dropShadow_311_36"/>
<feBlend mode="normal" in="SourceGraphic" in2="effect1_dropShadow_311_36" result="shape"/>
</filter>
<linearGradient id="paint0_linear_311_36" x1="45" y1="8.05322" x2="3" y2="60.5532" gradientUnits="userSpaceOnUse">
<stop stop-color="white"/>
<stop offset="1" stop-color="#FFC275"/>
</linearGradient>
</defs>
</svg>
