<svg width="206" height="22" viewBox="0 0 206 22" fill="none" xmlns="http://www.w3.org/2000/svg">
<path d="M7.94 1.78645C9.28667 1.78645 10.4867 2.09312 11.54 2.70645C12.5933 3.30645 13.4067 4.14645 13.98 5.22645C14.5667 6.29312 14.86 7.51312 14.86 8.88645C14.86 10.2598 14.5667 11.4865 13.98 12.5665C13.4067 13.6331 12.5933 14.4731 11.54 15.0865C10.4867 15.6865 9.28667 15.9865 7.94 15.9865C6.58 15.9865 5.37333 15.6865 4.32 15.0865C3.26667 14.4731 2.44667 13.6331 1.86 12.5665C1.27333 11.4865 0.98 10.2598 0.98 8.88645C0.98 7.51312 1.27333 6.29312 1.86 5.22645C2.44667 4.14645 3.26667 3.30645 4.32 2.70645C5.37333 2.09312 6.58 1.78645 7.94 1.78645ZM7.94 2.58645C6.7 2.58645 5.62 2.85312 4.7 3.38645C3.78 3.90645 3.07333 4.63979 2.58 5.58646C2.08667 6.53312 1.84 7.63312 1.84 8.88645C1.84 10.1265 2.08667 11.2265 2.58 12.1865C3.07333 13.1331 3.78 13.8731 4.7 14.4065C5.62 14.9398 6.7 15.2065 7.94 15.2065C9.16667 15.2065 10.2333 14.9398 11.14 14.4065C12.06 13.8731 12.7667 13.1331 13.26 12.1865C13.7533 11.2265 14 10.1265 14 8.88645C14 7.63312 13.7533 6.53312 13.26 5.58646C12.7667 4.63979 12.06 3.90645 11.14 3.38645C10.2333 2.85312 9.16667 2.58645 7.94 2.58645ZM7.9 4.24645C7.1 4.24645 6.36667 4.43312 5.7 4.80645C5.04667 5.17979 4.52667 5.71979 4.14 6.42645C3.75333 7.11979 3.56 7.93312 3.56 8.86645C3.56 9.79979 3.75333 10.6198 4.14 11.3265C4.52667 12.0198 5.04667 12.5598 5.7 12.9465C6.36667 13.3198 7.1 13.5065 7.9 13.5065C8.9 13.5065 9.76667 13.2398 10.5 12.7065C11.2333 12.1598 11.7333 11.4331 12 10.5265H10.32C9.92 11.6331 9.11333 12.1865 7.9 12.1865C7.1 12.1865 6.44667 11.8998 5.94 11.3265C5.43333 10.7531 5.18 9.93979 5.18 8.88645C5.18 7.81979 5.43333 6.99979 5.94 6.42645C6.44667 5.85312 7.1 5.56645 7.9 5.56645C8.48667 5.56645 8.99333 5.71312 9.42 6.00645C9.84667 6.28645 10.1467 6.69312 10.32 7.22645H12C11.7467 6.27979 11.2533 5.54645 10.52 5.02645C9.78667 4.50645 8.91333 4.24645 7.9 4.24645ZM22.1919 14.4065C23.8852 13.0465 25.2119 11.9331 26.1719 11.0665C27.1319 10.1865 27.9385 9.27312 28.5919 8.32645C29.2585 7.36645 29.5919 6.42645 29.5919 5.50645C29.5919 4.63979 29.3785 3.95979 28.9519 3.46645C28.5385 2.95979 27.8652 2.70645 26.9319 2.70645C26.0252 2.70645 25.3185 2.99312 24.8119 3.56645C24.3185 4.12645 24.0519 4.87979 24.0119 5.82645H22.2519C22.3052 4.33312 22.7585 3.17979 23.6119 2.36645C24.4652 1.55312 25.5652 1.14645 26.9119 1.14645C28.2852 1.14645 29.3719 1.52645 30.1719 2.28645C30.9852 3.04645 31.3919 4.09312 31.3919 5.42645C31.3919 6.53312 31.0585 7.61312 30.3919 8.66645C29.7385 9.70645 28.9919 10.6265 28.1519 11.4265C27.3119 12.2131 26.2385 13.1331 24.9319 14.1865H31.8119V15.7065H22.1919V14.4065ZM33.9158 8.48645C33.9158 6.19312 34.2891 4.40645 35.0358 3.12645C35.7824 1.83312 37.0891 1.18645 38.9558 1.18645C40.8091 1.18645 42.1091 1.83312 42.8558 3.12645C43.6024 4.40645 43.9758 6.19312 43.9758 8.48645C43.9758 10.8198 43.6024 12.6331 42.8558 13.9265C42.1091 15.2198 40.8091 15.8665 38.9558 15.8665C37.0891 15.8665 35.7824 15.2198 35.0358 13.9265C34.2891 12.6331 33.9158 10.8198 33.9158 8.48645ZM42.1758 8.48645C42.1758 7.32645 42.0958 6.34645 41.9358 5.54645C41.7891 4.73312 41.4758 4.07979 40.9958 3.58645C40.5291 3.09312 39.8491 2.84645 38.9558 2.84645C38.0491 2.84645 37.3558 3.09312 36.8758 3.58645C36.4091 4.07979 36.0958 4.73312 35.9358 5.54645C35.7891 6.34645 35.7158 7.32645 35.7158 8.48645C35.7158 9.68645 35.7891 10.6931 35.9358 11.5065C36.0958 12.3198 36.4091 12.9731 36.8758 13.4665C37.3558 13.9598 38.0491 14.2065 38.9558 14.2065C39.8491 14.2065 40.5291 13.9598 40.9958 13.4665C41.4758 12.9731 41.7891 12.3198 41.9358 11.5065C42.0958 10.6931 42.1758 9.68645 42.1758 8.48645ZM46.2544 14.4065C47.9477 13.0465 49.2744 11.9331 50.2344 11.0665C51.1944 10.1865 52.001 9.27312 52.6544 8.32645C53.321 7.36645 53.6544 6.42645 53.6544 5.50645C53.6544 4.63979 53.441 3.95979 53.0144 3.46645C52.601 2.95979 51.9277 2.70645 50.9944 2.70645C50.0877 2.70645 49.381 2.99312 48.8744 3.56645C48.381 4.12645 48.1144 4.87979 48.0744 5.82645H46.3144C46.3677 4.33312 46.821 3.17979 47.6744 2.36645C48.5277 1.55312 49.6277 1.14645 50.9744 1.14645C52.3477 1.14645 53.4344 1.52645 54.2344 2.28645C55.0477 3.04645 55.4544 4.09312 55.4544 5.42645C55.4544 6.53312 55.121 7.61312 54.4544 8.66645C53.801 9.70645 53.0544 10.6265 52.2144 11.4265C51.3744 12.2131 50.301 13.1331 48.9944 14.1865H55.8744V15.7065H46.2544V14.4065ZM57.5383 12.6465V11.2665L64.5583 1.54645H66.7383V11.0665H68.7383V12.6465H66.7383V15.8665H64.9383V12.6465H57.5383ZM65.0183 3.44645L59.6383 11.0665H65.0183V3.44645ZM83.1684 8.68645C83.6751 8.76645 84.1351 8.97312 84.5484 9.30645C84.9751 9.63979 85.3084 10.0531 85.5484 10.5465C85.8018 11.0398 85.9284 11.5665 85.9284 12.1265C85.9284 12.8331 85.7484 13.4731 85.3884 14.0465C85.0284 14.6065 84.5018 15.0531 83.8084 15.3865C83.1284 15.7065 82.3218 15.8665 81.3884 15.8665H76.1884V1.92645H81.1884C82.1351 1.92645 82.9418 2.08645 83.6084 2.40645C84.2751 2.71312 84.7751 3.13312 85.1084 3.66645C85.4418 4.19979 85.6084 4.79979 85.6084 5.46645C85.6084 6.29312 85.3818 6.97979 84.9284 7.52645C84.4884 8.05979 83.9018 8.44645 83.1684 8.68645ZM78.0084 7.94645H81.0684C81.9218 7.94645 82.5818 7.74645 83.0484 7.34645C83.5151 6.94645 83.7484 6.39312 83.7484 5.68646C83.7484 4.97979 83.5151 4.42645 83.0484 4.02645C82.5818 3.62645 81.9084 3.42645 81.0284 3.42645H78.0084V7.94645ZM81.2284 14.3665C82.1351 14.3665 82.8418 14.1531 83.3484 13.7265C83.8551 13.2998 84.1084 12.7065 84.1084 11.9465C84.1084 11.1731 83.8418 10.5665 83.3084 10.1265C82.7751 9.67312 82.0618 9.44645 81.1684 9.44645H78.0084V14.3665H81.2284ZM87.7741 10.3465C87.7741 9.22645 88.0007 8.24645 88.4541 7.40645C88.9074 6.55312 89.5274 5.89312 90.3141 5.42645C91.1141 4.95979 92.0007 4.72645 92.9741 4.72645C93.9341 4.72645 94.7674 4.93312 95.4741 5.34645C96.1807 5.75979 96.7074 6.27979 97.0541 6.90645V4.90645H98.8941V15.8665H97.0541V13.8265C96.6941 14.4665 96.1541 14.9998 95.4341 15.4265C94.7274 15.8398 93.9007 16.0465 92.9541 16.0465C91.9807 16.0465 91.1007 15.8065 90.3141 15.3265C89.5274 14.8465 88.9074 14.1731 88.4541 13.3065C88.0007 12.4398 87.7741 11.4531 87.7741 10.3465ZM97.0541 10.3665C97.0541 9.53979 96.8874 8.81979 96.5541 8.20645C96.2207 7.59312 95.7674 7.12645 95.1941 6.80645C94.6341 6.47312 94.0141 6.30645 93.3341 6.30645C92.6541 6.30645 92.0341 6.46645 91.4741 6.78645C90.9141 7.10645 90.4674 7.57312 90.1341 8.18646C89.8007 8.79979 89.6341 9.51979 89.6341 10.3465C89.6341 11.1865 89.8007 11.9198 90.1341 12.5465C90.4674 13.1598 90.9141 13.6331 91.4741 13.9665C92.0341 14.2865 92.6541 14.4465 93.3341 14.4465C94.0141 14.4465 94.6341 14.2865 95.1941 13.9665C95.7674 13.6331 96.2207 13.1598 96.5541 12.5465C96.8874 11.9198 97.0541 11.1931 97.0541 10.3665ZM104.19 6.40645V12.8665C104.19 13.3998 104.303 13.7798 104.53 14.0065C104.756 14.2198 105.15 14.3265 105.71 14.3265H107.05V15.8665H105.41C104.396 15.8665 103.636 15.6331 103.13 15.1665C102.623 14.6998 102.37 13.9331 102.37 12.8665V6.40645H100.95V4.90645H102.37V2.14645H104.19V4.90645H107.05V6.40645H104.19ZM110.195 3.12645C109.848 3.12645 109.555 3.00645 109.315 2.76645C109.075 2.52645 108.955 2.23312 108.955 1.88645C108.955 1.53979 109.075 1.24645 109.315 1.00645C109.555 0.766454 109.848 0.646454 110.195 0.646454C110.528 0.646454 110.808 0.766454 111.035 1.00645C111.275 1.24645 111.395 1.53979 111.395 1.88645C111.395 2.23312 111.275 2.52645 111.035 2.76645C110.808 3.00645 110.528 3.12645 110.195 3.12645ZM111.075 4.90645V15.8665H109.255V4.90645H111.075ZM120.297 15.8665L115.997 11.0265V15.8665H114.177V1.06645H115.997V9.76645L120.217 4.90645H122.757L117.597 10.3665L122.777 15.8665H120.297ZM123.79 10.3465C123.79 9.22645 124.016 8.24645 124.47 7.40645C124.923 6.55312 125.543 5.89312 126.33 5.42645C127.13 4.95979 128.016 4.72645 128.99 4.72645C129.95 4.72645 130.783 4.93312 131.49 5.34645C132.196 5.75979 132.723 6.27979 133.07 6.90645V4.90645H134.91V15.8665H133.07V13.8265C132.71 14.4665 132.17 14.9998 131.45 15.4265C130.743 15.8398 129.916 16.0465 128.97 16.0465C127.996 16.0465 127.116 15.8065 126.33 15.3265C125.543 14.8465 124.923 14.1731 124.47 13.3065C124.016 12.4398 123.79 11.4531 123.79 10.3465ZM133.07 10.3665C133.07 9.53979 132.903 8.81979 132.57 8.20645C132.236 7.59312 131.783 7.12645 131.21 6.80645C130.65 6.47312 130.03 6.30645 129.35 6.30645C128.67 6.30645 128.05 6.46645 127.49 6.78645C126.93 7.10645 126.483 7.57312 126.15 8.18646C125.816 8.79979 125.65 9.51979 125.65 10.3465C125.65 11.1865 125.816 11.9198 126.15 12.5465C126.483 13.1598 126.93 13.6331 127.49 13.9665C128.05 14.2865 128.67 14.4465 129.35 14.4465C130.03 14.4465 130.65 14.2865 131.21 13.9665C131.783 13.6331 132.236 13.1598 132.57 12.5465C132.903 11.9198 133.07 11.1931 133.07 10.3665ZM139.805 1.06645V15.8665H137.985V1.06645H139.805ZM147.687 16.0465C146.661 16.0465 145.727 15.8131 144.887 15.3465C144.061 14.8798 143.407 14.2198 142.927 13.3665C142.461 12.4998 142.227 11.4998 142.227 10.3665C142.227 9.24645 142.467 8.25979 142.947 7.40645C143.441 6.53979 144.107 5.87979 144.947 5.42645C145.787 4.95979 146.727 4.72645 147.767 4.72645C148.807 4.72645 149.747 4.95979 150.587 5.42645C151.427 5.87979 152.087 6.53312 152.567 7.38645C153.061 8.23979 153.307 9.23312 153.307 10.3665C153.307 11.4998 153.054 12.4998 152.547 13.3665C152.054 14.2198 151.381 14.8798 150.527 15.3465C149.674 15.8131 148.727 16.0465 147.687 16.0465ZM147.687 14.4465C148.341 14.4465 148.954 14.2931 149.527 13.9865C150.101 13.6798 150.561 13.2198 150.907 12.6065C151.267 11.9931 151.447 11.2465 151.447 10.3665C151.447 9.48645 151.274 8.73979 150.927 8.12645C150.581 7.51312 150.127 7.05979 149.567 6.76645C149.007 6.45979 148.401 6.30645 147.747 6.30645C147.081 6.30645 146.467 6.45979 145.907 6.76645C145.361 7.05979 144.921 7.51312 144.587 8.12645C144.254 8.73979 144.087 9.48645 144.087 10.3665C144.087 11.2598 144.247 12.0131 144.567 12.6265C144.901 13.2398 145.341 13.6998 145.887 14.0065C146.434 14.2998 147.034 14.4465 147.687 14.4465ZM161.04 4.70645C162.373 4.70645 163.453 5.11312 164.28 5.92645C165.107 6.72645 165.52 7.88645 165.52 9.40645V15.8665H163.72V9.66646C163.72 8.57312 163.447 7.73979 162.9 7.16645C162.353 6.57979 161.607 6.28645 160.66 6.28645C159.7 6.28645 158.933 6.58645 158.36 7.18645C157.8 7.78645 157.52 8.65979 157.52 9.80646V15.8665H155.7V4.90645H157.52V6.46645C157.88 5.90645 158.367 5.47312 158.98 5.16645C159.607 4.85979 160.293 4.70645 161.04 4.70645ZM173.013 4.72645C173.96 4.72645 174.786 4.93312 175.493 5.34645C176.213 5.75979 176.746 6.27979 177.093 6.90645V4.90645H178.933V16.1065C178.933 17.1065 178.72 17.9931 178.293 18.7665C177.866 19.5531 177.253 20.1665 176.453 20.6065C175.666 21.0465 174.746 21.2665 173.693 21.2665C172.253 21.2665 171.053 20.9265 170.093 20.2465C169.133 19.5665 168.566 18.6398 168.393 17.4665H170.193C170.393 18.1331 170.806 18.6665 171.433 19.0665C172.06 19.4798 172.813 19.6865 173.693 19.6865C174.693 19.6865 175.506 19.3731 176.133 18.7465C176.773 18.1198 177.093 17.2398 177.093 16.1065V13.8065C176.733 14.4465 176.2 14.9798 175.493 15.4065C174.786 15.8331 173.96 16.0465 173.013 16.0465C172.04 16.0465 171.153 15.8065 170.353 15.3265C169.566 14.8465 168.946 14.1731 168.493 13.3065C168.04 12.4398 167.813 11.4531 167.813 10.3465C167.813 9.22645 168.04 8.24645 168.493 7.40645C168.946 6.55312 169.566 5.89312 170.353 5.42645C171.153 4.95979 172.04 4.72645 173.013 4.72645ZM177.093 10.3665C177.093 9.53979 176.926 8.81979 176.593 8.20645C176.26 7.59312 175.806 7.12645 175.233 6.80645C174.673 6.47312 174.053 6.30645 173.373 6.30645C172.693 6.30645 172.073 6.46645 171.513 6.78645C170.953 7.10645 170.506 7.57312 170.173 8.18646C169.84 8.79979 169.673 9.51979 169.673 10.3465C169.673 11.1865 169.84 11.9198 170.173 12.5465C170.506 13.1598 170.953 13.6331 171.513 13.9665C172.073 14.2865 172.693 14.4465 173.373 14.4465C174.053 14.4465 174.673 14.2865 175.233 13.9665C175.806 13.6331 176.26 13.1598 176.593 12.5465C176.926 11.9198 177.093 11.1931 177.093 10.3665ZM181.329 10.3465C181.329 9.22645 181.555 8.24645 182.009 7.40645C182.462 6.55312 183.082 5.89312 183.869 5.42645C184.669 4.95979 185.555 4.72645 186.529 4.72645C187.489 4.72645 188.322 4.93312 189.029 5.34645C189.735 5.75979 190.262 6.27979 190.609 6.90645V4.90645H192.449V15.8665H190.609V13.8265C190.249 14.4665 189.709 14.9998 188.989 15.4265C188.282 15.8398 187.455 16.0465 186.509 16.0465C185.535 16.0465 184.655 15.8065 183.869 15.3265C183.082 14.8465 182.462 14.1731 182.009 13.3065C181.555 12.4398 181.329 11.4531 181.329 10.3465ZM190.609 10.3665C190.609 9.53979 190.442 8.81979 190.109 8.20645C189.775 7.59312 189.322 7.12645 188.749 6.80645C188.189 6.47312 187.569 6.30645 186.889 6.30645C186.209 6.30645 185.589 6.46645 185.029 6.78645C184.469 7.10645 184.022 7.57312 183.689 8.18646C183.355 8.79979 183.189 9.51979 183.189 10.3465C183.189 11.1865 183.355 11.9198 183.689 12.5465C184.022 13.1598 184.469 13.6331 185.029 13.9665C185.589 14.2865 186.209 14.4465 186.889 14.4465C187.569 14.4465 188.189 14.2865 188.749 13.9665C189.322 13.6331 189.775 13.1598 190.109 12.5465C190.442 11.9198 190.609 11.1931 190.609 10.3665ZM200.864 4.70645C202.198 4.70645 203.278 5.11312 204.104 5.92645C204.931 6.72645 205.344 7.88645 205.344 9.40645V15.8665H203.544V9.66646C203.544 8.57312 203.271 7.73979 202.724 7.16645C202.178 6.57979 201.431 6.28645 200.484 6.28645C199.524 6.28645 198.758 6.58645 198.184 7.18645C197.624 7.78645 197.344 8.65979 197.344 9.80646V15.8665H195.524V4.90645H197.344V6.46645C197.704 5.90645 198.191 5.47312 198.804 5.16645C199.431 4.85979 200.118 4.70645 200.864 4.70645Z" fill="white"/>
</svg>
